<?xml version="1.0" encoding="UTF-8"?>
<svg xmlns="http://www.w3.org/2000/svg" viewBox="0 0 325.56 460">
  <g style="isolation: isolate;">
    <g id="uuid-13016b82-26d2-43be-bde7-7f70d50afa5e" data-name="Layer 1">
      <g>
        <path d="m160.27,246.47c10.7-4.83,21.64,3.31,28.77,4.08-1.28-6.88-2.3-12.73-2.3-12.73,0,0,6.36,4.57,7.9-1.53-8.65-12.64-13.44-41.7-14.85-51.32-.28-1.99-.43-3.15-.43-3.15l-.26-17.56-18.44-4.25s2.15,15.7,11.31,22.06c.33.82.65,2.33.97,4.29,1.93,11.96,3.62,41.27,3.62,41.27l-18.58-8.14s-8.4,31.81,2.29,26.98Z" style="fill: #533926;"/>
        <path d="m159.29,158.23s1.07,5.94,5.51,10.33c.45.47.95.89,1.49,1.32.95.74,2.02,1.39,3.24,1.93.09.04.16.07.24.1.47.18.92.33,1.38.4,7.42,1.43,11.38-11.12,11.38-11.12-12.42-8.47-23.24-2.96-23.24-2.96Z" style="fill: #64452e;"/>
        <g style="mix-blend-mode: multiply; opacity: .5;">
          <path d="m169.78,171.91c.47.18.92.33,1.38.4.41-1.75,2.09-7.06,7.53-12.19l-.98-1.02c-5.68,5.33-7.44,10.8-7.93,12.81Z" style="fill: #64452e;"/>
        </g>
        <path d="m166.3,169.88c-.2-2.47.06-6.68,2.36-12.69l-1.32-.5c-2,5.21-2.53,9.15-2.53,11.86.45.47.95.89,1.49,1.32Z" style="fill: #64452e; mix-blend-mode: multiply; opacity: .5;"/>
        <path d="m165.39,157.63l-8.66,8.28s7.68,15.17,14.77,15.56c-1.58-7.68-8.86-16.15-8.86-16.15l5.91-3.55s3.54-3.94-3.16-4.14Z" style="fill: #64452e;"/>
        <path d="m160.27,246.47c10.7-4.83,21.64,3.31,28.77,4.08-1.28-6.88-2.3-12.73-2.3-12.73,0,0,6.36,4.57,7.9-1.53-8.65-12.64-13.44-41.7-14.85-51.32-2.5.91-4.99,1.26-6.85,1.39,1.93,11.96,3.62,41.27,3.62,41.27l-18.58-8.14s-8.4,31.81,2.29,26.98Z" style="fill: #c47d56;"/>
        <g>
          <path d="m61.78,76.82l4.81-1.93,3.56-1.42s1.06-1.29,2.78-3.5c1.04-1.33,2.31-2.99,3.73-4.89,2.33-3.12,5.04-6.86,7.71-10.83.31-.47.61-.93.93-1.4,4.2-6.37,8.13-13.17,10.1-18.71,1.17-3.3,1.65-6.15,1.05-8.2C93.14,14.54,79.93-1.48,77.06.11c-2.02,1.14-8.82,38.98-12.62,61.08-1.27,7.33-2.21,12.92-2.54,14.88-.07.48-.12.75-.12.75Z" style="fill: #d3905f;"/>
          <path d="m66.6,74.89l3.56-1.42s19.92-24.29,25.25-39.33c-1.4-9.07-8.27-18.43-9.41-16.65-1.18,1.85-15.67,45.93-19.4,57.4Z" style="fill: #f0c09f;"/>
          <path d="m61.9,76.06l7.49-4.96c2.02-1.65,4.5-3.69,7.28-6.02,2.33-3.12,5.04-6.86,7.71-10.83-9.1,3.68-16.89,6.05-19.93,6.93-1.27,7.33-2.21,12.92-2.54,14.88Z" style="fill: #d3905f; mix-blend-mode: multiply; opacity: .4;"/>
          <path d="m61.28,79.08C37.91,52.47,10.02,18.14,2.77,19.09c-7.25.94,1.29,29.09,7.59,43.09s50,29.09,50,29.09l.91-12.18Z" style="fill: #d3905f;"/>
          <path d="m60.01,81.54S9.77,26.69,7.29,26.79c-2.48.11,5.12,20.32,16.09,35.34,10.97,15.02,35.95,23.05,35.95,23.05l.67-3.64Z" style="fill: #f0c09f;"/>
          <path d="m78.33,151.52c17.41,32.41,47.43,12.11,34.76-6.24-11.04-15.97-5.96-35.79-4.46-40.66.23-.73.37-1.12.37-1.12,0,0,1.07.66,2.95,1.64,7.37,3.85,27.16,12.79,42.33,6.78,18.15-7.19,22.17-28.63,21.2-42.8-.33-4.86-1.25-8.88-2.4-11.15-1.89-3.77-12.37-5.8-26.23-6.1-30.54-.68-77.5,7.04-85.17,23.18-8.87,18.64-.78,44.07,16.65,76.49Z" style="fill: #d3905f;"/>
          <path d="m152.37,105.5c8.14-7.1,2.45-13.05-5.43-2.84,4.39-1.42,8.14-1.55,5.43,2.84Z" style="fill: #64452e;"/>
          <path d="m146.86,51.85c2.12,5.78,8.03,19.24,12.49,20.23,3.05.67,10.62-1.3,16.14-2.98-.33-4.86-1.25-8.88-2.4-11.15-1.89-3.77-12.37-5.8-26.23-6.1Z" style="fill: #64452e;"/>
          <g>
            <path d="m79.69,83.36c2.47,5.31,8.78,7.61,14.09,5.14,5.31-2.47,7.61-8.78,5.14-14.09-2.47-5.31-8.78-7.61-14.09-5.14-5.31,2.47-7.61,8.78-5.14,14.09Z" style="fill: #bd764f;"/>
            <path d="m81.11,82.7c2.11,4.52,7.48,6.48,12,4.38,4.52-2.11,6.48-7.48,4.38-12-2.11-4.52-7.48-6.48-12-4.38-4.52,2.11-6.48,7.48-4.38,12Z" style="fill: #64452e;"/>
            <path d="m81.55,83.63c1.87,4.01,7.04,5.55,11.57,3.44,4.52-2.11,6.68-7.06,4.81-11.07s-7.04-5.55-11.57-3.44c-4.52,2.11-6.68,7.06-4.81,11.07Z" style="fill: #fff;"/>
            <path d="m89.58,80.85c1.06,2.28,3.78,3.27,6.06,2.21,2.28-1.06,3.27-3.78,2.21-6.06-1.06-2.28-3.78-3.27-6.06-2.21s-3.27,3.78-2.21,6.06Z" style="fill: #64452e;"/>
            <path d="m88.23,78.25c.22.87,1.09,1.4,1.96,1.18.87-.22,1.4-1.09,1.18-1.96-.22-.87-1.09-1.4-1.96-1.18-.87.22-1.4,1.09-1.18,1.96Z" style="fill: #fff;"/>
          </g>
          <path d="m168.39,58.72c1.74,1.72-11.08,5.13-12.37,5.06s-6.36-8.46-6.53-9.99c-.17-1.53,16.11,2.17,18.9,4.93Z" style="fill: #64452e; mix-blend-mode: screen; opacity: .5;"/>
          <path d="m103.36,66.42c-7.2,4.29-12.77-2.57-17.15-2.23,7.63-4.63,13.03,2.92,17.15,2.23Z" style="fill: #64452e;"/>
        </g>
        <path d="m16.44,412.22c.81,5.16,1.79,10.66,2.83,15.98,2.96,15.12,6.42,28.94,7.84,30.36,3.24,3.24,131.03,0,146.15,0,9.49,0,15.59-29.81,18.26-55.99,1.59-15.53,1.99-29.78,1.18-35.8-.68-5.13-3.03-12.73-6.04-22.06-1.79-5.5-3.79-11.61-5.82-18.17-5.4-17.42-11.01-38.05-12.97-59.12-3.96-42.48-.72-48.23-1.8-63.71-.81-11.55-28.44-34.31-45.28-50.51-5.74-5.51-10.22-10.27-11.95-13.57-6.85-12.97-36.87-1.42-30.49,11.88,9.77,20.43-2.15,48.59-11.75,96.47-4.11,20.47-5.2,39.82-4.33,56.82,1.17,22.76,5.88,41.29,11.65,52.62,10.09,19.79,54.36,58.31,54.36,58.31,0,0-27.65,9.58-50.11,16.95-12.39,4.08-23.2,7.49-26.92,8.25-10.44,2.16-30.23-55.44-35.63-54-2.17.57-1.25,11.85.84,25.29Z" style="fill: #d3905f;"/>
        <path d="m19.27,428.2c2.96,15.12,6.42,28.94,7.84,30.36,3.24,3.24,131.03,0,146.15,0s21.6-75.6,19.44-91.79-20.87-56.87-24.83-99.35c-3.96-42.48-.72-48.23-1.8-63.71-.28-4.22-4.18-9.93-9.79-16.28-3.92-4.42-8.67-9.14-13.65-13.87-7.46-7.09-15.43-14.19-21.84-20.36-9.65-5.24-8.14,4.52,1.36,28.54,7.47,18.88,5.92,40.14,4.5,60.27-.4,5.68-.78,11.27-.95,16.69-.36,10.56.13,20.49,2.93,29.22,9.36,29.17,34.57,37.81,43.93,72.73,9.35,34.91,2.87,79.9-1.09,87.83-3.95,7.91-136.42,9.72-139.66,7.91-3.24-1.8-9.36-19.08-11.88-26.64-.2-.58-.41-1.11-.65-1.56Z" style="fill: #f0c09f;"/>
        <path d="m85.44,214.41c6.11,1.42,30.39,31.95,40.25,44.3,2.26,2.83,3.76,4.7,4.12,5.06,1.95,1.93,10.46,3.88,15.1-10.46,5.81,5.04,12.39,1.95,12.39,1.95l-7.36-61.18s2.71-2.44,6.32-6.65c-3.92-4.42-8.67-9.14-13.65-13.87l1.14,64.26-9.29,13.17s-3.11-3.79-7.81-8.98c-11.58-12.72-32.78-33.8-41.2-27.6Z" style="fill: #d3905f; mix-blend-mode: multiply; opacity: .3;"/>
        <g>
          <path d="m85.44,214.41c16.28,3.81,43.02,43.52,46.57,43.01,3.57-.5,7.64-11.71,7.64-11.71,0,0,3.57,5.1,9.42,3.05-3.27-12.16-3.95-39.37-4.06-53.96-.01-1.18-.03-2.27-.01-3.27-.03-3.96,0-6.41,0-6.41,0,0,5.85-4.32,9.93-18.33-.91-1.62-2.16-3.1-3.62-4.4-.53-.47-1.08-.92-1.65-1.35-2.33-1.79-4.99-3.23-7.46-4.35-.63-.3-1.25-.55-1.85-.81-3.81-1.58-6.81-2.32-6.81-2.32l1.78,8.4-6.86,1.26s2.49,14.68,8.43,20.91c.09.09.16.16.23.23.36,1.8.51,4.06.51,6.62,0,1.04-.03,2.13-.07,3.25-.68,15.97-5.78,39.5-5.78,39.5,0,0-13.24-11.45-29.79-50.39,0,0-15.27,15.27-16.54,31.06Z" style="fill: #d3905f;"/>
          <path d="m128.46,163.23s2.49,14.68,8.43,20.91c.09.09.16.16.23.23.36,1.8.51,4.06.51,6.62,2.34.36,4.94.63,7.37.54-.03-3.96,0-6.41,0-6.41,0,0,5.85-4.32,9.93-18.33-.91-1.62-2.16-3.1-3.62-4.4-.53-.47-1.08-.92-1.65-1.35-2.33-1.79-4.99-3.23-7.46-4.35-.63-.3-1.25-.55-1.85-.81-3.81-1.58-6.81-2.32-6.81-2.32l1.78,8.4-6.86,1.26Z" style="fill: #64452e;"/>
          <path d="m137.12,184.37c.5,2.54.6,5.98.44,9.87,2.12-.26,4.69-.21,7.46.55-.06-5.85-.01-9.68-.01-9.68,0,0,5.85-4.32,9.93-18.33-.91-1.62-2.16-3.1-3.62-4.4-.53-.47-1.08-.92-1.65-1.35-2.33-1.79-4.99-3.23-7.46-4.35-.63-.3-1.25-.55-1.85-.81-3.81-1.58-6.81-2.32-6.81-2.32l1.78,8.4-6.86,1.26s2.54,15.03,8.65,21.14Z" style="fill: #64452e;"/>
          <g>
            <path d="m149.93,169.13l1.35.44c.03-.1.68-2.16.03-7.17-.53-.47-1.08-.92-1.65-1.35.97,5.75.27,8.06.27,8.08Z" style="fill: #64452e; mix-blend-mode: multiply; opacity: .5;"/>
            <path d="m141.75,163.4l1.41.18c.03-.17.41-3.04-.95-6.89-.63-.3-1.25-.55-1.85-.81,1.83,4.16,1.41,7.47,1.39,7.52Z" style="fill: #64452e; mix-blend-mode: multiply; opacity: .5;"/>
          </g>
        </g>
        <path d="m152.98,277.95l18.61,61.16s32.59-51.59,41.75-54.13c9.16-2.54,67.86,34.04,89.95,55.97.27.27.54.54.81.81,7.47-17.53,6.32-50.22,3.58-77.22-2.47-24.18-6.24-43.77-6.24-43.77,0,0-.53.88-1.34,2.4t-.01.03c-2.44,4.56-7.4,14.76-8.4,23.71-.31,2.77-.17,8.55.23,15.8,1.34,24.1,5.53,64.43,5.53,64.43,0,0-59.83-40.33-71.79-68.71-3.11-.44-4.87,3.55-4.87,3.55,0,0-4.43-4.87-5.77-10.64-19.95,0-62.04,26.6-62.04,26.6Z" style="fill: #c47d56;"/>
        <path d="m164.93,365.89s9.46-14.89,21.72-21.18c-1.79-5.5-3.79-11.61-5.82-18.17-.54.3-1.11.63-1.68.99-19.51,12.42-14.22,38.36-14.22,38.36Z" style="fill: #d3905f; mix-blend-mode: multiply; opacity: .3;"/>
        <path d="m128.27,415.73s-27.65,9.58-50.11,16.95l73.07-16.95s-67.29-49.88-88.97-110.93c1.17,22.76,5.88,41.29,11.65,52.62,10.09,19.79,54.36,58.31,54.36,58.31Z" style="fill: #d3905f; mix-blend-mode: multiply; opacity: .3;"/>
        <path d="m16.44,412.22c.81,5.16,1.79,10.66,2.83,15.98,2.96,15.12,6.42,28.94,7.84,30.36,3.24,3.24,131.03,0,146.15,0,9.49,0,15.59-29.81,18.26-55.99-11.71,27.92-25.59,34.62-38.96,39.3-17.73,6.21-110.8,9.75-117.45,5.33-3.72-2.49-12.06-20.05-18.67-34.98Z" style="fill: #d3905f; mix-blend-mode: multiply; opacity: .3;"/>
        <path d="m101.98,183.35c.04,16.38,27.06,59.9,31.33,58.35,4.1-1.49,9.66-40.15,5.52-55.37-.27-.98-.97-1.79-1.91-2.18,0,0-.02,0-.03-.01.09.09.16.16.23.23.5,2.54.6,5.98.44,9.87-.68,15.97-5.78,39.5-5.78,39.5,0,0-13.24-11.45-29.79-50.39Z" style="fill: #d3905f; mix-blend-mode: screen; opacity: .5;"/>
        <path d="m103.88,300.28c38.3-35.26,87.21-47.78,89.11-46.64,1.9,1.14,1.52,9.1,1.52,9.1,0,0,3.79-4.55,6.83-4.93,3.03-.38,54.98,65.22,71.28,69.39,16.3,4.17,23.13,18.96,9.86,13.65-13.27-5.31-53.84-35.26-70.91-34.13-30.33,17.44-41.71,43.98-46.64,59.15-4.93,15.17-68.63-24.65-61.05-65.6Z" style="fill: #d3905f;"/>
        <path d="m238.29,283.68c12.67,22.7,34.77,50.81,44.18,57.17,6.51,4.4,10.71,4.15,9.11-3.79-3.1-15.23-14.56-45.32-25.26-69.72-9.01-20.57-17.46-37.08-19.86-37.21-6.83-.38-14.79,11-17.45,27.31-.87,5.34,3.08,15.15,9.28,26.24Z" style="fill: #d3905f;"/>
        <path d="m242.12,283.73c11.09,19.86,30.42,44.45,38.66,50.02,5.69,3.85,9.37,3.63,7.97-3.32-2.71-13.33-12.74-39.65-22.1-61-7.88-18-15.28-32.44-17.38-32.56-5.98-.34-12.94,9.62-15.27,23.89-.76,4.67,2.7,13.25,8.12,22.96Z" style="fill: #f0c09f;"/>
        <path d="m238.29,283.68c5.75-5,16.25-12.94,28.03-16.34-9.01-20.57-17.46-37.08-19.86-37.21-6.83-.38-14.79,11-17.45,27.31-.87,5.34,3.08,15.15,9.28,26.24Z" style="fill: #64452e;"/>
        <path d="m303.29,340.96c.27.37.54.64.81.81,6.55,3.92,16.95-39.71,20.33-72.46,1.22-11.62,1.55-21.88.5-28.14-.78-4.72-17.28-22.16-23.48-20.39-.48.14-.94.98-1.34,2.4t-.01.03c-1.69,5.88-2.7,21.68-2.96,39.89-.44,31.85,1.45,71.14,6.15,77.86Z" style="fill: #d3905f;"/>
        <path d="m305.25,335.04c.24.33.48.57.72.72,5.82,3.49,15.07-35.3,18.07-64.41,1.09-10.33,1.38-19.45.44-25.02-.69-4.19-15.36-19.7-20.88-18.12-.43.13-.83.87-1.19,2.13t-.01.03c-1.5,5.23-2.4,19.27-2.63,35.46-.39,28.31,1.29,63.23,5.47,69.21Z" style="fill: #f0c09f;"/>
        <g style="opacity: .3;">
          <path d="m245.41,236.93c2.74-2.19,11.09,12.73,7.6,14.99-3.49,2.26-9.65-13.35-7.6-14.99Z" style="fill: #d3905f;"/>
          <path d="m237.81,244.94c1.28-2.3,12.52,8.01,9.65,11.09-2.87,3.08-11.7-7.39-9.65-11.09Z" style="fill: #d3905f;"/>
          <path d="m241.3,262.39c-1.28,2.23-8.62-1.23-7.6-4.93,1.03-3.7,8.42,3.49,7.6,4.93Z" style="fill: #d3905f;"/>
        </g>
        <path d="m291.92,262.72c1.32.07,3.1.18,5.21.38,2.98.28,6.63.74,10.54,1.45,5.46.99,11.41,2.49,16.75,4.76,1.22-11.62,1.55-21.88.5-28.14-.78-4.72-17.28-22.16-23.48-20.39-.48.14-.94.98-1.34,2.4t-.01.03c-2.44,4.56-7.4,14.76-8.4,23.71-.31,2.77-.17,8.55.23,15.8Z" style="fill: #64452e;"/>
        <g style="opacity: .2;">
          <path d="m306.76,229.16c-3-1.38-5.91,15.08-2.24,16.33,3.67,1.25,4.49-15.29,2.24-16.33Z" style="fill: #d3905f;"/>
          <path d="m315.63,234.84c-1.77-1.87-8.51,10.93-5.14,13.13,3.37,2.2,7.98-10.13,5.14-13.13Z" style="fill: #d3905f;"/>
          <path d="m317.66,252.46c1.75,1.81,7.1-3.43,5.14-6.7-1.95-3.27-6.27,5.54-5.14,6.7Z" style="fill: #d3905f;"/>
        </g>
      </g>
    </g>
  </g>
</svg>