<?xml version="1.0" encoding="UTF-8"?>
<svg xmlns="http://www.w3.org/2000/svg" viewBox="0 0 417.51 407.36">
  <g style="isolation: isolate;">
    <g id="uuid-89206091-66a3-4f42-af3f-97fc808d6fbd" data-name="Layer 1">
      <g>
        <path d="m226.9,346.28c.71,15.31-31.31,61.08-31.31,61.08h119.36s-17.4-21.05-24.01-23.15c-2.33-.74-12.98,1.25-25.83,4.13-23.27,5.22-53.72,13.37-54.68,13.62.6-.82,20.07-26.98,27.95-39.32,8.01-12.52,29.93-26.8,29.93-26.8,0,0,8.7,10.1,2.43-10.09,10.8,15.31,11.15,10.8,6.96-8.01-1.22-5.5-3.25-11.71-5.51-17.73-5.44-14.6-12.23-28.2-12.23-28.2,0,0-2.8.17-7.33.77-17.34,2.31-59.99,11-66.84,40.89,12.63-2.83,40.41,17.5,41.11,32.81Z" style="fill: #d3905f;"/>
        <path d="m262.33,407.36h52.63s-17.4-21.05-24.01-23.15c-2.33-.74-12.98,1.25-25.83,4.13-2.36,6.47-2.88,13.54-2.79,19.02Z" style="fill: #64452e;"/>
        <path d="m206.99,306.91s31.31-12.52,65.21-6.9c-5.44-14.6-12.23-28.2-12.23-28.2,0,0-2.8.17-7.33.77-19.65,10.89-45.65,34.33-45.65,34.33Z" style="fill: #d3905f; mix-blend-mode: multiply; opacity: .3;"/>
        <g style="mix-blend-mode: multiply; opacity: .5;">
          <path d="m289.16,394.27c6.28,3.83,9.8,8.81,11.77,13.09h1.66c-1.99-4.65-5.73-10.2-12.63-14.4l-.8,1.31Z" style="fill: #64452e;"/>
        </g>
        <path d="m0,298.26c.09,4.54,3.28,11.26,8.24,18.76,3.11,4.71,6.93,9.72,11.09,14.69,14.6,17.4,33.61,34.25,42.62,35.46,14.03,1.88,35.59-17.2,48.44-24.95,1.49-.91,2.88-1.66,4.11-2.2.23-.09.46-.23.72-.42,12.88-9.04,57.74-116.85,57.74-116.85l20.53-62.3-10.09-12.18c-6.27,36.89-67.17,66.47-81.09,74.48-13.92,7.99-20.53,99.17-39.68,102.65-19.14,3.48-39.32-28.19-41.06-33.41-1.74-5.22,14.62-39.68,11.49-44.9-2-3.33-15.03,11.3-24.12,26.86-3.28,5.62-6.05,11.35-7.61,16.4-.89,2.91-1.39,5.59-1.34,7.9Z" style="fill: #d3905f;"/>
        <path d="m19.33,331.71c14.6,17.4,33.61,34.25,42.62,35.46,14.03,1.88,35.59-17.2,48.44-24.95-4.08-6.41-12.94-18.56-12.94-18.56-23.67,29.59-33.76,29.94-42.82,29.59-6.7-.25-23.13-11.4-35.3-21.53Z" style="fill: #f0c09f;"/>
        <path d="m0,298.26c.09,4.54,3.28,11.26,8.24,18.76,3.11,4.71,6.93,9.72,11.09,14.69,14.6,17.4,33.61,34.25,42.62,35.46,14.03,1.88,35.59-17.2,48.44-24.95,1.49-.91,2.88-1.66,4.11-2.2.23-.09.46-.23.72-.42l-15.4-45.16s-19.93,43.71-32.78,50.13c-12.86,6.42-59.77-29.56-62.35-43.06-1.36-7.07,1.37-18.39,4.25-27.55-3.28,5.62-6.05,11.35-7.61,16.4-.89,2.91-1.39,5.59-1.34,7.9Z" style="fill: #d3905f; mix-blend-mode: multiply; opacity: .3;"/>
        <path d="m66.35,29.14c5.91,7.64,14.83,15.69,22.49,16.31,15.11,1.2,47.59-13.62,52.69-16.66.12-.08.26-.15.39-.25,8.26-5.01,17.71-12.49,16.17-12.49-26.28,8.09-88.73.37-96.55-.82-3.87-.59-.94,6.47,4.82,13.91Z" style="fill: #d3905f;"/>
        <path d="m66.35,29.14c5.91,7.64,14.83,15.69,22.49,16.31,15.11,1.2,47.59-13.62,52.69-16.66.12-.08.26-.15.39-.25l.37-6.13c-16.8,9.64-61.02,18.81-75.93,6.73Z" style="fill: #d3905f; mix-blend-mode: multiply; opacity: .5;"/>
        <path d="m134.9,28.02c-23.95,13.5-82.03,19.62-89.93,20.13-7.9.51,18.09,25.73,33.12,23.69,15.03-2.04,43.82-27.51,46.37-30.83,2.55-3.31,10.45-12.99,10.45-12.99Z" style="fill: #d3905f;"/>
        <path d="m134.51,407.36s-5.82-38.52-1.59-60.5c.59-3.14,1.4-5.96,2.46-8.27,1.46-3.17,3.08-5.81,4.99-8.04,9.06-10.75,24.2-12.2,56.17-19.47,8.66-1.97,17.99-5.45,27.25-9.92,32.02-15.43,63.01-42.57,61.42-59.14-2.05-21.38-34.82-104.78-54.72-126.14-9.15-9.83-16.94-17.59-25.15-24.5-9.66-8.12-19.91-15.02-33.67-22.61,9.36.88,12.29-5.27,12.29-5.27,0,0,29.85,9.36,47.11-2.34,11.23-7.61,13.58-31.27,10-46.82C239.12,5.96,235.45-.08,230.49,0c-5.81.09-14.19.96-23.53,2.36-22.23,3.36-46.67,10.84-59.31,16.23-20.9,8.92-38.17,29.03-16.31,48.92,19.87,18.1,47.95,48.38,51.17,73.25,3.22,24.87-21.36,89.55-29.26,92.2-3.02,1-8.24.51-13.97-.15-9.23-1.03-19.78-2.48-24.66,1.32-7.9,6.15-19.9,24.87-24,49.46-4.1,24.58-.88,62.04,7.02,48.58-.29,4.1,1.46,17.56,4.68,9.66.34,2.25,3.88,11.66,8.12,22.36,6.76,17.13,15.29,37.63,15.29,37.63,0,0-29.29-7.72-54.32-12.54-15.76-3.02-29.82-4.9-33.78-2.97-10.24,4.97-21.36,21.07-21.36,21.07h118.24Z" style="fill: #d3905f;"/>
        <path d="m206.96,2.36c3.08,3.6,14.91,16.88,21.49,16.37,3.94-.31,8.84-2.42,12.63-4.39C239.12,5.96,235.45-.08,230.49,0c-5.81.09-14.19.96-23.53,2.36Z" style="fill: #64452e;"/>
        <path d="m232.3,3.2c1.79.75-3.89,10.3-6.22,9.92-2.33-.39-11.28-6.8-11.47-8.17s15.36-2.72,17.69-1.75Z" style="fill: #64452e; mix-blend-mode: screen; opacity: .5;"/>
        <g>
          <path d="m139.72,48.38c2.8,5.7,9.69,8.05,15.39,5.25,5.7-2.8,8.05-9.69,5.25-15.39-2.8-5.7-9.69-8.05-15.39-5.25-5.7,2.8-8.05,9.69-5.25,15.39Z" style="fill: #bd764f;"/>
          <path d="m141.24,47.63c2.38,4.85,8.25,6.86,13.11,4.47,4.85-2.38,6.86-8.25,4.47-13.11-2.38-4.85-8.25-6.86-13.11-4.47-4.85,2.38-6.86,8.25-4.47,13.11Z" style="fill: #64452e;"/>
          <path d="m141.74,48.63c2.11,4.3,7.76,5.85,12.61,3.47,4.85-2.38,7.08-7.8,4.96-12.1-2.11-4.3-7.76-5.85-12.61-3.47-4.85,2.38-7.08,7.8-4.96,12.1Z" style="fill: #fff;"/>
          <path d="m149.33,43.71c1.2,2.45,4.17,3.46,6.62,2.26s3.46-4.17,2.26-6.62c-1.2-2.45-4.17-3.46-6.62-2.26-2.45,1.2-3.46,4.17-2.26,6.62Z" style="fill: #64452e;"/>
          <path d="m147.81,40.92c.25.94,1.22,1.49,2.15,1.24.94-.25,1.49-1.22,1.24-2.15-.25-.94-1.22-1.49-2.15-1.24-.94.25-1.49,1.22-1.24,2.15Z" style="fill: #fff;"/>
        </g>
        <path d="m163.52,41.85c-16.4-.79-22.43,8.99-23.46,13.09-1.03,4.1,7.58,6.66,18.8,1.49,11.22-5.17,12.94-14.19,4.66-14.59Z" style="fill: #d3905f;"/>
        <path d="m156.09,24.55c-5.98,4.6-18.14,2.95-18.14,2.95,0,0,17.94,7.8,18.14-2.95Z" style="fill: #64452e;"/>
        <g>
          <path d="m182.18,62.2c-3.44-1.18-6.55-3.07-9.42-5.23-2.85-2.18-5.54-4.63-7.91-7.26l-1.13,1.05c2.67,2.57,5.53,4.83,8.59,6.85,3.06,1.98,6.35,3.67,9.86,4.6Z" style="fill: #bd764f;"/>
          <path d="m161.85,52.97l1.54-.08h0s.06-1.99,4.05-3.76l-.63-1.41c-4.97,2.21-4.98,4.94-4.96,5.25Z" style="fill: #bd764f;"/>
        </g>
        <path d="m140.38,330.56c9.06-10.75,24.2-12.2,56.17-19.47,38.63-8.78,90.72-47.7,88.67-69.06-1.11-11.64-11.35-41.71-23.66-70.12-3.03-6.96-6.18-13.83-9.33-20.3-7.61-15.57-15.34-28.85-21.73-35.72-9.15-9.83-16.94-17.59-25.15-24.5-12.4,5.02-5.5,15.71,6.95,49.22,6.24,16.79,9.32,34.45,9.7,50.81.28,11.37-.75,22.1-2.91,31.47-1.49,6.48-3.54,12.32-6.08,17.25-11.49,22.29-46.99,58.48-56.74,68.57-7.07,7.33-12.69,15.96-15.88,21.86Z" style="fill: #f0c09f;"/>
        <path d="m262.76,272.85c-19.14,6.26-40.37-14.27-40.37-14.27,0,0,23.32,35.5,40.37,14.27Z" style="fill: #bd7d67;"/>
        <path d="m16.27,407.36h61.75c-.08-4.56-1.26-11.52-6.61-18.1-15.76-3.02-29.82-4.9-33.78-2.97-10.24,4.97-21.36,21.07-21.36,21.07Z" style="fill: #64452e;"/>
        <g style="mix-blend-mode: multiply; opacity: .5;">
          <path d="m40.46,407.36h1.65c1.12-4.16,3.54-9.43,8.56-14.6l-1.11-1.08c-5.44,5.62-7.96,11.27-9.1,15.68Z" style="fill: #64452e;"/>
          <path d="m26.88,407.36h1.65c1.14-4.16,3.56-9.43,8.56-14.6l-1.09-1.08c-5.45,5.61-7.98,11.27-9.12,15.68Z" style="fill: #64452e;"/>
        </g>
        <path d="m229.64,125.41c38.36,7.73,82.28-17.63,115.07-17.63s21.34,6.5-4.64,11.45c-25.98,4.95-50.42,34.03-52.28,33.41-1.86-.62-3.71-6.5-3.71-6.5l-6.81,8.97s-6.19-8.97-8.97-9.28c-2.78-.31-41.14,8.35-41.14,7.42s2.47-27.84,2.47-27.84Z" style="fill: #d3905f;"/>
        <path d="m186.95,161.21c6.51,13.28,21.18,65.18,23.52,65.66,2.33.46,6.05-7.92,6.05-7.92,0,0,1.14,1.91,2.56,3.93,1.8,2.54,4.07,5.24,5.11,4.45,1.68-1.26,20.55-45.19,37.37-55.43-3.03-6.96-6.18-13.83-9.33-20.3l-9.16,3.56-5.82,16.3s-8.21,11.46-15.25,19.96c-4.57,5.54-8.66,9.84-9.67,8.92-2.56-2.34-15.12-37.72-25.37-39.12Z" style="fill: #d3905f; mix-blend-mode: multiply; opacity: .2;"/>
        <path d="m334.36,120.64c.28,4.79.75,7.85.75,7.85l10.83-4.33s18.56,45.79,35.27,19.5c17.33,10.52,31.91-1.94,35.47-19.31,1.77-8.66.82-18.54-3.93-27.4-14.22-26.6-48.56-16.08-60.31-.92-9.27-.31-15.46-5.27-15.46-5.27-3.02,10.75-3.05,22.41-2.62,29.88Z" style="fill: #ef5855;"/>
        <path d="m334.36,120.64c.28,4.79.75,7.85.75,7.85l10.83-4.33s18.56,45.79,35.27,19.5c17.33,10.52,31.91-1.94,35.47-19.31-20.87,28.74-41,13.75-39.8-2.96-5.88,8.35-3.4,20.72-4.33,23.2-.94,2.48-24.44-13.31-15.17-46.41-15.77,8.67-12.06,21.35-13.29,21.04-.79-.2-5.99.72-9.73,1.42Z" style="fill: #9b489b; mix-blend-mode: multiply; opacity: .3;"/>
        <path d="m185.8,159.24c11.86,18.48,22.89,49.67,24.27,51.87,1.39,2.2,5.79-5.24,5.79-5.24,0,0,4.14,6.9,6.07,7.99,1.52.86,8.22-22.12,14.23-36.98.02-.03.03-.08.05-.11.72-1.77,1.45-3.43,2.14-4.91.91-1.99,1.79-3.65,2.62-4.9,1.39-2.08,1.91-4.51,1.82-6.88-.25-7.56-6.7-14.45-11.34-6.75-.86,1.43-1.66,3.37-2.34,5.9-.65,2.4-1.34,4.59-2.05,6.61-.8,2.28-1.63,4.33-2.48,6.15v.02c-4.73,10.32-9.53,13.72-9.53,13.72,0,0-5.1-16.76-7.02-33.55-.43-3.88-.71-7.75-.71-11.43-16.28-15.45-21.52,18.48-21.52,18.48Z" style="fill: #d3905f;"/>
        <path d="m224.58,171.99v.02l11.58,4.88s.03-.08.05-.11c.72-1.77,1.45-3.43,2.14-4.91l-11.29-6.02c-.8,2.28-1.63,4.33-2.48,6.15Z" style="fill: #d3905f; mix-blend-mode: multiply; opacity: .5;"/>
        <path d="m208.02,152.19c.35,12.32,1.56,30.26,5.47,38.83,5.36-3.27,14.67-23.98,15.37-24.21.46-.15,3.73,2.97,6.75,4.19,1.69-4.14,3.91-1.85,5.36-4.02,1.39-2.08,1.91-4.51,1.82-6.88l-11.34-6.75c-.86,1.43-1.66,3.37-2.34,5.9-5.51,20.42-14.06,26.49-14.06,26.49,0,0-5.1-16.76-7.02-33.55Z" style="fill: #d3905f; mix-blend-mode: screen; opacity: .5;"/>
        <path d="m216.45,140.27s.02.02.02.03c4.1,8.18,8.78,15.08,8.78,15.08l-6.9,10.49,2.56.97,28.08,10.63s1.93-12.15,1.93-13.25c14.37,0,31.39-21.73,28.96-41.18-1.23-10.06-7.67-19.5-22.33-25.04-10.16-3.83-17.71-5.31-23.35-5.33-18.19-.03-16.09,15.26-16.09,15.26,0,0-5.25,0-7.45,11.32-1.05,5.33,2.16,13.69,5.82,21.02Z" style="fill: #ef5855;"/>
        <path d="m216.45,140.27c-2.05-8.67-4.51-22.55-.03-25.72,6.45-4.56,12.92,3.97,13.23,4.4-.25-.62-7.27-18.34,4.53-26.29-18.19-.03-16.09,15.26-16.09,15.26,0,0-5.25,0-7.45,11.32-1.05,5.33,2.16,13.69,5.82,21.02Z" style="fill: #9b489b; mix-blend-mode: multiply; opacity: .3;"/>
        <path d="m229.11,154.28l-8.21,12.55,28.08,10.63s1.93-12.15,1.93-13.25c14.37,0,31.39-21.73,28.96-41.18-5.19,39.29-52.81,24.92-60.13,10.55,1.39,12.41,9.38,20.7,9.38,20.7Z" style="fill: #9b489b; mix-blend-mode: multiply; opacity: .3;"/>
        <path d="m132.92,346.87c.59-3.14,1.4-5.96,2.46-8.27,1.46-3.17,3.08-5.81,4.99-8.04,9.06-10.75,24.2-12.2,56.17-19.47,8.66-1.97,17.99-5.45,27.25-9.92-29.56,5.07-49.87-17.3-51.46-25.63-1.69-8.93-38.83,32.85-39.41,71.33Z" style="fill: #d3905f; mix-blend-mode: multiply; opacity: .3;"/>
        <path d="m97.64,332.16c-.29,4.1,1.46,17.56,4.68,9.66.34,2.25,3.88,11.66,8.12,22.36-2.28-13.97-2.05-59.75-6.84-72.68-5.87-15.84,21.29-54.28,35.67-58.7-9.23-1.03-19.78-2.48-24.66,1.32-7.9,6.15-19.9,24.87-24,49.46-4.1,24.58-.88,62.04,7.02,48.58Z" style="fill: #946543; mix-blend-mode: screen; opacity: .2;"/>
      </g>
    </g>
  </g>
</svg>