<?xml version="1.0" encoding="UTF-8"?>
<svg id="uuid-3acdf73b-f2a1-48a9-8a6c-f2f3f63976ee" data-name="Layer 2" xmlns="http://www.w3.org/2000/svg" xmlns:xlink="http://www.w3.org/1999/xlink" viewBox="0 0 201.24 60.12">
  <defs>
    <linearGradient id="uuid-0b23ab42-5d68-4a4c-a552-9916aa531a42" x1="155.34" y1="154.07" x2="155.34" y2="-95.93" gradientUnits="userSpaceOnUse">
      <stop offset=".32" stop-color="#fff"/>
      <stop offset=".32" stop-color="#fdfdfd"/>
      <stop offset=".42" stop-color="#bbbaba"/>
      <stop offset=".51" stop-color="#858383"/>
      <stop offset=".6" stop-color="#5a5758"/>
      <stop offset=".68" stop-color="#3c3839"/>
      <stop offset=".75" stop-color="#292526"/>
      <stop offset=".79" stop-color="#231f20"/>
    </linearGradient>
    <mask id="uuid-4b38d8d9-434a-43a7-88b4-daa50295d774" data-name="mask" x="-94.66" y="-95.93" width="500" height="250" maskUnits="userSpaceOnUse">
      <rect x="-94.66" y="-95.93" width="500" height="250" style="fill: url(#uuid-0b23ab42-5d68-4a4c-a552-9916aa531a42); mix-blend-mode: lighten;"/>
    </mask>
  </defs>
  <g id="uuid-f319e170-a343-427f-b2cc-0208cad80f86" data-name="Pocket">
    <g style="mask: url(#uuid-4b38d8d9-434a-43a7-88b4-daa50295d774);">
      <g>
        <path d="m26.25,12.93c-2.38-1.42-5.01-2.13-7.89-2.13-2.52,0-4.78.52-6.78,1.56-2,1.04-3.58,2.32-4.74,3.84v-4.86H0v48.78h6.84v-20.52c1.24,1.52,2.84,2.79,4.8,3.81,1.96,1.02,4.2,1.53,6.72,1.53,2.88,0,5.51-.73,7.89-2.19,2.38-1.46,4.25-3.5,5.61-6.12,1.36-2.62,2.04-5.59,2.04-8.91s-.68-6.26-2.04-8.82c-1.36-2.56-3.23-4.55-5.61-5.97Zm-.72,20.79c-.94,1.72-2.18,3.03-3.72,3.93-1.54.9-3.19,1.35-4.95,1.35s-3.35-.44-4.89-1.32c-1.54-.88-2.78-2.17-3.72-3.87-.94-1.7-1.41-3.69-1.41-5.97s.47-4.26,1.41-5.94c.94-1.68,2.18-2.96,3.72-3.84,1.54-.88,3.17-1.32,4.89-1.32s3.41.43,4.95,1.29c1.54.86,2.78,2.12,3.72,3.78.94,1.66,1.41,3.63,1.41,5.91s-.47,4.28-1.41,6Z" style="fill: #fff;"/>
        <path d="m63.9,12.9c-2.56-1.4-5.42-2.1-8.58-2.1s-6.02.7-8.58,2.1c-2.56,1.4-4.58,3.4-6.06,6-1.48,2.6-2.22,5.58-2.22,8.94s.72,6.39,2.16,8.97,3.42,4.58,5.94,6c2.52,1.42,5.34,2.13,8.46,2.13s6.05-.71,8.67-2.13c2.62-1.42,4.69-3.43,6.21-6.03,1.52-2.6,2.28-5.58,2.28-8.94s-.74-6.34-2.22-8.94c-1.48-2.6-3.5-4.6-6.06-6Zm-.18,21.06c-.96,1.68-2.21,2.94-3.75,3.78-1.54.84-3.19,1.26-4.95,1.26-2.76,0-5.05-.97-6.87-2.91-1.82-1.94-2.73-4.69-2.73-8.25,0-2.4.44-4.43,1.32-6.09.88-1.66,2.07-2.91,3.57-3.75,1.5-.84,3.13-1.26,4.89-1.26s3.4.42,4.92,1.26c1.52.84,2.74,2.09,3.66,3.75.92,1.66,1.38,3.69,1.38,6.09s-.48,4.44-1.44,6.12Z" style="fill: #fff;"/>
        <path d="m92.88,16.56c2,0,3.66.46,4.98,1.38,1.32.92,2.28,2.2,2.88,3.84h7.38c-.92-3.52-2.69-6.23-5.31-8.13-2.62-1.9-5.93-2.85-9.93-2.85-3.16,0-5.96.7-8.4,2.1-2.44,1.4-4.35,3.39-5.73,5.97-1.38,2.58-2.07,5.57-2.07,8.97s.69,6.39,2.07,8.97,3.29,4.58,5.73,6c2.44,1.42,5.24,2.13,8.4,2.13,3.92,0,7.2-.99,9.84-2.97,2.64-1.98,4.44-4.65,5.4-8.01h-7.38c-1.28,3.48-3.9,5.22-7.86,5.22-2.8,0-5.03-1-6.69-3-1.66-2-2.49-4.78-2.49-8.34s.83-6.33,2.49-8.31c1.66-1.98,3.89-2.97,6.69-2.97Z" style="fill: #fff;"/>
        <polygon points="133.8 11.34 121.8 25.8 121.8 0 114.96 0 114.96 44.4 121.8 44.4 121.8 30.18 134.04 44.4 143.28 44.4 128.04 27.9 143.28 11.34 133.8 11.34" style="fill: #fff;"/>
        <path d="m170.76,12.84c-2.44-1.36-5.22-2.04-8.34-2.04s-6.11.7-8.61,2.1c-2.5,1.4-4.44,3.39-5.82,5.97-1.38,2.58-2.07,5.57-2.07,8.97s.71,6.39,2.13,8.97c1.42,2.58,3.38,4.58,5.88,6,2.5,1.42,5.33,2.13,8.49,2.13,3.88,0,7.13-.97,9.75-2.91,2.62-1.94,4.43-4.43,5.43-7.47h-7.38c-1.52,3.08-4.12,4.62-7.8,4.62-2.56,0-4.72-.8-6.48-2.4-1.76-1.6-2.74-3.72-2.94-6.36h25.26c.16-1,.24-2.12.24-3.36,0-3.2-.68-6.03-2.04-8.49-1.36-2.46-3.26-4.37-5.7-5.73Zm-17.7,12.06c.32-2.56,1.32-4.59,3-6.09,1.68-1.5,3.7-2.25,6.06-2.25,2.6,0,4.78.76,6.54,2.28,1.76,1.52,2.66,3.54,2.7,6.06h-18.3Z" style="fill: #fff;"/>
        <path d="m201.24,16.92v-5.58h-8.04V3.12h-6.9v8.22h-3.9v5.58h3.9v18.3c0,3.24.82,5.58,2.46,7.02,1.64,1.44,4,2.16,7.08,2.16h5.4v-5.7h-4.2c-1.4,0-2.39-.27-2.97-.81-.58-.54-.87-1.43-.87-2.67v-18.3h8.04Z" style="fill: #fff;"/>
      </g>
    </g>
  </g>
</svg>