<?xml version="1.0" encoding="UTF-8"?>
<svg id="uuid-40300bb9-f534-4641-b8f0-de56257f0aa7" data-name="Layer 2" xmlns="http://www.w3.org/2000/svg" xmlns:xlink="http://www.w3.org/1999/xlink" viewBox="0 0 331.67 60.42">
  <defs>
    <linearGradient id="uuid-8ede79a9-8d8f-48df-b692-932b61d1159b" x1="155.34" y1="154.37" x2="155.34" y2="-95.63" gradientUnits="userSpaceOnUse">
      <stop offset=".32" stop-color="#fff"/>
      <stop offset=".32" stop-color="#fdfdfd"/>
      <stop offset=".42" stop-color="#bbbaba"/>
      <stop offset=".51" stop-color="#858383"/>
      <stop offset=".6" stop-color="#5a5758"/>
      <stop offset=".68" stop-color="#3c3839"/>
      <stop offset=".75" stop-color="#292526"/>
      <stop offset=".79" stop-color="#231f20"/>
    </linearGradient>
    <mask id="uuid-964f8f2a-20b1-4e15-85d3-a594bf45a43f" data-name="mask" x="-94.66" y="-95.63" width="500" height="250" maskUnits="userSpaceOnUse">
      <rect x="-94.66" y="-95.63" width="500" height="250" style="fill: url(#uuid-8ede79a9-8d8f-48df-b692-932b61d1159b); mix-blend-mode: lighten;"/>
    </mask>
    <linearGradient id="uuid-c8b09617-e700-4252-83b7-66f0449bd6ff" x1="176.34" x2="176.34" xlink:href="#uuid-8ede79a9-8d8f-48df-b692-932b61d1159b"/>
    <mask id="uuid-1e67008d-eb47-441b-a8b0-32df06277b00" data-name="mask-1" x="-73.66" y="-95.63" width="500" height="250" maskUnits="userSpaceOnUse">
      <rect x="-73.66" y="-95.63" width="500" height="250" style="fill: url(#uuid-c8b09617-e700-4252-83b7-66f0449bd6ff); mix-blend-mode: difference;"/>
    </mask>
  </defs>
  <g id="uuid-c86537a6-d530-499e-9fcb-7369a5818e4c" data-name="PR">
    <g>
      <g style="mask: url(#uuid-964f8f2a-20b1-4e15-85d3-a594bf45a43f);">
        <g>
          <path d="m26.25,13.23c-2.38-1.42-5.01-2.13-7.89-2.13-2.52,0-4.78.52-6.78,1.56-2,1.04-3.58,2.32-4.74,3.84v-4.86H0v48.78h6.84v-20.52c1.24,1.52,2.84,2.79,4.8,3.81,1.96,1.02,4.2,1.53,6.72,1.53,2.88,0,5.51-.73,7.89-2.19,2.38-1.46,4.25-3.5,5.61-6.12,1.36-2.62,2.04-5.59,2.04-8.91s-.68-6.26-2.04-8.82c-1.36-2.56-3.23-4.55-5.61-5.97Zm-.72,20.79c-.94,1.72-2.18,3.03-3.72,3.93-1.54.9-3.19,1.35-4.95,1.35s-3.35-.44-4.89-1.32c-1.54-.88-2.78-2.17-3.72-3.87-.94-1.7-1.41-3.69-1.41-5.97s.47-4.26,1.41-5.94c.94-1.68,2.18-2.96,3.72-3.84,1.54-.88,3.17-1.32,4.89-1.32s3.41.43,4.95,1.29c1.54.86,2.78,2.12,3.72,3.78.94,1.66,1.41,3.63,1.41,5.91s-.47,4.28-1.41,6Z" style="fill: #fff;"/>
          <path d="m63.9,13.2c-2.56-1.4-5.42-2.1-8.58-2.1s-6.02.7-8.58,2.1c-2.56,1.4-4.58,3.4-6.06,6-1.48,2.6-2.22,5.58-2.22,8.94s.72,6.39,2.16,8.97,3.42,4.58,5.94,6c2.52,1.42,5.34,2.13,8.46,2.13s6.05-.71,8.67-2.13c2.62-1.42,4.69-3.43,6.21-6.03,1.52-2.6,2.28-5.58,2.28-8.94s-.74-6.34-2.22-8.94c-1.48-2.6-3.5-4.6-6.06-6Zm-.18,21.06c-.96,1.68-2.21,2.94-3.75,3.78-1.54.84-3.19,1.26-4.95,1.26-2.76,0-5.05-.97-6.87-2.91-1.82-1.94-2.73-4.69-2.73-8.25,0-2.4.44-4.43,1.32-6.09.88-1.66,2.07-2.91,3.57-3.75,1.5-.84,3.13-1.26,4.89-1.26s3.4.42,4.92,1.26c1.52.84,2.74,2.09,3.66,3.75.92,1.66,1.38,3.69,1.38,6.09s-.48,4.44-1.44,6.12Z" style="fill: #fff;"/>
          <path d="m92.88,16.86c2,0,3.66.46,4.98,1.38,1.32.92,2.28,2.2,2.88,3.84h7.38c-.92-3.52-2.69-6.23-5.31-8.13-2.62-1.9-5.93-2.85-9.93-2.85-3.16,0-5.96.7-8.4,2.1-2.44,1.4-4.35,3.39-5.73,5.97-1.38,2.58-2.07,5.57-2.07,8.97s.69,6.39,2.07,8.97,3.29,4.58,5.73,6c2.44,1.42,5.24,2.13,8.4,2.13,3.92,0,7.2-.99,9.84-2.97,2.64-1.98,4.44-4.65,5.4-8.01h-7.38c-1.28,3.48-3.9,5.22-7.86,5.22-2.8,0-5.03-1-6.69-3-1.66-2-2.49-4.78-2.49-8.34s.83-6.33,2.49-8.31c1.66-1.98,3.89-2.97,6.69-2.97Z" style="fill: #fff;"/>
          <polygon points="133.8 11.64 121.8 26.1 121.8 .3 114.96 .3 114.96 44.7 121.8 44.7 121.8 30.48 134.04 44.7 143.28 44.7 128.04 28.2 143.28 11.64 133.8 11.64" style="fill: #fff;"/>
          <path d="m170.76,13.14c-2.44-1.36-5.22-2.04-8.34-2.04s-6.11.7-8.61,2.1c-2.5,1.4-4.44,3.39-5.82,5.97-1.38,2.58-2.07,5.57-2.07,8.97s.71,6.39,2.13,8.97c1.42,2.58,3.38,4.58,5.88,6,2.5,1.42,5.33,2.13,8.49,2.13,3.88,0,7.13-.97,9.75-2.91,2.62-1.94,4.43-4.43,5.43-7.47h-7.38c-1.52,3.08-4.12,4.62-7.8,4.62-2.56,0-4.72-.8-6.48-2.4-1.76-1.6-2.74-3.72-2.94-6.36h25.26c.16-1,.24-2.12.24-3.36,0-3.2-.68-6.03-2.04-8.49-1.36-2.46-3.26-4.37-5.7-5.73Zm-17.7,12.06c.32-2.56,1.32-4.59,3-6.09,1.68-1.5,3.7-2.25,6.06-2.25,2.6,0,4.78.76,6.54,2.28,1.76,1.52,2.66,3.54,2.7,6.06h-18.3Z" style="fill: #fff;"/>
          <path d="m201.24,17.22v-5.58h-8.04V3.42h-6.9v8.22h-3.9v5.58h3.9v18.3c0,3.24.82,5.58,2.46,7.02,1.64,1.44,4,2.16,7.08,2.16h5.4v-5.7h-4.2c-1.4,0-2.39-.27-2.97-.81-.58-.54-.87-1.43-.87-2.67v-18.3h8.04Z" style="fill: #fff;"/>
        </g>
      </g>
      <g>
        <path d="m250.58,42.34c.35-.42.67-.89.92-1.41.77-1.6,1.02-3.35.69-4.91-.34-1.61-1.26-2.85-2.58-3.49-.62-.3-1.29-.45-1.97-.45-.42,0-.83.07-1.24.18-.93-.54-1.87-.98-2.44-1.23,0-.37-.01-.8-.03-1.27,3.36-1.97,4.38-4.87,4.63-7.03.19-1.65-.02-3.07-.2-3.87.3-.51.49-1.11.43-1.79-.18-1.96-1.26-3.19-3.05-3.51.03-.56,0-1.58-.55-2.3-.35-.45-.83-.72-1.45-.78-.63-.07-1.16.14-1.52.56-.56-1.24-1.32-2.41-2.26-3.46,1.59-.58,2.42-1.77,2.24-3.27-.22-1.8-2.02-3.81-4.27-3.81-.1,0-.2,0-.3.01-2.66.22-3.27,2.1-3.39,3.2-1.38-.49-2.79-.73-4.22-.73-.75,0-1.51.07-2.24.21-2.17.41-4.2,1.41-5.91,2.9-.42-.84-1.32-2-3.05-2-.41,0-.85.07-1.3.2-2.1.63-3.22,3-2.96,4.83.24,1.63,1.44,2.61,3.22,2.61.07,0,.15,0,.22,0-.87,2.32-1.09,4.78-.65,7.13.29,1.53.84,2.88,1.64,4.01-.66,1.74-1.64,4.88-1.76,8.19-.57.25-1.51.69-2.43,1.22-.41-.11-.82-.18-1.24-.18-.69,0-1.35.15-1.97.45-1.32.64-2.24,1.88-2.58,3.49-.33,1.56-.09,3.3.69,4.91.25.52.56.98.91,1.4-1.42.36-2.22.75-2.22,1.18,0,1.49,9.94,2.7,22.2,2.7s22.2-1.21,22.2-2.7c0-.42-.79-.82-2.2-1.17Zm-13.59-1.41c-.1,0-.21,0-.31-.01,1.25-1.25,2.92-3.01,4.32-4.74-1.37,2.42-2.8,3.88-4.01,4.75Z" style="fill: #fff; stroke: #999; stroke-miterlimit: 10;"/>
        <g>
          <ellipse cx="230.58" cy="43.55" rx="22.2" ry="2.7" style="fill: #010101; opacity: .4;"/>
          <g>
            <path d="m241.08,21.49c1.56-1.93,2.25-4.4,1.69-7.38-.48-2.54-1.75-4.86-3.53-6.68,4.87-1.19,1.97-6.78-1.6-6.49-2.81.23-3.07,2.48-3.07,3.36-2.09-.84-4.41-1.13-6.75-.69-2.37.45-4.46,1.59-6.12,3.17-.28-.78-1.33-2.9-4.1-2.08-3.46,1.03-4.12,7.38.97,6.62-.99,2.34-1.34,4.96-.86,7.5.3,1.61.89,2.94,1.7,4.02-1.66,4.3-5.43,17.12,7.31,19.75,0,0,1.88,1.04,7.69,0l9.13-10.14s.38-9.04-2.47-10.95Z" style="fill: #fff;"/>
            <path d="m234.65,4.38s-.32-3.28,2.83-3.28,4.84,3.04,4.14,4.68-2.37,1.71-2.37,1.71l-4.6-3.12Z" style="fill: #4e4e4e;"/>
            <path d="m221.49,6.69s-1.01-3.13-3.9-1.88c-2.89,1.25-3.24,4.71-1.94,5.94,1.3,1.23,2.85.63,2.85.63l2.99-4.69Z" style="fill: #4e4e4e;"/>
            <path d="m219.41,22.57s3.51,4.8,14.15,2.15c8.62-2.11,7.73-5.51,7.73-5.51l2.27,10.35s-12.99,7.9-25.01.29c0,0-.66-3.54.85-7.27Z" style="fill: #4e4e4e;"/>
            <path d="m229.84,43.43h0c-2.06,0-3-.37-3.24-.48-3.84-.8-6.55-2.6-8.04-5.34-2.72-4.98-.67-11.81.42-14.72-.8-1.13-1.36-2.48-1.64-4.01-.44-2.35-.21-4.8.65-7.13-.07,0-.15,0-.22,0-1.78,0-2.99-.97-3.22-2.61-.27-1.83.86-4.2,2.96-4.83.45-.14.89-.2,1.3-.2,1.73,0,2.62,1.16,3.05,2,1.71-1.49,3.74-2.49,5.91-2.9.74-.14,1.49-.21,2.24-.21,1.43,0,2.84.25,4.22.73.13-1.1.73-2.98,3.39-3.2.1,0,.2-.01.3-.01,2.25,0,4.05,2.01,4.27,3.81.18,1.5-.65,2.68-2.24,3.27,1.66,1.86,2.76,4.06,3.2,6.42.53,2.82.01,5.3-1.54,7.39,2.65,2.41,2.33,10.67,2.32,11.03,0,.09-.04.17-.1.24l-9.13,10.14c-.06.06-.13.11-.22.12-1.74.31-3.3.47-4.65.47Zm-11.26-32.5c.12,0,.23.05.3.15.09.11.1.26.05.38-1,2.36-1.29,4.88-.84,7.28.28,1.49.83,2.79,1.63,3.86.08.11.1.24.05.37-1.04,2.69-3.17,9.46-.54,14.27,1.39,2.54,3.94,4.21,7.57,4.97.04,0,.07.02.11.04,0,0,.81.42,2.93.42h0c1.27,0,2.74-.15,4.38-.43l8.95-9.94c.09-2.56-.15-9.04-2.31-10.48-.09-.06-.15-.15-.17-.26-.02-.11.01-.21.08-.3,1.58-1.96,2.13-4.34,1.62-7.07-.45-2.4-1.64-4.65-3.43-6.48-.1-.1-.13-.24-.09-.37.04-.13.14-.23.28-.27,1.62-.39,2.42-1.32,2.27-2.61-.18-1.48-1.72-3.14-3.51-3.14-.08,0-.16,0-.24,0-2.38.19-2.72,1.95-2.72,2.97,0,.13-.06.25-.17.32-.11.07-.24.09-.36.04-1.44-.58-2.93-.87-4.43-.87-.7,0-1.41.07-2.1.2-2.2.41-4.25,1.47-5.93,3.07-.09.09-.23.12-.35.1-.13-.03-.23-.12-.27-.24-.22-.6-.91-2.01-2.55-2.01-.33,0-.7.06-1.08.17-1.72.51-2.64,2.47-2.42,3.98.18,1.24,1.08,1.95,2.47,1.95.24,0,.49-.02.75-.06.02,0,.04,0,.06,0Z" style="fill: #010101;"/>
            <path d="m226.99,42.53s-4.13-.11-5.62-2.81c-1.49-2.7-3.78-8.59-3.78-8.59l3.53.62,6.26,9.49-.38,1.28Z" style="fill: #fff;"/>
            <g>
              <path d="m217.76,31.26s-5.18,2.15-5.24,3.72,4.93,8.57,4.93,8.57c0,0,5.31-.15,9.66-1.27,0,0-5.78-.13-9.36-11.01Z" style="fill: #4e4e4e;"/>
              <path d="m218.7,43.95c-.74,0-1.2-.02-1.26-.02-.12,0-.23-.06-.29-.16-.52-.73-5.07-7.15-5-8.8.07-1.72,4.57-3.68,5.48-4.06.2-.08.42.01.5.21.08.2-.01.42-.21.5-2.06.86-4.97,2.47-5,3.38-.04,1.03,2.85,5.49,4.75,8.17.96.03,5.45.1,9.24-.88.21-.05.41.07.47.28.05.21-.07.41-.28.47-3.11.8-6.57.92-8.39.92Z" style="fill: #010101;"/>
            </g>
            <g>
              <path d="m218.81,36.39c1.51,3.14,1.32,6.16-1.2,7.37-2.53,1.22-6.06.17-7.57-2.96s-.81-6.67,1.72-7.88c2.53-1.22,5.55.34,7.06,3.47Z" style="fill: #4e4e4e;"/>
              <path d="m215.38,44.64c-2.42,0-4.6-1.41-5.69-3.67-.77-1.6-1.02-3.35-.69-4.91.34-1.61,1.26-2.85,2.58-3.49.62-.3,1.29-.45,1.97-.45,2.23,0,4.38,1.57,5.6,4.11.8,1.66,1.13,3.26.95,4.62-.2,1.5-1.01,2.62-2.33,3.26-.72.35-1.55.53-2.39.53Zm-1.82-11.76c-.57,0-1.12.13-1.64.38-1.1.53-1.87,1.58-2.16,2.96-.29,1.4-.07,2.96.63,4.42.96,2,2.88,3.24,5,3.24.73,0,1.44-.16,2.06-.46,1.1-.53,1.74-1.43,1.9-2.67.16-1.21-.14-2.66-.88-4.19-1.07-2.23-3-3.67-4.91-3.67Z" style="fill: #010101;"/>
            </g>
            <path d="m233.81,42.09l1.07.62s9.08-8.46,8.68-11.34h-1.76l-8,10.72Z" style="fill: #fff;"/>
            <g>
              <path d="m243.3,30.88s5.18,2.15,5.24,3.72-4.93,8.57-4.93,8.57c0,0-5.18.24-9.54-.89,0,0,5.63-.38,9.23-11.4Z" style="fill: #4e4e4e;"/>
              <path d="m242.49,43.95c-1.82,0-5.28-.12-8.39-.92-.21-.05-.33-.26-.28-.47.05-.21.26-.33.47-.28,3.79.98,8.28.91,9.24.88,1.91-2.69,4.79-7.15,4.75-8.17-.04-.91-2.95-2.53-5-3.38-.2-.08-.29-.31-.21-.5.08-.2.31-.29.5-.21.9.38,5.41,2.33,5.48,4.06.07,1.65-4.48,8.08-5,8.8-.07.1-.18.15-.29.16-.06,0-.53.02-1.26.02Z" style="fill: #010101;"/>
            </g>
            <g>
              <path d="m242.38,36.39c-1.51,3.14-1.32,6.16,1.2,7.37,2.53,1.22,6.06.17,7.57-2.96,1.51-3.14.81-6.67-1.72-7.88-2.53-1.22-5.55.34-7.06,3.47Z" style="fill: #4e4e4e;"/>
              <path d="m245.81,44.64h0c-.84,0-1.67-.18-2.39-.53-1.32-.64-2.13-1.77-2.33-3.26-.18-1.36.15-2.96.95-4.62,1.22-2.53,3.36-4.11,5.6-4.11.69,0,1.35.15,1.97.45,1.32.64,2.24,1.88,2.58,3.49.33,1.56.09,3.3-.69,4.91-1.09,2.27-3.27,3.67-5.69,3.67Zm1.82-11.76c-1.91,0-3.83,1.44-4.91,3.67-.74,1.53-1.04,2.98-.88,4.19.17,1.25.81,2.14,1.9,2.67.62.3,1.33.46,2.06.46,2.12,0,4.04-1.24,5-3.24.7-1.45.92-3.02.63-4.42-.29-1.37-1.06-2.42-2.16-2.96-.52-.25-1.07-.38-1.64-.38Z" style="fill: #010101;"/>
            </g>
            <g>
              <path d="m240.48,22.33s.63-.93.49-2.69l6.85-1.31s2.54,7.89-4.79,11.52" style="fill: #4e4e4e;"/>
              <path d="m243.03,30.23c-.14,0-.28-.08-.34-.21-.09-.19-.02-.42.17-.51,2.91-1.44,4.57-3.73,4.93-6.8.21-1.76-.09-3.29-.25-3.94l-6.17,1.18c.05,1.65-.55,2.55-.57,2.59-.12.18-.36.22-.53.1-.18-.12-.22-.35-.11-.53,0-.01.55-.87.43-2.44-.02-.19.12-.37.31-.41l6.85-1.31c.19-.04.38.07.44.26.03.08.66,2.08.37,4.56-.27,2.31-1.41,5.47-5.35,7.42-.05.03-.11.04-.17.04Z" style="fill: #010101;"/>
            </g>
            <g>
              <path d="m246.44,20.28s2.13-1.27,1.96-3.15c-.18-1.88-1.21-3.03-3.09-3.22,0,0,.46-2.82-1.62-3.03-2.08-.22-1.84,2.84-1.25,3.7,0,0-1.29-2.82-3.09-1.53-1.83,1.31.59,3.3.59,3.3,0,0-2.2,3.61,1.62,4.68" style="fill: #4e4e4e;"/>
              <path d="m241.56,21.42s-.07,0-.1-.01c-1.21-.34-1.99-.95-2.34-1.83-.48-1.22.06-2.56.34-3.14-.41-.4-1.21-1.3-1.17-2.26.02-.56.3-1.04.84-1.43.53-.38,1.07-.49,1.62-.35.33.09.63.27.89.49,0-.56.1-1.13.36-1.57.36-.6.97-.89,1.72-.81.62.06,1.1.33,1.45.78.55.72.58,1.75.55,2.3,1.79.32,2.87,1.55,3.05,3.51.2,2.1-2.05,3.46-2.14,3.51-.18.11-.42.05-.53-.13-.11-.18-.05-.42.13-.53.03-.02,1.92-1.17,1.77-2.78-.16-1.74-1.09-2.7-2.75-2.87-.11-.01-.2-.06-.27-.15-.06-.08-.09-.19-.07-.29,0-.01.21-1.36-.37-2.11-.22-.28-.52-.44-.92-.48-.46-.05-.78.09-.98.44-.4.67-.27,1.82-.03,2.41.1.17.15.29.16.31.08.18.01.39-.16.49-.17.1-.39.05-.51-.12-.07-.1-.13-.21-.18-.34-.27-.46-.79-1.16-1.39-1.32-.32-.09-.64,0-.98.23-.34.24-.51.52-.52.83-.03.74.81,1.59,1.13,1.86.15.12.18.33.08.5,0,.01-.91,1.53-.43,2.74.25.64.87,1.1,1.83,1.37.2.06.32.27.27.47-.05.17-.2.28-.37.28Z" style="fill: #010101;"/>
            </g>
            <g>
              <path d="m241.36,16.65s2.48-1.09,2.71.97c.23,2.06-2.61,1.66-2.76,1.31" style="fill: #4e4e4e;"/>
              <path d="m242.39,19.59c-.62,0-1.28-.16-1.43-.51-.08-.19,0-.42.2-.5.17-.07.36-.02.46.12.22.12,1.12.25,1.67-.07.2-.12.46-.35.4-.96-.04-.39-.18-.65-.42-.79-.52-.3-1.47,0-1.76.12-.19.09-.42,0-.51-.2-.09-.19,0-.42.2-.51.15-.07,1.5-.63,2.45-.09.46.26.73.72.8,1.37.11.98-.37,1.68-1.3,1.93-.22.06-.48.09-.76.09Z" style="fill: #010101;"/>
            </g>
            <path d="m232.16,14.7c.18.96-.61,2.24-1.84,2.47-1.23.23-2.44-.68-2.62-1.64-.18-.96.76-1.46,1.99-1.69,1.23-.23,2.29-.11,2.47.85Z" style="fill: #010101;"/>
            <path d="m229.4,19.01c-.59,0-1.06-.31-1.12-.35-.18-.12-.22-.36-.1-.53.12-.18.36-.22.53-.1,0,0,.45.29.87.2.22-.05.39-.19.55-.43.05-.09.14-.16.25-.19.12-.03.24,0,.32.08.23.18.45.24.68.21.42-.07.73-.49.74-.5.12-.17.36-.22.53-.1.17.12.22.36.1.53-.05.07-.51.7-1.25.82-.32.05-.63,0-.94-.16-.23.25-.5.42-.82.49-.12.03-.23.04-.34.04Z" style="fill: #010101;"/>
            <path d="m230.46,18.36c-.18,0-.34-.13-.38-.31l-.2-1.07c-.04-.21.1-.41.31-.45.21-.04.41.1.45.31l.2,1.07c.04.21-.1.41-.31.45-.02,0-.05,0-.07,0Z" style="fill: #010101;"/>
            <path d="m226.95,17.97c-.82,1.85-2.37,2.14-3.83,1.49-1.46-.65-2.28-2-1.46-3.85s2.68-2.82,4.14-2.17c1.46.65,1.98,2.68,1.15,4.52Z" style="fill: #4e4e4e;"/>
            <path d="m233.15,16.29c.99,1.78,2.57,1.93,3.98,1.15,1.41-.78,2.11-2.21,1.12-3.99-.99-1.78-2.94-2.59-4.34-1.8-1.41.78-1.74,2.86-.75,4.64Z" style="fill: #4e4e4e;"/>
            <path d="m226.04,15.52c.12.66-.31,1.3-.98,1.43-.66.12-1.3-.31-1.43-.98-.12-.66.31-1.3.98-1.43s1.3.31,1.43.98Z" style="fill: #010101;"/>
            <path d="m225.45,15.16c.04.19-.09.38-.28.42-.19.04-.38-.09-.42-.28-.04-.19.09-.38.28-.42.19-.04.38.09.42.28Z" style="fill: #fff;"/>
            <path d="m233.83,14.7c-.1,0-.2-.04-.28-.12-.11-.11-.14-.28-.07-.42.71-1.58,2.29-1.96,2.36-1.98.21-.05.41.08.46.29.05.21-.08.41-.29.46-.01,0-.65.16-1.22.69.68-.14,1.44-.14,1.77.39.11.18.06.42-.12.53-.18.11-.42.06-.53-.12-.13-.21-1.09-.09-1.94.25-.05.02-.1.03-.14.03Z" style="fill: #010101;"/>
            <path d="m239.25,7.81c-.09,0-.18-.03-.26-.1-.03-.03-2.81-2.51-4.53-3.06-.2-.06-.31-.28-.25-.48.06-.2.28-.31.48-.25,1.88.59,4.69,3.11,4.81,3.22.16.14.17.38.03.54-.08.08-.18.13-.29.13Z" style="fill: #010101;"/>
            <path d="m218.58,11.69c-.05,0-.11-.01-.16-.03-.19-.09-.28-.31-.19-.51.06-.12,1.37-3.01,3.23-4.67.16-.14.4-.13.54.03.14.16.13.4-.03.54-1.74,1.55-3.03,4.39-3.04,4.41-.06.14-.2.23-.35.23Z" style="fill: #010101;"/>
            <g>
              <path d="m218.59,25.73s-1.34,16.27,7.22,14.84c5.89-.98-.21-6.86.34-12.25" style="fill: #4e4e4e;"/>
              <path d="m224.78,41.04c-1.32,0-2.46-.44-3.42-1.32-3.96-3.64-3.19-13.61-3.16-14.03.02-.21.2-.37.41-.35.21.02.37.2.35.41,0,.1-.77,10.01,2.91,13.4,1.04.95,2.3,1.29,3.86,1.03,1.06-.18,1.73-.52,2.04-1.05.57-.97-.03-2.61-.72-4.5-.71-1.96-1.52-4.17-1.29-6.35.02-.21.21-.36.42-.34.21.02.36.21.34.42-.21,2.01.57,4.13,1.25,6.01.76,2.08,1.41,3.87.66,5.15-.43.74-1.27,1.2-2.57,1.42-.38.06-.74.09-1.09.09Z" style="fill: #010101;"/>
            </g>
          </g>
        </g>
      </g>
      <g style="mask: url(#uuid-1e67008d-eb47-441b-a8b0-32df06277b00);">
        <g>
          <path d="m285.21,4.2c-2.38-1.2-5.27-1.8-8.67-1.8h-17.58v42.3h11.76v-14.28h5.82c3.44,0,6.35-.63,8.73-1.89,2.38-1.26,4.16-2.94,5.34-5.04s1.77-4.43,1.77-6.99c0-2.76-.6-5.2-1.8-7.32-1.2-2.12-2.99-3.78-5.37-4.98Zm-9.81,16.86h-4.68v-9.18h4.68c3.32,0,4.98,1.54,4.98,4.62s-1.66,4.56-4.98,4.56Z" style="fill: #fff;"/>
          <path d="m322.13,28.2c3.04-.92,5.35-2.47,6.93-4.65,1.58-2.18,2.37-4.71,2.37-7.59,0-2.56-.6-4.87-1.8-6.93-1.2-2.06-2.98-3.68-5.34-4.86-2.36-1.18-5.24-1.77-8.64-1.77h-18.54v42.3h11.76v-15.6h1.26l8.4,15.6h13.14l-9.54-16.5Zm-3.84-8.28c-.8.76-2,1.14-3.6,1.14h-5.82v-8.82h5.82c1.56,0,2.75.39,3.57,1.17.82.78,1.23,1.85,1.23,3.21,0,1.44-.4,2.54-1.2,3.3Z" style="fill: #fff;"/>
        </g>
      </g>
    </g>
  </g>
</svg>