<?xml version="1.0" encoding="UTF-8"?>
<svg xmlns="http://www.w3.org/2000/svg" viewBox="0 0 357.18 468">
  <g style="isolation: isolate;">
    <g id="uuid-a4a0419f-6ae6-4ed6-bcc2-97843a3865a2" data-name="Layer 1">
      <g>
        <g>
          <path d="m278.36,74.71c.36,1.65.63,3.43.77,5.33-6.79,1.17-23.82,5.67-25.67,8.21-.3.42-.81,1.62-1.41,3.45-2.98,8.93-8.54,32.54-7.28,49.91.41,5.57-5.35,1.3-5.35,1.3,0,0,4.96,6.83.63,6.46-4.34-.37-28.4,21.89-33.52,43.24-13.55-7.95-18.1-25.52-18.1-25.52,22.04-15.51,49.47-64.18,56.62-78.38,0-.02,0-.04,0-.04,1.4-2.77,2.17-4.39,2.17-4.39l-11.72-21.44s2.63-1.29,5.76-1.2c1.08,4.46,3.98,15.66,7.27,15.99,3.3.34,5.46-27.37,5.46-27.37,0,0,2.14.39,5.16,1.66-4.29,13.7-5.26,23.02-3.05,23.04,3.28.04,9.16-10.39,12.61-17.08,1.78,1.58,3.51,3.49,5.04,5.75-4.71,3.78-15.23,12.56-14.35,14.41.98,2.01,12.74.26,18.98-3.31Z" style="fill: #d3905f;"/>
          <path d="m278.36,74.71c.36,1.65.63,3.43.77,5.33-6.79,1.17-23.82,5.67-25.67,8.21-.3.42-.81,1.62-1.41,3.45-1.87-.64-4.55-1.67-7-3.04,1.4-2.77,2.17-4.39,2.17-4.39l-11.72-21.44s2.63-1.29,5.76-1.2c1.08,4.46,3.98,15.66,7.27,15.99,3.3.34,5.46-27.37,5.46-27.37,0,0,2.14.39,5.16,1.65-4.29,13.7-5.26,23.02-3.05,23.04,3.28.04,9.16-10.39,12.61-17.08,1.78,1.57,3.51,3.49,5.04,5.75-4.71,3.78-15.23,12.56-14.35,14.41.98,2.01,12.74.26,18.98-3.31Z" style="fill: #64452e;"/>
          <path d="m245.03,88.71c-.78,1.94-32.5,75.18-56.62,78.38,22.04-15.51,49.47-64.18,56.62-78.38Z" style="fill: #d3905f; mix-blend-mode: screen; opacity: .5;"/>
        </g>
        <path d="m85.02,0c3.65,18.66,10.99,57.98,21.97,80.34,0,0,1.88-3.33,3.02-6.6.38-1.14.68-2.27.78-3.26-2.07-10.66,6.47-35.03,7.5-47.67.11-1.29.14-2.46.06-3.48-.75-10.99-12.11-18.19-33.33-19.33Z" style="fill: #d3905f;"/>
        <path d="m100.01,9.62s.26,13.42,1.82,34.05c1.55,20.64,6.96,31.47,6.96,31.47,0,0,.47-.56,1.22-1.41.38-1.14.68-2.27.78-3.26-2.07-10.66,6.47-35.03,7.5-47.67-5.88-12.4-18.28-13.19-18.28-13.19Z" style="fill: #f0c09f;"/>
        <path d="m166.11,73.89c-8.34,21.22,5.3,38.65,5.3,38.65,0,0-4.55,11.37-20.08,7.2-15.54-4.17-17.05-40.17-14.4-48.5,2.65-8.34,29.18,2.65,29.18,2.65Z" style="fill: #954464;"/>
        <path d="m157.01,72.38c3.03,39.03-7.2,40.55-17.05,9.85-9.85-30.69,17.05-9.85,17.05-9.85Z" style="fill: #ed6a69;"/>
        <path d="m16.43,389.16c4.92,13.27,29.93,21.22,93.22,19.71,6.42-.15,12.79-.51,19.05-1.1,55.47-5.07,103.18-26.56,115.1-63.32.4-1.23.78-2.48,1.16-3.71,11.92-40,8.88-84.32,3-99.75-6.06-15.91-24.25-40.93-46.98-65.56-7.58-8.21-14.83-16.81-21.12-24.6-12.56-15.61-21.33-28.07-21.33-28.07,0,0,10.61-.39,12.88-10.24-21.22,6.81-34.1-9.47-28.04-39.79,4.92,5.3,46.6,14.77,63.67-5.31,11.98-14.11,8.43-36.06,1.44-48.81-2.94-5.39-6.51-9.12-9.79-9.92-3.59-.87-14.11,2.13-26.89,7.85-26.34,11.81-62.3,35.22-67.07,60.36-5.69,29.93,35.24,74.64,44.33,105.72,1.43,4.86,2.33,9.97,2.79,15.16.66,7.07.51,14.3-.2,21.31-2.1,20.76-9.13,39.58-15.11,46.51-9.47,10.99-42.43,41.68-56.46,62.9-14.02,21.22-24.24,25.02-33.72,19.33-9.47-5.69-23.86-56.84-23.11-73.14.77-16.3,26.53-56.46,20.85-57.21-5.69-.77-40.16,31.07-43.58,50.01-.18,1.01-.32,2.22-.39,3.62-1.5,24.67,11.66,105.46,16.31,118.02Z" style="fill: #d3905f;"/>
        <path d="m106.99,82.99C78.95,55.33,27.42,46.61,27.42,46.61c0,0,4.17,24.25,14.78,34.48,10.61,10.23,63.66,7.58,63.66,7.58l1.14-5.68Z" style="fill: #d3905f;"/>
        <path d="m171.8,16.57c5.55,2.88,18.38,9.2,24.24,9.2,3.9,0,8.7-3.62,12.44-7.13-2.94-5.39-6.51-9.12-9.79-9.92-3.59-.87-14.11,2.13-26.89,7.85Z" style="fill: #64452e;"/>
        <path d="m196.77,11.01c.38.95-4.37,9.51-6.84,9.51s-11.41-3.61-11.41-3.61c0,0,6.08-4.56,18.25-5.89Z" style="fill: #64452e; mix-blend-mode: screen; opacity: .5;"/>
        <path d="m101.82,81.85c-23.73-20.89-66.29-30.18-66.29-30.18,0,0,6.02,17.71,13.41,24.24,4.99,4.41,53.13,8.77,53.13,8.77l-.26-2.84Z" style="fill: #f0c09f;"/>
        <path d="m151.66,219.12c2.9-4.59,6.21-8.09,9.46-7.58,0,0-3.71-9.91-9.26-13.73.66,7.07.51,14.3-.2,21.31Z" style="fill: #d3905f; mix-blend-mode: multiply; opacity: .3;"/>
        <path d="m234.71,352.99c15.58-7.79,33.39-43.04,38.96-45.66,14.11,20.43,19.68,97.24,19.68,97.24,0,0,14.09-26.71,30.8-52.32,2.37-3.63,4.73-7.29,7.04-10.9,13.97-21.85,25.99-41.81,25.99-41.81,0,0-25.98,2.97-36,13.36-1.11,1.14-2.22,2.78-3.3,4.76-8.79,15.95-16.73,55.01-16.73,55.01,0,0-14.84-66.44-12.98-86.48,1.85-20.05,2.96-24.49,2.96-24.49,0,0-3.33,6.68-7.79,8.16,2.22-5.19,4.46-18.57,4.46-18.57,0,0-29.79,1.77-48.63,13.37,0,0-20.04,96.11-4.44,88.32Z" style="fill: #d3905f;"/>
        <path d="m317.87,317.66c2.33,9.74,8.55,18.3,13.31,23.7,6.93-10.85,13.42-21.24,18.14-28.95.27-.45.54-.89.81-1.32,4.34-7.05,7.04-11.54,7.04-11.54,0,0-25.98,2.97-36,13.36-1.11,1.14-2.22,2.78-3.3,4.76Z" style="fill: #64452e;"/>
        <g style="mix-blend-mode: multiply; opacity: .5;">
          <path d="m331.53,313.76l.83,1.26c.39-.24,7.7-4.83,16.97-2.61.27-.45.54-.89.81-1.32-10.22-2.6-18.51,2.61-18.61,2.67Z" style="fill: #64452e;"/>
        </g>
        <path d="m16.43,389.16c4.92,13.27,29.93,21.22,93.22,19.71,63.27-1.52,120.88-23.5,134.14-64.42,13.25-40.93,10.22-87.54,4.16-103.45-6.06-15.91-24.25-40.93-46.98-65.56-7.58-8.21-14.83-16.81-21.12-24.6-18.28-9.19,2.67,14.15,16.79,69.38,15.94,62.3-7.92,98.33-35.73,127.5-49.75,52.17-114.95,42.02-129.45,37.69-14.48-4.35-28.97-92.26-30.9-111.57-.11-1.02-.26-1.92-.45-2.7-1.5,24.67,11.66,105.46,16.31,118.02Z" style="fill: #f0c09f;"/>
        <path d="m128.69,407.77c55.47-5.07,103.18-26.56,115.1-63.32.4-1.23.78-2.48,1.16-3.71-9.98,10.52-22.57,22.39-28.97,22.92-11.6.98-24.64-52.15-47.34-62.78-22.71-10.63-67.13,59.88-67.13,59.88,28.76,9.02,33.86,35.19,27.18,47.01Z" style="fill: #d3905f; mix-blend-mode: multiply; opacity: .2;"/>
        <g>
          <path d="m100.96,362.58c8.07-1.14,30.09,4.77,44.18,29.1-.05,35.9-28.57,59.58-39.15,67.13-2.15,1.54-2.78,4.46-1.42,6.73h0c.91,1.53,2.56,2.46,4.34,2.46h115.68s-19.87-38.15-33.03-32.57c-3.12,1.34-8.66,3.57-15.31,6.2-21.36,8.48-54.09,21.1-54.09,21.1,0,0,41.11-48.34,66.2-60.51-.24,4.92,1.23,8.54,11.75-6.92,1.65,5.93,4.94,2.31,3.95-4.28-.99-6.57-4.02-55.77-31.58-91.19-9.55-12.26-37.49-22.29-63.15,1.73-25.65,24.01-16.45,62.16-8.37,61.02Z" style="fill: #d3905f;"/>
          <path d="m168.08,468h56.52s-19.87-38.15-33.03-32.57c-3.12,1.34-8.66,3.57-15.31,6.2-7.67,9.37-8.31,21.21-8.18,26.37Z" style="fill: #64452e;"/>
          <g>
            <path d="m193.27,468h1.5c.69-4.76.74-13.3-5.91-19.08l-.99,1.14c6.24,5.42,6.06,13.55,5.4,17.93Z" style="fill: #64452e; mix-blend-mode: multiply; opacity: .5;"/>
            <path d="m202.12,448.77c6.77,7.22,7.65,15.53,7.67,19.23h1.52c.01-3.92-.89-12.58-8.09-20.26l-1.1,1.04Z" style="fill: #64452e; mix-blend-mode: multiply; opacity: .5;"/>
          </g>
          <path d="m193.26,383.66c-1.83,9.22-22.18-15.08-23.63-20.01-.15,8.93-5.89.79-13.85-6.6-7.95-7.38-45.27-15.55-48.12-29.61-2.85-14.06,40.32-37.74,60.33-18.21,20.01,19.53,26.89,66.23,25.26,74.43Z" style="fill: #946543; mix-blend-mode: screen; opacity: .2;"/>
        </g>
        <path d="m252.63,296.77c-6.4,17.16-51.23,3.03-51.23,3.03,0,0,48.93,25.4,51.23-3.03Z" style="fill: #bd7d67;"/>
        <g>
          <path d="m122.16,75.34c4.42,4.33,11.51,4.25,15.84-.17,4.33-4.42,4.25-11.51-.17-15.84-4.42-4.33-11.51-4.25-15.84.17-4.33,4.42-4.25,11.51.17,15.84Z" style="fill: #bd764f;"/>
          <path d="m123.32,74.16c3.77,3.69,9.81,3.62,13.49-.15s3.62-9.81-.15-13.49c-3.77-3.69-9.81-3.62-13.49.15-3.69,3.77-3.62,9.81.15,13.49Z" style="fill: #64452e;"/>
          <path d="m124.1,74.92c3.34,3.27,9.03,2.86,12.72-.91s3.97-9.47.63-12.73c-3.34-3.26-9.03-2.86-12.72.91-3.69,3.77-3.97,9.47-.63,12.73Z" style="fill: #fff;"/>
          <path d="m126.34,71.09c1.9,1.86,4.95,1.83,6.81-.08,1.86-1.9,1.83-4.95-.08-6.81-1.9-1.86-4.95-1.83-6.81.08-1.86,1.9-1.83,4.95.08,6.81Z" style="fill: #64452e;"/>
          <path d="m124.04,69.02c.54.78,1.6.97,2.38.44.78-.54.97-1.6.44-2.38-.54-.78-1.6-.97-2.38-.44-.78.54-.97,1.6-.44,2.38Z" style="fill: #fff;"/>
        </g>
        <path d="m141.91,61.61c-15.32,4.6-17.69,15.55-17.3,19.65.39,4.1,9.13,3.65,17.75-4.74,8.63-8.39,7.28-17.24-.46-14.91Z" style="fill: #d3905f;"/>
        <path d="m124.13,51.6c-7.23,2.04-11.24,14.36-11.24,14.36,0,0-2.31-16.42,11.24-14.36Z" style="fill: #64452e;"/>
        <g>
          <path d="m37.65,149.74c.57,1.59,1.29,3.24,2.18,4.92,6.38-2.61,23.2-7.83,26.11-6.66.48.19,1.55.95,3.03,2.18,7.26,5.99,24.51,23.05,32.66,38.44,2.61,4.94,5.22-1.74,5.22-1.74,0,0-.59,8.42,2.9,5.81,3.48-2.61,35.69,3.48,51.36,18.87,7.26-13.93-3.77-32.79-3.77-32.79-26.91-1.46-70.42-26.59-84.02-34.83-.02-.02-.03-.03-.03-.03-2.66-1.61-4.17-2.57-4.17-2.57l-1.44-24.39s-2.91.3-5.52,2.04c1.46,4.35,4.94,15.38,2.33,17.41-2.61,2.04-19.15-20.31-19.15-20.31,0,0-1.61,1.47-3.5,4.14,10.91,9.34,16.67,16.72,14.81,17.91-2.76,1.77-13.28-3.95-19.75-7.79-.68,2.28-1.13,4.82-1.22,7.55,6,.71,19.57,2.57,19.81,4.59.24,2.22-10.66,6.98-17.84,7.26Z" style="fill: #d3905f;"/>
          <path d="m37.65,149.73c.57,1.59,1.29,3.24,2.18,4.92,6.38-2.61,23.2-7.83,26.11-6.66.48.2,1.55.95,3.03,2.18,1.25-1.53,2.97-3.83,4.32-6.29-2.66-1.61-4.17-2.57-4.17-2.57l-1.44-24.39s-2.91.3-5.52,2.04c1.46,4.35,4.94,15.38,2.33,17.41-2.61,2.04-19.15-20.31-19.15-20.31,0,0-1.61,1.47-3.5,4.14,10.91,9.34,16.67,16.72,14.81,17.9-2.76,1.77-13.28-3.95-19.75-7.79-.68,2.28-1.13,4.82-1.22,7.55,6,.71,19.57,2.57,19.81,4.59.24,2.22-10.66,6.98-17.85,7.26Z" style="fill: #64452e;"/>
          <path d="m73.33,143.91c1.7,1.23,61.88,44.92,84.02,34.83-26.91-1.46-70.42-26.59-84.02-34.83Z" style="fill: #d3905f; mix-blend-mode: screen; opacity: .5;"/>
        </g>
      </g>
    </g>
  </g>
</svg>