<?xml version="1.0" encoding="UTF-8"?>
<svg xmlns="http://www.w3.org/2000/svg" viewBox="0 0 370.58 448.38">
  <g style="isolation: isolate;">
    <g id="uuid-918ecaf2-b7ab-4ef1-9a91-00d2114b230a" data-name="Layer 1">
      <g>
        <g>
          <path d="m334.31,275.63c-1.61-17.12,9.97-50.03,9.77-52.4-.2-2.37-11.03,7.98-15.39,18.98-4.36,11,3.05,33.55,3.05,33.55l2.56-.13Z" style="fill: #c48253;"/>
          <path d="m302.51,291.51c-5.5-1.37,2.96-17.32,2.96-17.32,0,0,10.77,1.48,12.04,6.34,1.27,4.86-8.24,12.68-15,10.99Z" style="fill: #954464;"/>
          <path d="m307.1,277.11c-6.71,16.18,1.9,16.48,6.56,9.62,4.67-6.85-.44-8.89-.44-8.89l-6.12-.73Z" style="fill: #ed6564;"/>
          <path d="m269.98,329.53s2.24.94,5.37,1.75h.01c.38.1.79.21,1.2.29,6.16,1.44,14.77,1.94,17.27-5.26,4.02-11.57,39.94-37.76,41.21-43.47,3.02-13.62-14.99-32.41-28.17-38.42-2.63-1.2-5.08-1.89-7.12-1.93-3.8-.07-6.82,1.01-8.96,2.89-4.78,4.15-5.32,12.21-.96,20.35,6.34,11.83,24.5,15.63,24.5,15.63,0,0-5.91,11.84-11.83,10.14,2.24,2.66,7.83,1.16,8.21,1.07-.29.18-2.89,1.89-6.49,4.34-6.67,4.52-16.78,11.51-22.01,15.93-2.04,1.72-3.82,3.61-5.35,5.49-4.63,5.69-6.9,11.2-6.9,11.2Z" style="fill: #d3905f;"/>
          <path d="m324.06,276.93c-5.7-8.03-14.15-7.61-14.15-7.61,0,0,10.56-10.35,13.31-9.3,2.75,1.06,3.8,7.82.85,16.9Z" style="fill: #64452e;"/>
          <path d="m309.9,269.32s.68-.04,1.81.11c2.79.34,8.28,1.75,12.35,7.5,2.96-9.09-.21-14.58-2.96-15.63-.12-.04-.25-.07-.4-.07-3.07-.21-10.8,8.09-10.8,8.09Z" style="fill: #fff;"/>
          <path d="m329.68,266.43c1.85-1.11,3.38,4.86,1.69,5.28-1.69.42-2.75-4.65-1.69-5.28Z" style="fill: #64452e;"/>
          <path d="m290.8,245.38c2.01,1.78,4.8,3.96,6.43,4.08,2.07.16,6.97-3.35,9.65-5.04-2.63-1.2-5.08-1.89-7.12-1.93-3.8-.07-6.82,1.01-8.96,2.89Z" style="fill: #64452e;"/>
          <path d="m309.9,269.32c.6.1,1.2.14,1.81.11,5.01-.11,9.22-4,8.99-8.2-3.07-.21-10.8,8.09-10.8,8.09Z" style="fill: #64452e;"/>
          <path d="m278.51,274.96l-7.3-3.75.21,2.96s7.49,2.96,8.08,3.35c.18.12.67,1.37,1.34,3.19,1.64,4.46,4.3,12.33,5.56,15.14,1.78,3.94,6.31,10.25,6.31,10.25l7.69-3.35c-7.39-2.96-13.78-17.2-16.52-24.16-.92-2.33-1.42-3.83-1.42-3.83l2.37-10.25-2.37-.78-.78,10.05-4.34-13.8-2.18.99,4.54,12.41-7.1-8.87-1.38,1.97,7.3,8.49Z" style="fill: #d3905f;"/>
          <path d="m278.51,274.96l-7.3-3.75.21,2.96s7.49,2.96,8.08,3.35c.18.12.67,1.37,1.34,3.19,1.04-.74,2.16-1.53,3.04-2.12-.92-2.33-1.42-3.83-1.42-3.83l2.37-10.25-2.37-.78-.78,10.05-4.34-13.8-2.18.99,4.54,12.41-7.1-8.87-1.38,1.97,7.3,8.49Z" style="fill: #64452e;"/>
          <path d="m343.43,307.24l7.04,4.21-2.62,1.39s-6.47-4.79-7.11-5.08c-.2-.09-1.52.15-3.42.55-4.66.96-12.74,2.87-15.79,3.28-4.29.57-19.17-.75-19.17-.75l5.91-7.49c6.42,4.71,21.89,2.61,29.24,1.26,2.46-.45,4.01-.82,4.01-.82l7.45-7.43,1.91,1.6-8.12,5.97,14.01-3.61.31,2.37-12.94,2.7,11.28,1.34-.94,2.22-11.06-1.71Z" style="fill: #d3905f;"/>
          <path d="m343.43,307.24l7.04,4.21-2.62,1.39s-6.47-4.79-7.11-5.08c-.2-.09-1.52.15-3.42.55.08-1.27.16-2.65.2-3.7,2.46-.45,4.01-.82,4.01-.82l7.45-7.43,1.91,1.6-8.12,5.97,14.01-3.61.31,2.37-12.94,2.7,11.28,1.34-.94,2.22-11.06-1.71Z" style="fill: #64452e;"/>
          <path d="m269.98,329.53s2.24.94,5.37,1.75h.01c2.82.27,5.43.01,7.09-1.33,4.9-4,26.02-31.22,21.79-33.04-6.67,4.52-16.78,11.51-22.01,15.93-8.24,6.97-12.25,16.68-12.25,16.68Z" style="fill: #f0c09f;"/>
          <path d="m269.98,329.53s2.24.94,5.37,1.75h.01c.38.1.79.21,1.2.29,8.49-1.86,17.27-5.26,17.27-5.26,0,0-11.47-2.07-16.96-7.98-4.63,5.69-6.9,11.2-6.9,11.2Z" style="fill: #d3905f; mix-blend-mode: multiply; opacity: .3;"/>
          <path d="m332.5,279.88c.22,1.05,2.58.63,2.58.63,7.51-4.01,28.1-15.9,30.85-21.82,2.75-5.92,5.72-15.96,4.28-18.98-.21-.46-1.16.03-2.65,1.23-8.17,6.61-32.35,34.57-34.36,37.22-.61.8-.79,1.35-.7,1.71Z" style="fill: #d3905f;"/>
          <path d="m332.5,279.88c6.02-3.94,25.36-16.66,27.92-19.81,2.53-3.13,5.98-12.14,7.14-19.12-8.17,6.61-32.35,34.57-34.36,37.22-.61.8-.79,1.35-.7,1.71Z" style="fill: #f0c09f;"/>
        </g>
        <path d="m211.39,198.56c1.04-.74,2.46-2.19,4.45-3.74,3.04-2.38,7.36-4.97,13.56-5.39,13.21-.89,30.81,2.44,39.83,7.39,3.24,1.77,5.38,3.75,5.82,5.83,1.12,5.37-5.9,16.64-5.9,16.64,0,0,4.13,6.13,9.73,1.29-.71-5.76,1.29-15.11,1.29-15.11,0,0,11.67,10.83,25.9,11.22,1.19-2.53,1.83-5.05,2.09-7.45-4.6.67-13.58,1.07-21.73-3.8,10.18.94,17.89-.79,21.67-1.97-.22-1.78-.62-3.44-1.08-4.9-8.6,2.79-17.29,1.27-17.29,1.27,0,0,9.05-4.16,15.92-4.9-1.03-2.23-1.93-3.54-1.93-3.54,0,0-12.06,5.45-23.5,6.86-.38-.19-3.76-1.71-8.66-4.01-14.03-6.61-40.47-19.68-43.59-26.43-.78-1.7-2.57-2.41-2.46-.86.45,6.67-2.34.22-3.23.16-7.99-.51-20,16.22-38.97,14.38-15.7,13.28,20.79,22.17,28.1,17.05Z" style="fill: #d3905f;"/>
        <path d="m212.92,188.54l2.92,6.28c3.04-2.38,7.36-4.97,13.56-5.39,13.21-.89,30.81,2.44,39.83,7.39-11.4-6.53-26.55-10.89-37.93-12.06-11.37-1.18-18.38,3.78-18.38,3.78Z" style="fill: #d3905f; mix-blend-mode: multiply; opacity: .2;"/>
        <path d="m269.15,219.3s4.13,6.13,9.73,1.29c-.71-5.76,1.29-15.11,1.29-15.11,0,0,11.67,10.83,25.9,11.22,1.19-2.53,1.83-5.05,2.09-7.45-4.6.67-13.58,1.07-21.73-3.8,10.18.94,17.89-.79,21.67-1.97-.22-1.78-.62-3.44-1.08-4.9-8.6,2.79-17.29,1.27-17.29,1.27,0,0,9.05-4.16,15.92-4.9-1.03-2.23-1.93-3.54-1.93-3.54,0,0-12.06,5.45-23.5,6.86-.38-.19-3.76-1.71-8.66-4.01-.89.88-1.66,1.74-2.31,2.57,3.24,1.77,5.38,3.75,5.82,5.83,1.12,5.37-5.9,16.64-5.9,16.64Z" style="fill: #64452e;"/>
        <g>
          <path d="m164.7,352.25c3.04-.42,8.23.23,14.19,2.72,8.5,3.53,18.55,10.77,26.1,23.81-.03,22.65-12.48,39.96-23.36,50.76-8.42,8.36-15.89,12.82-15.89,12.82l3.6,6.01h108.11s-18.12-34.79-30.12-29.7c-2.85,1.22-7.9,3.26-13.96,5.65-19.17,7.61-48.4,18.89-49.3,19.23,1.14-1.36,37.82-44.25,60.34-55.17-.22,4.49,1.12,7.79,10.72-6.31,1.51,5.41,4.5,2.11,3.6-3.9-.9-6-3.67-50.86-28.8-83.16-8.7-11.18-34.19-20.32-57.59,1.57-23.39,21.9-15,56.69-7.64,55.65Z" style="fill: #d3905f;"/>
          <path d="m204.99,378.79c-.03,22.65-12.48,39.96-23.36,50.76,5.27-1.42,9.48-2.98,9.48-2.98,10.13-8.68,29.3-43.4,29.3-48.46s-3.98-23.51-2.53-27.48c1.45-3.98-31.11-13.39-32.56-12.66-.51.26-3.18,7.58-6.43,17.01,8.5,3.53,18.55,10.77,26.1,23.81Z" style="fill: #d3905f; mix-blend-mode: multiply; opacity: .2;"/>
          <path d="m225.9,448.38h51.54s-18.12-34.79-30.12-29.7c-2.85,1.22-7.9,3.26-13.96,5.65-6.99,8.54-7.58,19.34-7.46,24.05Z" style="fill: #64452e;"/>
          <g>
            <path d="m248.87,448.38h1.37c.63-4.34.67-12.13-5.39-17.4l-.9,1.04c5.69,4.94,5.53,12.36,4.93,16.36Z" style="fill: #64452e; mix-blend-mode: multiply; opacity: .5;"/>
            <path d="m256.94,430.85c6.17,6.58,6.98,14.17,6.99,17.53h1.38c.01-3.57-.81-11.47-7.38-18.48l-1,.94Z" style="fill: #64452e; mix-blend-mode: multiply; opacity: .5;"/>
          </g>
        </g>
        <g>
          <path d="m190.64,125.88c2.14-.7,3.18-2.97,3.56-5.92.41-3.18.04-7.15-.56-10.74-.71-4.15-1.75-7.83-2.31-9.28-1.48-3.83-13.68-9.5-15.06-7.39-1.39,2.1-6.23,35.62,14.37,33.32Z" style="fill: #954464;"/>
          <path d="m186.65,102.16c4.36,9.87,1.98,19.82-.95,21.06-11.05,4.67-12.38-19.37-9.45-30.66,5.36,2,10.39,9.6,10.39,9.6Z" style="fill: #ed6a69;"/>
          <path d="m176.27,93.39c.35,6.26,8.95,22.5,17.93,26.57.41-3.18.04-7.15-.56-10.74-4.08-5.11-10.28-11.79-17.36-15.83Z" style="fill: #bd764f; mix-blend-mode: multiply; opacity: .4;"/>
          <g>
            <path d="m148.47,64.47l4.99-.16,3.69-.12s1.39-.82,3.66-2.26c1.38-.86,3.07-1.95,4.99-3.2,3.13-2.06,6.82-4.56,10.54-7.28.44-.33.86-.64,1.3-.96,5.89-4.39,11.68-9.26,15.29-13.63,2.14-2.6,3.51-5.03,3.64-7.08.74-11.42-5.96-30.27-9.08-29.77-2.21.37-20.78,32.41-31.48,51.18-3.55,6.22-6.24,10.98-7.19,12.64-.22.42-.35.64-.35.64Z" style="fill: #d3905f;"/>
            <path d="m153.46,64.31l3.69-.12s26.02-15.46,35.78-27.33c1.7-8.67-1.44-19.41-3.05-18.17-1.68,1.29-29.26,36.46-36.41,45.62Z" style="fill: #f0c09f;"/>
            <path d="m148.82,63.83l8.41-2.03c2.37-.83,5.29-1.86,8.57-3.07,3.13-2.06,6.82-4.56,10.54-7.28-9.45.35-17.28-.06-20.33-.26-3.55,6.22-6.24,10.98-7.19,12.64Z" style="fill: #d3905f; mix-blend-mode: multiply; opacity: .4;"/>
            <path d="m147.97,141.12c9.46,34.17,48.76,27.09,39.57,7.36-3.7-7.94-7.39-15.58-10.31-22.37-.18-.42-.36-.83-.51-1.25-1.34-3.49-.71-8.68.47-11.4.05-.15.11-.27.16-.41-.37-1.22-3.2-11.32-1.2-20.65.62,4.28,6.32,11.73,6.32,11.73,0,0,.75.93,2.14,2.44,5.41,5.93,20.41,20.52,36.12,20.05,18.79-.56,29.48-18.67,33.24-31.82,1.3-4.5,1.78-8.44,1.49-10.88-.47-4.04-9.31-9.32-21.75-14.14-27.44-10.65-72.51-19.07-84.75-6.97-14.17,13.97-11.46,40.54-1.01,78.31Z" style="fill: #d3905f;"/>
            <path d="m92.81,57.93c8.31,9.47,31.77,11.46,45.3,11.77h.03c5.93.14,9.95-.04,9.95-.04l4.3-3.12.63-1.67.81-2.15c-.96,0-63.18-39.97-68.45-45.48-5.26-5.5-4.54,27.04,7.43,40.69Z" style="fill: #d3905f;"/>
            <path d="m97.83,57.93c6.64,6.46,27.47,10.09,40.28,11.77h.03c5.93.14,9.95-.04,9.95-.04l4.3-3.12.63-1.67c-29.88-8.32-61.69-31.14-63.81-32.78-2.15-1.68-1.19,16.27,8.62,25.84Z" style="fill: #f0c09f;"/>
            <path d="m173.98,123.05c1,1.25,2.14,2.24,3.26,3.07-.18-.42-.36-.83-.51-1.25-1.34-3.49-.71-8.68.47-11.4-1.77-7.32,3.46-28.51-4.56-14.15-2,3.58-5.48,15.15,1.35,23.74Z" style="fill: #d3905f; mix-blend-mode: multiply; opacity: .4;"/>
            <path d="m233.72,69.78c.02,5.93.95,20.06,4.67,22.42,2.54,1.6,10.05,2.3,15.6,2.6,1.3-4.51,1.78-8.45,1.49-10.89-.47-4.03-9.3-9.32-21.75-14.14Z" style="fill: #64452e;"/>
            <g>
              <path d="m159.3,79.35c.87,5.57,6.09,9.39,11.66,8.52,5.57-.87,9.39-6.09,8.52-11.66-.87-5.57-6.09-9.39-11.66-8.52-5.57.87-9.39,6.09-8.52,11.66Z" style="fill: #bd764f;"/>
              <path d="m160.8,79.12c.74,4.75,5.19,8,9.94,7.26,4.75-.74,8-5.19,7.26-9.94-.74-4.75-5.19-8-9.94-7.26-4.75.74-8,5.19-7.26,9.94Z" style="fill: #64452e;"/>
              <path d="m160.95,80.1c.65,4.21,5.04,7.02,9.78,6.28,4.75-.74,8.07-4.75,7.41-8.96-.65-4.21-5.04-7.02-9.78-6.28-4.75.74-8.07,4.75-7.41,8.96Z" style="fill: #fff;"/>
              <path d="m168.2,81.34c.37,2.4,2.62,4.04,5.02,3.67,2.4-.37,4.04-2.62,3.67-5.02-.37-2.4-2.62-4.04-5.02-3.67s-4.04,2.62-3.67,5.02Z" style="fill: #64452e;"/>
              <path d="m167.65,78.57c-.03.86.64,1.59,1.5,1.62.86.03,1.59-.64,1.62-1.5.03-.86-.64-1.59-1.5-1.62-.86-.03-1.59.64-1.62,1.5Z" style="fill: #fff;"/>
            </g>
            <path d="m250.96,83.07c1.01,2.13-11.72,1.01-12.87.53-1.15-.48-2.98-9.75-2.63-11.2s13.88,7.25,15.5,10.67Z" style="fill: #64452e; mix-blend-mode: screen; opacity: .5;"/>
            <path d="m173.71,63.09c-6.4-2.46-16.05,4.35-16.05,4.35,0,0,7.28-13.25,16.05-4.35Z" style="fill: #64452e;"/>
          </g>
          <path d="m176.26,92.56c-3.05,20.03,3.73,34.03,14.38,33.33-10.33,6.74-16.2-1.92-18.1-11.55-2.68-13.58,3.72-21.79,3.72-21.79Z" style="fill: #d3905f;"/>
          <path d="m172.93,93.54c.09-.07,2.39-1.77,7.19-.37l.38-1.31c-5.54-1.62-8.32.52-8.43.61l.85,1.07Z" style="fill: #bd764f;"/>
        </g>
        <path d="m1.09,360.94c2.68,12.44,29.58,58.48,57.14,58.81,27.55.34,27.55-28.91,43.02-43.35,15.47-14.45,54.12-5.05,99.49-4.04,45.37,1.01,82.01-18.49,93.1-46.06h-54.45s22.51-23.86,10.42-68.56c-9.18-33.93-42.11-82.78-57.46-104.35-4.89-6.86-7.98-10.96-7.98-10.96-6.35-10.35-41.16-16-36.39-1.33,5.57,17.22,9.83,41.32,11.03,62.89.64,11.65.41,22.56-1,31.22-.82,4.98-2.01,9.22-3.65,12.44-9.74,19.16-58.14,41.35-68.57,58.48-10.42,17.14-27.55,71.92-34.27,77.3-6.73,5.38-29.59-25.21-32.94-31.59-3.37-6.39-10.09-43.36-13.78-45.71-1.97-1.26-3.67,10.95-4.39,24.47-.64,11.77-.56,24.53.7,30.32Z" style="fill: #d3905f;"/>
        <path d="m158.01,235.23c3.78-7.01,9.2-23.23,17.61-20.39,0,0-10.21-8.76-16.62-10.83.64,11.65.41,22.56-1,31.22Z" style="fill: #d3905f; mix-blend-mode: multiply; opacity: .3;"/>
        <path d="m293.84,326.31c-14.57-3.35-55-7.14-57.84-6.82-2.84.32,2.21,12.95,2.21,12.95,0,0,46.84.06,55.63-6.13Z" style="fill: #bd7d67;"/>
        <path d="m1.09,360.94c2.68,12.44,29.58,58.48,57.14,58.81,27.55.34,27.55-28.91,43.02-43.35,12.88-12.04,41.85-7.53,77.38-5.11,7.13.49,14.52.9,22.1,1.07,40.21.9,73.57-14.32,88.35-36.98,1.9-2.9,3.49-5.94,4.75-9.07h-54.45s22.51-23.86,10.42-68.56c-9.18-33.93-42.11-82.78-57.46-104.35-16.57-8.92-13.52,8.24.92,38.95,15.66,33.3,20.49,70.01,11.1,96.48-4.84,13.67-11.83,22.64-21.28,29.36-3.78,2.7-7.95,5.02-12.54,7.14-6.17,2.87-13.1,5.37-20.83,7.9-27.88,9.1-47.81,18.78-55.49,30.17-7.69,11.39-13.95,41.84-32.74,47.81-18.78,5.98-52.08-35.28-55.77-44.96-3.71-9.68-3.98-24.2-4.85-32.16-.11-.97-.26-2.16-.48-3.46-.64,11.77-.56,24.53.7,30.32Z" style="fill: #f0c09f;"/>
        <path d="m169.3,303.07c.26,8.05.68,15.45,1.25,22.27,1.66,19.94,4.53,34.82,8.09,45.96,7.13.49,14.52.9,22.1,1.07,40.21.9,73.57-14.32,88.35-36.98-33.37,29.95-80.08,29.29-86.97,26.29-5.83-2.55-6.84-24.55-19.04-43.48-3.53-5.47-7.99-10.7-13.78-15.12Z" style="fill: #d3905f; mix-blend-mode: multiply; opacity: .3;"/>
        <g>
          <path d="m103.34,352.25c7.36-1.04,27.44,4.35,40.29,26.54-.04,32.74-26.06,54.33-35.71,61.21-1.96,1.4-2.53,4.07-1.29,6.14h0c.83,1.39,2.34,2.24,3.96,2.24h105.5s-18.12-34.79-30.12-29.7c-2.85,1.22-7.9,3.26-13.96,5.65-19.48,7.73-49.33,19.24-49.33,19.24,0,0,37.49-44.08,60.37-55.18-.22,4.49,1.12,7.79,10.72-6.31,1.51,5.41,4.5,2.11,3.6-3.9-.9-6-3.67-50.86-28.8-83.16-8.7-11.18-34.19-20.32-57.59,1.57-23.39,21.9-15,56.69-7.64,55.65Z" style="fill: #d3905f;"/>
          <path d="m164.54,448.38h51.54s-18.12-34.79-30.12-29.7c-2.85,1.22-7.9,3.26-13.96,5.65-6.99,8.54-7.58,19.34-7.46,24.05Z" style="fill: #64452e;"/>
          <g>
            <path d="m187.51,448.38h1.37c.63-4.34.67-12.13-5.39-17.4l-.9,1.04c5.69,4.94,5.53,12.36,4.93,16.36Z" style="fill: #64452e; mix-blend-mode: multiply; opacity: .5;"/>
            <path d="m195.59,430.85c6.17,6.58,6.98,14.17,6.99,17.53h1.38c.01-3.57-.81-11.47-7.38-18.48l-1,.94Z" style="fill: #64452e; mix-blend-mode: multiply; opacity: .5;"/>
          </g>
          <path d="m187.51,371.47c-1.67,8.41-20.23-13.75-21.54-18.25-.13,8.14-5.38.72-12.63-6.01-7.25-6.73-41.29-14.18-43.88-27.01-2.6-12.83,36.77-34.41,55.02-16.61,18.25,17.81,24.52,60.4,23.04,67.88Z" style="fill: #946543; mix-blend-mode: screen; opacity: .2;"/>
        </g>
        <path d="m83.61,256.99c3.96-.07,11.81-.83,21.19-4.93-6.23,7.19-14.88,9.62-19.45,10.43,1,2.19,2.4,4.38,4.33,6.42,13.37-4.83,21.06-18.78,21.06-18.78,0,0,4.83,8.25,5.97,13.95,6.83,2.85,8.83-4.27,8.83-4.27,0,0-10.2-8.51-10.81-13.95-.27-2.4.15-4.75,1.01-7.08,3.65-9.85,15.21-19.08,15.21-27.36,20.78-5.98,36.15.85,44.69,3.41,8.54,2.57,12.8-23.34-6.27-31.01-23.9,10.53-51.23,8.81-52.93,8.25-1.71-.57,1.42,4.83,1.42,4.83h-6.27c-.85,0,3.13,17.93,2,27.89-.58,4.93-1.55,9.22-2.55,12.44-1,3.3-2.01,5.47-2.59,6.06-11.32,2.23-24.47.85-24.47.85,0,0-.45,1.53-.73,3.97,6.76-1.45,16.66-.33,16.66-.33,0,0-7.77,4.16-16.82,4.2.01,1.53.16,3.23.52,5Z" style="fill: #d3905f;"/>
        <path d="m83.61,256.99c3.96-.07,11.81-.83,21.19-4.93-6.23,7.19-14.88,9.62-19.45,10.43,1,2.19,2.4,4.38,4.33,6.42,13.37-4.83,21.06-18.78,21.06-18.78,0,0,4.83,8.25,5.97,13.95,6.83,2.85,8.83-4.27,8.83-4.27,0,0-10.2-8.51-10.81-13.95-.27-2.4.15-4.75,1.01-7.08-1.52-.83-3.13-1.31-4.69-1.55-1,3.3-2.01,5.47-2.59,6.06-11.32,2.23-24.47.85-24.47.85,0,0-.45,1.53-.73,3.97,6.76-1.45,16.66-.33,16.66-.33,0,0-7.77,4.16-16.82,4.2.01,1.53.16,3.23.52,5Z" style="fill: #64452e;"/>
        <path d="m244.12,319.7c-8.17,6.54-22.23,6.54-22.23,6.54l17.5.07s7.67-1.05,4.73-6.61Z" style="fill: #bd7d67;"/>
      </g>
    </g>
  </g>
</svg>