<?xml version="1.0" encoding="UTF-8"?>
<svg xmlns="http://www.w3.org/2000/svg" viewBox="0 0 337.31 449.91">
  <g style="isolation: isolate;">
    <g id="uuid-16666e55-1362-4e10-8ff1-bb9b978c882c" data-name="Layer 1">
      <g>
        <g>
          <path d="m204.59,348.38c3.15-.44,8.52.24,14.7,2.82,8.8,3.66,19.2,11.15,27.03,24.66-.03,23.46-12.93,41.38-24.19,52.57-8.72,8.66-16.45,13.28-16.45,13.28l3.73,6.22h111.95s-18.76-36.03-31.19-30.76c-2.95,1.26-8.18,3.37-14.46,5.85-19.86,7.88-50.12,19.56-51.05,19.91,1.18-1.4,39.16-45.82,62.49-57.13-.23,4.65,1.16,8.06,11.1-6.53,1.56,5.6,4.66,2.18,3.73-4.04-.94-6.21-3.8-52.67-29.82-86.11-9.01-11.58-35.4-21.05-59.64,1.63-24.22,22.68-15.53,58.7-7.91,57.63Z" style="fill: #d3905f;"/>
          <path d="m246.31,375.86c-.03,23.46-12.93,41.38-24.19,52.57,5.46-1.47,9.82-3.09,9.82-3.09,10.49-8.99,30.34-44.94,30.34-50.19s-4.12-24.35-2.62-28.46c1.5-4.12-32.21-13.86-33.72-13.11-.52.27-3.29,7.85-6.66,17.62,8.8,3.66,19.2,11.15,27.03,24.66Z" style="fill: #d3905f; mix-blend-mode: multiply; opacity: .2;"/>
          <path d="m267.97,447.93h53.38s-18.76-36.03-31.19-30.76c-2.95,1.26-8.18,3.37-14.46,5.85-7.24,8.84-7.85,20.03-7.72,24.9Z" style="fill: #64452e;"/>
          <g>
            <path d="m291.75,447.93h1.42c.65-4.49.69-12.56-5.58-18.01l-.94,1.08c5.9,5.12,5.73,12.8,5.1,16.94Z" style="fill: #64452e; mix-blend-mode: multiply; opacity: .5;"/>
            <path d="m300.11,429.77c6.39,6.82,7.23,14.67,7.24,18.16h1.43c.01-3.7-.84-11.88-7.64-19.13l-1.03.98Z" style="fill: #64452e; mix-blend-mode: multiply; opacity: .5;"/>
          </g>
        </g>
        <g>
          <path d="m278.99,280.27c2.61-.26,4.96-3.91,4.96-3.91,0,0,0,4.17,1.83,5.22,3.47-5.84,16.89-16.02,24.66-21.63,3.17-2.28,5.4-3.8,5.63-3.95l-12.53,19.57s13.85,10.97,27.69,2.35c2.08-15.41-7.33-34.21-13.59-28.98-1.54,1.29-4.24,2.85-7.44,4.49-.07.03-.13.07-.2.1-9.75,4.97-23.97,10.54-23.97,10.54,0,0-12.26-22.28-8.08-46.06,0,0-13.07-14.53-13.86,11.32-.78,25.87,12.27,51.19,14.9,50.94Z" style="fill: #d3905f;"/>
          <path d="m303.53,275.56s2.66,2.11,6.82,3.76c.52.2,1.09.41,1.67.6,3.2,1.05,7.09,1.7,11.24,1.02h.01c.55-.09,1.11-.2,1.67-.34,2.06-.51,4.17-1.37,6.28-2.68,2.08-15.41-7.33-34.21-13.59-28.98-1.54,1.29-4.24,2.85-7.44,4.49-.94,3.56-.37,5.53.24,6.52,3.17-2.28,5.4-3.8,5.63-3.95l-12.53,19.57Z" style="fill: #64452e;"/>
          <path d="m310.91,278.92c.5.19,1.04.39,1.59.57,3.22-2.25,6.93-6.53,9.03-16.15l-1.32-.28c-2.19,10.03-6.17,13.93-9.3,15.87Z" style="fill: #64452e; mix-blend-mode: multiply; opacity: .5;"/>
          <path d="m323.28,280.94c.55-.09,1.11-.2,1.67-.34,1.66-4.11,3.08-10.01,2.96-15.22l-1.42.03c.13,6-1.62,11.92-3.22,15.53Z" style="fill: #64452e; mix-blend-mode: multiply; opacity: .5;"/>
          <path d="m283.56,267.37s20.52-7.54,26.43-13.85c-9.75,4.97-23.97,10.54-23.97,10.54,0,0-12.26-22.28-8.08-46.06-7.3,21.02,5.61,49.36,5.61,49.36Z" style="fill: #d3905f; mix-blend-mode: screen; opacity: .3;"/>
        </g>
        <g>
          <path d="m225.65,72.81l5.16-.37,3.81-.27s1.4-.91,3.7-2.48c1.39-.95,3.1-2.14,5.03-3.51,3.16-2.25,6.87-4.99,10.62-7.95.44-.35.86-.69,1.3-1.05,5.92-4.78,11.72-10.05,15.28-14.71,2.11-2.78,3.43-5.34,3.49-7.47.31-11.85-7.37-31.08-10.59-30.44-2.27.47-20.21,34.37-30.53,54.21-3.43,6.58-6.02,11.61-6.93,13.37-.21.44-.34.68-.34.68Z" style="fill: #d3905f;"/>
          <path d="m230.81,72.44l3.81-.27s26.3-17.04,35.93-29.71c1.42-9.04-2.27-20.03-3.88-18.68-1.69,1.4-28.83,38.89-35.86,48.66Z" style="fill: #f0c09f;"/>
          <path d="m225.99,72.13l8.62-2.44c2.42-.95,5.4-2.14,8.74-3.51,3.16-2.25,6.87-4.99,10.62-7.95-9.77.74-17.89.62-21.05.54-3.43,6.58-6.02,11.61-6.93,13.37Z" style="fill: #d3905f; mix-blend-mode: multiply; opacity: .4;"/>
          <path d="m224.48,74.81C210.35,42.43,194.27,1.35,187.1.04c-7.17-1.3-7.61,28.04-5.87,43.25,1.74,15.21,38.69,42.82,38.69,42.82l4.56-11.3Z" style="fill: #d3905f;"/>
          <path d="m222.53,76.77S191.44,9.39,189.05,8.74c-2.39-.65-1.3,20.87,4.56,38.47,5.87,17.61,27.17,32.82,27.17,32.82l1.74-3.26Z" style="fill: #f0c09f;"/>
          <path d="m218.7,148.82c6.7,36.08,41.4,25.91,34.92,4.62-5.64-18.52,5.2-35.81,8.11-40,.44-.62.69-.95.69-.95,0,0,.82.95,2.31,2.45,5.84,5.9,21.93,20.39,38.17,19.29,19.43-1.32,29.76-20.48,33.14-34.24,1.16-4.72,1.5-8.82,1.11-11.32-.65-4.15-9.99-9.27-23.07-13.76-28.81-9.92-75.78-16.84-87.97-3.83-14.09,15.02-14.12,41.64-7.4,77.74Z" style="fill: #d3905f;"/>
          <path d="m314.07,74.91c.26,6.14,1.79,20.72,5.73,23.02,2.69,1.56,10.49,1.98,16.24,2.07,1.16-4.72,1.5-8.82,1.11-11.32-.65-4.15-9.99-9.27-23.07-13.76Z" style="fill: #64452e;"/>
          <g>
            <path d="m237.45,87.78c1.12,5.73,6.68,9.47,12.41,8.35,5.73-1.12,9.47-6.68,8.35-12.41-1.12-5.73-6.68-9.47-12.41-8.35-5.73,1.12-9.47,6.68-8.35,12.41Z" style="fill: #bd764f;"/>
            <path d="m238.99,87.48c.95,4.88,5.69,8.07,10.57,7.12,4.88-.95,8.07-5.69,7.12-10.57-.95-4.88-5.69-8.07-10.57-7.12-4.88.95-8.07,5.69-7.12,10.57Z" style="fill: #64452e;"/>
            <path d="m239.18,88.49c.85,4.33,5.49,7.06,10.37,6.11,4.88-.95,8.16-5.24,7.31-9.56s-5.49-7.06-10.37-6.11c-4.88.95-8.16,5.24-7.31,9.56Z" style="fill: #fff;"/>
            <path d="m242.98,86.72c.48,2.47,2.87,4.07,5.34,3.59,2.47-.48,4.07-2.87,3.59-5.34-.48-2.47-2.87-4.07-5.34-3.59-2.47.48-4.07,2.87-3.59,5.34Z" style="fill: #64452e;"/>
            <circle cx="243.92" cy="83.87" r="1.62" style="fill: #fff;"/>
          </g>
          <path d="m260.17,87.68c-14.38-4.63-22.08,2.61-23.98,6.01-1.9,3.4,5.14,7.73,16.34,5.83,11.2-1.9,14.9-9.5,7.64-11.84Z" style="fill: #d3905f;"/>
          <path d="m251.03,101.68l1.19.75c.06-.07.74-1.11,2.23-1.81.55,1.33,3.12,7.2,7.28,12.83.44-.62.69-.95.69-.95,0,0,.82.95,2.31,2.45-5.07-6.01-8.29-13.27-8.94-14.8.88-.21,1.93-.28,3.19-.1l.2-1.4c-5.68-.81-8.05,2.86-8.15,3.03Z" style="fill: #bd764f;"/>
          <path d="m332.45,87.97c1.13,2.16-12.08,1.51-13.29,1.06s-3.47-9.97-3.17-11.48c.3-1.51,14.65,6.95,16.46,10.42Z" style="fill: #64452e; mix-blend-mode: screen; opacity: .5;"/>
          <path d="m251.71,70.38c-6.72-2.29-16.43,5.14-16.43,5.14,0,0,7-14,16.43-5.14Z" style="fill: #64452e;"/>
        </g>
        <path d="m0,442.71c-.28,2.89,27.67,6.72,52.77,7.16,14.56.26,28.13-.62,34.7-3.49,17.87-7.8,34.35-63.66,54.04-75.1,19.69-11.45,84.71-3.67,121.35-24.73,36.64-21.06,49.92-44.42,49.92-56.79,0-10.06-35.87-82.68-51.92-118.6-3.67-8.23-6.31-14.53-7.23-17.72-4.96-17.08-36.48-19.63-34.92-4.62,2.31,22.18,7.98,62.63-10.35,83.24-18.31,20.61-70.51,45.79-82.43,65.03-11.91,19.23-41.45,109.77-53.81,122.59C59.74,432.49.46,438.13,0,442.71Z" style="fill: #d3905f;"/>
        <path d="m52.77,449.87c14.56.26,28.13-.62,34.7-3.49,17.87-7.8,34.35-63.66,54.04-75.1,19.69-11.45,84.71-3.67,121.35-24.73,36.64-21.06,49.92-44.42,49.92-56.79,0-10.06-35.87-82.68-51.92-118.6-10.29-8.66-15.76.26-9.91,33.89,6.87,39.39,9.62,67.32,1.37,82.88-8.23,15.58-28.84,28.39-55.87,38.47-27.01,10.08-41.21,14.2-55.4,21.98-14.2,7.78-41.21,76.02-51.29,88.38-7.07,8.67-23.64,11.95-36.99,13.11Z" style="fill: #f0c09f;"/>
        <path d="m230.6,293.08c2.62-.14,5.13-3.73,5.13-3.73,0,0,1.31,4.7,3.09,5.83,3.72-5.74,16.08-15.91,24.09-21.23,3.27-2.16,5.56-3.6,5.79-3.74l-13.37,19.19s13.36,11.65,27.57,3.56c2.75-15.44-5.83-34.8-12.32-29.8-1.6,1.23-4.36,2.69-7.63,4.21-.07.03-.13.07-.2.09-9.96,4.59-24.4,9.59-24.4,9.59,0,0-3.12-26.16,2.09-49.95,0,0-20.58-12.02-22.5,14-1.9,26.03,10.04,52.12,12.67,51.98Z" style="fill: #d3905f; mix-blend-mode: multiply; opacity: .4;"/>
        <path d="m294.24,323.09c-21.56,8.24-42.18-12.91-42.18-12.91,0,0,21.92,33.27,42.18,12.91Z" style="fill: #bd7d67;"/>
        <g>
          <path d="m141.05,348.38c7.63-1.08,28.42,4.51,41.72,27.48-.05,33.9-26.98,56.26-36.97,63.39-2.03,1.45-2.62,4.21-1.34,6.36h0c.86,1.44,2.42,2.32,4.1,2.32h109.24s-18.76-36.03-31.19-30.76c-2.95,1.26-8.18,3.37-14.46,5.85-20.17,8.01-51.08,19.93-51.08,19.93,0,0,38.82-45.65,62.52-57.15-.23,4.65,1.16,8.06,11.1-6.53,1.56,5.6,4.66,2.18,3.73-4.04-.94-6.21-3.8-52.67-29.82-86.11-9.01-11.58-35.4-21.05-59.64,1.63-24.22,22.68-15.53,58.7-7.91,57.63Z" style="fill: #d3905f;"/>
          <path d="m204.43,447.93h53.38s-18.76-36.03-31.19-30.76c-2.95,1.26-8.18,3.37-14.46,5.85-7.24,8.84-7.85,20.03-7.72,24.9Z" style="fill: #64452e;"/>
          <g>
            <path d="m228.21,447.93h1.42c.65-4.49.69-12.56-5.58-18.01l-.94,1.08c5.9,5.12,5.73,12.8,5.1,16.94Z" style="fill: #64452e; mix-blend-mode: multiply; opacity: .5;"/>
            <path d="m236.58,429.77c6.39,6.82,7.23,14.67,7.24,18.16h1.43c.01-3.7-.84-11.88-7.64-19.13l-1.03.98Z" style="fill: #64452e; mix-blend-mode: multiply; opacity: .5;"/>
          </g>
          <path d="m228.21,368.28c-1.73,8.71-20.95-14.24-22.31-18.9-.14,8.43-5.57.74-13.08-6.23-7.51-6.97-42.75-14.68-45.44-27.97-2.69-13.28,38.08-35.64,56.97-17.2,18.89,18.44,25.4,62.55,23.86,70.29Z" style="fill: #946543; mix-blend-mode: screen; opacity: .2;"/>
        </g>
        <g>
          <path d="m233.26,289.47c2.61-.26,4.96-3.91,4.96-3.91,0,0,0,4.17,1.83,5.22,3.47-5.84,16.89-16.02,24.66-21.63,3.17-2.28,5.4-3.8,5.63-3.95l-12.53,19.57s13.85,10.97,27.69,2.35c2.08-15.41-7.33-34.21-13.59-28.98-1.54,1.29-4.24,2.85-7.44,4.49-.07.03-.13.07-.2.1-9.75,4.97-23.97,10.54-23.97,10.54,0,0-2.08-26.11,2.1-49.89,0,0-23.24-10.7-24.04,15.15-.78,25.87,12.27,51.19,14.9,50.94Z" style="fill: #d3905f;"/>
          <path d="m257.81,284.77s2.66,2.11,6.82,3.76c.52.2,1.09.41,1.67.6,3.2,1.05,7.09,1.7,11.24,1.02h.01c.55-.08,1.11-.2,1.67-.34,2.05-.51,4.17-1.37,6.28-2.68,2.08-15.41-7.33-34.21-13.59-28.98-1.54,1.29-4.24,2.85-7.44,4.49-.94,3.56-.37,5.53.24,6.52,3.17-2.28,5.4-3.8,5.63-3.95l-12.53,19.57Z" style="fill: #64452e;"/>
          <path d="m265.19,288.12c.5.19,1.04.39,1.59.57,3.22-2.25,6.93-6.53,9.03-16.15l-1.32-.28c-2.19,10.03-6.17,13.93-9.3,15.87Z" style="fill: #64452e; mix-blend-mode: multiply; opacity: .5;"/>
          <path d="m277.55,290.14c.55-.08,1.11-.2,1.67-.34,1.66-4.11,3.08-10.01,2.96-15.22l-1.42.03c.13,6-1.62,11.92-3.22,15.53Z" style="fill: #64452e; mix-blend-mode: multiply; opacity: .5;"/>
          <path d="m237.84,276.58s20.52-7.54,26.43-13.85c-9.75,4.97-23.97,10.54-23.97,10.54,0,0-2.08-26.11,2.1-49.89-7.3,21.02-4.56,53.19-4.56,53.19Z" style="fill: #d3905f; mix-blend-mode: screen; opacity: .3;"/>
        </g>
      </g>
    </g>
  </g>
</svg>