<?xml version="1.0" encoding="UTF-8"?>
<svg id="uuid-23bf86c8-4752-4d55-b50c-82caf4cc4f02" data-name="Layer 2" xmlns="http://www.w3.org/2000/svg" viewBox="0 0 72.72 42.3">
  <g id="uuid-620f830f-cd1b-464f-9b5b-0abb81d53fd7" data-name="PR">
    <g>
      <path d="m31.65,21.09c-1.18,2.1-2.96,3.78-5.34,5.04-2.38,1.26-5.29,1.89-8.73,1.89h-5.82v14.28H0V0h17.58c3.4,0,6.29.6,8.67,1.8,2.38,1.2,4.17,2.86,5.37,4.98,1.2,2.12,1.8,4.56,1.8,7.32,0,2.56-.59,4.89-1.77,6.99Zm-10.23-6.99c0-3.08-1.66-4.62-4.98-4.62h-4.68v9.18h4.68c3.32,0,4.98-1.52,4.98-4.56Z" style="fill: #fff;"/>
      <path d="m59.58,42.3l-8.4-15.6h-1.26v15.6h-11.76V0h18.54c3.4,0,6.28.59,8.64,1.77,2.36,1.18,4.14,2.8,5.34,4.86,1.2,2.06,1.8,4.37,1.8,6.93,0,2.88-.79,5.41-2.37,7.59-1.58,2.18-3.89,3.73-6.93,4.65l9.54,16.5h-13.14Zm-9.66-23.64h5.82c1.6,0,2.8-.38,3.6-1.14.8-.76,1.2-1.86,1.2-3.3,0-1.36-.41-2.43-1.23-3.21-.82-.78-2.01-1.17-3.57-1.17h-5.82v8.82Z" style="fill: #fff;"/>
    </g>
  </g>
</svg>