<?xml version="1.0" encoding="UTF-8"?>
<svg id="uuid-34d4bada-1456-44be-83e0-1ce4643d4d9b" data-name="Layer 2" xmlns="http://www.w3.org/2000/svg" viewBox="0 0 30.83 50.66">
  <g id="uuid-e17b7e00-a779-44db-b040-40533bfb4b04" data-name="Owl">
    <g>
      <g>
        <path d="m2.72,27.3c.53,1.63,3.2,7.83,6.7,8.96-1.24-3.83-4.08-8.11-4.08-8.11l-2.61-.85Z" style="fill: #af562d;"/>
        <path d="m2.72,27.3c.32.98,1.41,3.61,2.99,5.8-1.17-1.95-2.28-4.5-2.28-5.57l-.71-.23Z" style="fill: #d48a72;"/>
        <path d="m4.75,27.96c-.17,2.06,2.49,6.35.87,5.02,1.06,1.5,2.36,2.81,3.79,3.28-1.24-3.83-4.08-8.11-4.08-8.11l-.58-.19Z" style="fill: #974021;"/>
        <path d="m5.36,28.13h0s-2.69-.89-2.69-.89l.02.07c.53,1.61,3.2,7.85,6.72,8.99l.07.02-.02-.07c-1.22-3.79-4.06-8.08-4.09-8.12Zm-2.59-.77l2.53.82c.16.24,2.85,4.35,4.05,8.02-3.4-1.17-6.01-7.16-6.58-8.85Z" style="fill: #37150e;"/>
      </g>
      <g>
        <path d="m5.7,30.1c.57-3.94-3.08-8.66-3.08-8.66-1.25.36-1.9,7.09,3.08,8.66Z" style="fill: #af562d;"/>
        <path d="m2.62,21.44c-.87.25-1.45,3.62-.02,6.16-.93-2.11-.71-5.11.19-5.93-.11-.15-.17-.23-.17-.23Z" style="fill: #d48a72;"/>
        <path d="m2.49,27.4c.61,1.18,1.62,2.2,3.21,2.7.38-2.65-1.15-5.65-2.19-7.34-.53,1.84.82,6.42-1.02,4.64Z" style="fill: #974021;"/>
        <path d="m2.63,21.4h-.02c-.51.15-.9,1.26-.91,2.63-.03,2.34,1.01,5.17,3.99,6.1h.04s0-.03,0-.03c.56-3.91-3.05-8.64-3.09-8.69l-.02-.02Zm3.04,8.65c-2.92-.94-3.93-3.72-3.9-6.02.02-1.3.37-2.38.84-2.55.26.34,3.57,4.83,3.06,8.57Z" style="fill: #37150e;"/>
      </g>
      <g>
        <g>
          <path d="m15.41,39.68h-1.22c.61,1.16,2.02,3.04,3.31,3.89,1.01.66,2.21.58,2.46-.41-2.04-2.27-4.55-3.48-4.55-3.48Z" style="fill: #af562d;"/>
          <path d="m17.54,43.23c-1.21-1-2.2-2.08-2.79-3.55h-.56c.61,1.16,2.02,3.04,3.31,3.89.93.61,2.02.59,2.39-.2-.77.58-1.67.38-2.35-.13Z" style="fill: #974021;"/>
          <path d="m15.43,39.64h-1.3s.03.05.03.05c.57,1.09,1.98,3.02,3.32,3.9.43.28.9.43,1.32.43.19,0,.36-.03.52-.09.35-.13.58-.4.68-.78v-.02s0-.01,0-.01c-2.02-2.25-4.53-3.47-4.56-3.49Zm3.86,4.23c-.49.19-1.17.06-1.77-.34-1.31-.87-2.69-2.74-3.27-3.82h1.15c.15.08,2.56,1.29,4.52,3.45-.09.34-.31.59-.63.71Z" style="fill: #37150e;"/>
        </g>
        <g>
          <path d="m16.92,39.04l-2.12.54c1.19,1.14,3.34,3.19,4.84,3.73,1.5.55,2.74.12,3.15-.55-1.27-1.36-5.86-3.72-5.86-3.72Z" style="fill: #af562d;"/>
          <path d="m15.41,39.42l-.62.15c1.19,1.14,3.34,3.19,4.84,3.73,1.48.54,2.71.13,3.13-.52-2.7,1.41-5.56-1.33-7.36-3.37Z" style="fill: #974021;"/>
          <path d="m16.94,39.01h-.01s-2.2.55-2.2.55l.05.05c1.07,1.03,3.29,3.17,4.85,3.74.48.18.93.25,1.35.25.88,0,1.56-.35,1.85-.81v-.02s0-.02,0-.02c-1.26-1.35-5.83-3.7-5.87-3.73Zm2.71,4.27c-1.52-.55-3.77-2.71-4.78-3.68l2.05-.52c.26.14,4.58,2.38,5.82,3.69-.42.65-1.64,1.04-3.09.51Z" style="fill: #37150e;"/>
        </g>
        <g>
          <path d="m22.64,38.98c-2.85-.8-6.45.06-6.45.06,1.24,1.34,3.85,3.55,6.69,3.82,2.84.27,3.4-.88,3.33-1.46-.07-.58-.73-1.63-3.57-2.42Z" style="fill: #af562d;"/>
          <path d="m22.64,38.98c-2.85-.8-6.45.06-6.45.06,0,0,3.48-.62,6.33.18,2.75.77,3.61,1.76,3.69,2.15-.1-.59-.78-1.61-3.57-2.39Z" style="fill: #d48a72;"/>
          <path d="m17.03,38.88c-.52.09-.84.16-.84.16,1.24,1.34,3.85,3.55,6.69,3.82,2.52.24,3.24-.63,3.33-1.24-.3.3-.68.51-1.14.58-3.29.64-6.07-1.43-8.04-3.32Z" style="fill: #974021;"/>
          <path d="m22.65,38.95c-2.82-.79-6.43.05-6.46.06h-.06s.04.06.04.06c.76.82,3.5,3.53,6.71,3.83.29.03.56.04.81.04,1.29,0,1.92-.35,2.23-.67.24-.25.37-.58.33-.87-.06-.45-.52-1.59-3.6-2.45Zm3.22,3.27c-.36.37-1.17.78-2.98.61-3.13-.29-5.81-2.89-6.62-3.76.49-.11,3.76-.78,6.37-.05,3.04.85,3.49,1.96,3.55,2.39.03.27-.08.58-.31.81Z" style="fill: #37150e;"/>
        </g>
      </g>
      <g>
        <g>
          <path d="m7.69,43.75c-1.21-.25-2.12.18-2.03,1.28.69.97,4.32-.25,4.32-.25l1.32-1.89c-1,.79-2.4,1.11-3.61.86Z" style="fill: #f99f25;"/>
          <path d="m7.69,43.75c-1.02-.21-1.83.06-2,.81.17-.7.93-.83,1.95-.62,1.14.23,2.87-.05,3.54-.88l.12-.18c-1,.79-2.4,1.11-3.61.86Z" style="fill: #fdc686;"/>
          <path d="m5.96,44.06c-.22.22-.33.55-.3.97.69.97,4.32-.25,4.32-.25l1.32-1.89c-1.07,1.52-5.36,2.24-5.34,1.17Z" style="fill: #df7d26;"/>
          <path d="m7.7,43.71c-.74-.15-1.35-.06-1.71.27-.27.24-.4.6-.36,1.05h0s0,.02,0,.02c.21.29.66.39,1.19.39,1.28,0,3.06-.59,3.17-.62h.01s1.48-2.11,1.48-2.11l-.2.16c-.98.78-2.35,1.1-3.58.85Zm2.26,1.04c-.22.07-3.6,1.16-4.26.26-.03-.42.08-.75.34-.98.35-.31.93-.4,1.65-.25,1.18.24,2.48-.04,3.46-.73l-1.19,1.69Z" style="fill: #82411c;"/>
        </g>
        <path d="m7.62,43.7l-.04.06c.19.12.44.65.27,1.16l.07.02c.18-.54-.09-1.11-.3-1.24Z" style="fill: #82411c;"/>
        <path d="m8.55,43.8l-.02.07c.38.1.64.41.68.8h.07c-.04-.43-.32-.76-.73-.87Z" style="fill: #82411c;"/>
        <g>
          <path d="m16.43,43.14s.3,1.43.26,1.49c-.04.06,1.45-.62,2.26-.22-.55-1.31-1.64-1.46-2.51-1.27Z" style="fill: #eee7de;"/>
          <path d="m16.59,43.94c.06.34.12.66.1.69-.04.06,1.45-.62,2.26-.22-.7-.78-1.53-.78-2.35-.47Z" style="fill: #d1c6b8;"/>
          <path d="m16.43,43.11h-.04s0,.04,0,.04c.11.53.28,1.39.26,1.46l-.02.02.02.02s.03.02.2-.03c.4-.13,1.45-.49,2.07-.18l.09.04-.04-.09c-.61-1.47-1.86-1.44-2.56-1.29Zm1.36,1.19c-.39.07-.75.19-.95.26-.04.01-.08.03-.11.04,0-.21-.13-.86-.25-1.42.66-.14,1.81-.15,2.4,1.17-.32-.12-.72-.11-1.09-.04Z" style="fill: #7a7063;"/>
        </g>
        <g>
          <path d="m4.84,45.83c-.88.16-1.83.72-1.82,2.14.59-.68,2.23-.63,2.17-.67-.07-.04-.34-1.47-.34-1.47Z" style="fill: #eee7de;"/>
          <path d="m5,46.63c-.88.04-1.64.36-1.99,1.35.59-.68,2.23-.63,2.17-.67-.03-.02-.11-.34-.18-.68Z" style="fill: #d1c6b8;"/>
          <path d="m4.88,45.82v-.04s-.04,0-.04,0c-.7.13-1.86.58-1.85,2.18v.1s.06-.07.06-.07c.46-.53,1.56-.61,1.98-.64.18-.01.19-.01.19-.05v-.03s-.02-.02-.02-.02c-.04-.06-.22-.92-.33-1.45Zm.14,1.46c-.21.01-.59.04-.97.13-.37.08-.75.22-.99.46.04-1.44,1.1-1.88,1.76-2.01.11.56.24,1.21.32,1.41-.03,0-.07,0-.11,0Z" style="fill: #7a7063;"/>
        </g>
        <g>
          <path d="m15.72,42.77c-.87.16-1.26.69-2,.8-.62-.77-.05-3.2-.05-3.2l-2.09-.32.02.05c-.05.84-.57,3.3-1.56,3.89-.98.58-3.08.89-3.54.83-.69-.32-1.82-.23-2.29.91-.4.98.35,1.94,1.18,2.08,1.05.18,3.74-.48,5.36-1.97l1.18-.58c.58-.32,1.75.77,3.92.32,1.83-.39,1.74-1.29,1.56-1.99-.18-.71-.81-.96-1.68-.8Z" style="fill: #f99f25;"/>
          <path d="m11.61,40.11c-.05.84-.57,3.3-1.56,3.89-.98.58-3.08.89-3.54.83-.69-.32-1.82-.23-2.29.91.49-.96,1.62-1.02,2.31-.71.48.11,2.81-.3,3.72-.93,1.05-.72,1.54-2.83,1.56-4l-.23-.04.02.05Z" style="fill: #fdc686;"/>
          <path d="m13.67,40.37l-.49-.07c-.39,1.75-.02,3.31.54,3.27-.62-.77-.05-3.2-.05-3.2Z" style="fill: #df7d26;"/>
          <path d="m17.01,42.96c.3.75-.01,1.46-.54,1.72-.5.24-2.06.72-4,.18-.48.05-.96.14-1.47.32-1.18.98-2.58,1.51-3.75,1.71-.75.12-2.82.68-2.95-1.33-.03.06-.06.12-.08.18-.4.98.35,1.94,1.18,2.08,1.05.18,3.74-.48,5.36-1.97q1.18-.58,1.18-.58c.58-.32,1.75.77,3.92.32,1.83-.39,1.74-1.29,1.56-1.99-.07-.27-.2-.47-.39-.61Z" style="fill: #df7d26;"/>
          <path d="m15.72,42.73c-.45.08-.77.26-1.08.43-.28.16-.55.31-.9.37-.58-.76-.04-3.13-.03-3.15v-.04s-2.12-.32-2.12-.32v.07s2.04.31,2.04.31c-.07.33-.52,2.46.07,3.19v.02s.03,0,.03,0c.37-.05.65-.21.95-.38.3-.17.62-.35,1.05-.43.89-.16,1.47.12,1.64.78.1.39.16.8-.06,1.17-.23.37-.71.62-1.47.78-1.29.27-2.21,0-2.89-.21-.46-.14-.79-.24-1.04-.1l-1.18.58h0c-1.58,1.47-4.25,2.16-5.33,1.97-.43-.07-.84-.38-1.07-.79-.22-.39-.24-.83-.08-1.23.18-.45.49-.77.9-.93.42-.17.92-.15,1.35.04h.01c.48.07,2.58-.25,3.56-.83.98-.58,1.51-3,1.57-3.91h-.07c-.06.9-.59,3.29-1.54,3.85-.96.57-3.02.88-3.51.82-.44-.2-.96-.21-1.4-.04-.42.17-.75.5-.94.97-.18.43-.15.89.08,1.3.24.43.67.75,1.12.83.12.02.25.03.4.03,1.25,0,3.56-.69,4.98-2.01l1.18-.58c.22-.12.54-.02.98.11.68.21,1.62.49,2.92.21.78-.16,1.28-.43,1.51-.82.24-.39.18-.82.07-1.22-.18-.7-.79-1-1.72-.83Z" style="fill: #82411c;"/>
        </g>
        <path d="m6.53,44.79l-.03.06c.36.19.65.74.62,1.05,0,0,.1-.22-.05-.5-.12-.25-.32-.5-.54-.61Z" style="fill: #82411c;"/>
        <path d="m7.76,44.67v.07c.54.08.85.63.91,1.11,0,0,.04-.31-.11-.58-.16-.3-.43-.55-.8-.6Z" style="fill: #82411c;"/>
        <path d="m9.07,44.37v.07c.5.05.71.43.8.73,0,0,.02-.28-.2-.51-.14-.15-.33-.26-.61-.29Z" style="fill: #82411c;"/>
        <path d="m10.35,43.71v.07c.13.02.55.35.55.76,0,0,.07-.18-.05-.42-.14-.24-.38-.4-.5-.42Z" style="fill: #82411c;"/>
        <path d="m11.54,43.25c-.23-.18-.52-.26-.71-.26v.07c.27,0,.76.17.93.59,0,0,0-.24-.22-.4Z" style="fill: #82411c;"/>
        <path d="m13.76,43.58l-.07-.02c-.05.13-.05.26-.03.38.04.21.21.33.21.33,0,0-.24-.35-.12-.68Z" style="fill: #82411c;"/>
        <path d="m14.45,43.28l-.02.07c.18.05.35.33.32.7,0,0,.09-.23,0-.45-.07-.17-.19-.29-.31-.32Z" style="fill: #82411c;"/>
        <path d="m15.29,42.86l-.04.06c.24.13.97.64.46,1.61,0,0,.21-.17.24-.47.11-.7-.46-1.08-.67-1.2Z" style="fill: #82411c;"/>
        <g>
          <ellipse cx="12.27" cy="46.27" rx="1.92" ry="1.73" style="fill: #f99f25;"/>
          <path d="m12.27,44.55c-1.06,0-1.92.77-1.92,1.73.09-.88.9-1.48,1.96-1.48.96,0,1.72.44,1.86,1.22-.14-.83-.94-1.47-1.9-1.47Z" style="fill: #fdc686;"/>
          <path d="m12.4,47.1c-1.77.26-1.95-1.15-1.99-1.25-.04.14-.06.28-.06.43,0,.95.86,1.73,1.92,1.73s1.92-.77,1.92-1.73c0-.38-.14-.73-.37-1.02.04.24.37,1.58-1.42,1.85Z" style="fill: #df7d26;"/>
          <path d="m12.27,44.51c-1.08,0-1.96.79-1.96,1.76s.88,1.76,1.96,1.76,1.96-.79,1.96-1.76-.88-1.76-1.96-1.76Zm0,3.45c-1.04,0-1.88-.76-1.88-1.69s.85-1.69,1.88-1.69,1.88.76,1.88,1.69-.85,1.69-1.88,1.69Z" style="fill: #82411c;"/>
        </g>
        <g>
          <path d="m11.66,46.88c-.04.89.56,1.68.96,2.07,0,0,.63-1.11.5-2.11-.12-1-1.43-.76-1.46.04Z" style="fill: #eee7de;"/>
          <path d="m12.94,46.41c.3.91-.22,1.77-.41,1.79-.15.02-.47-.06-.71-.44.2.51.55.94.8,1.19,0,0,.63-1.11.5-2.11-.02-.19-.09-.33-.18-.44Z" style="fill: #d1c6b8;"/>
          <path d="m12.41,46.15c-.37.01-.76.27-.79.73-.05,1.02.73,1.86.97,2.1l.03.03.02-.04s.63-1.13.51-2.13c-.06-.53-.44-.7-.75-.69Zm.2,2.74c-.27-.27-.96-1.06-.91-2.01.02-.41.38-.65.72-.66.04,0,.07,0,.11,0,.26.03.51.2.56.62.11.86-.37,1.83-.48,2.04Z" style="fill: #7a7063;"/>
        </g>
        <path d="m12.68,43.71c-.13-.03-.27-.04-.41-.02-.15.02-.29.06-.42.12-.31.18-.32.41-.32.41.12-.25.4-.43.74-.47.35-.04.68.08.87.31,0,0-.1-.28-.47-.36Z" style="fill: #82411c;"/>
      </g>
      <g>
        <path d="m7.7,33.82c-.14,2.13,1.35,4.34,2.61,5.67.53.55.87,1.02,1.26,1.16.6.2,1.62.28,2.08.12.41-.13.7-.63.85-1.09.38-1.15-6.81-5.85-6.81-5.85Z" style="fill: #fdd9a5;"/>
        <path d="m10.85,36.02c.17.86.9,4.54-.9,3.07.12.14.24.27.36.4.53.55.87,1.02,1.26,1.16.6.2,1.62.28,2.08.12.41-.13.7-.63.85-1.09.21-.62-1.78-2.26-3.66-3.66Z" style="fill: #e5b370;"/>
        <path d="m7.72,33.79l-.05-.03v.06c-.17,2.55,1.96,5,2.62,5.69.12.13.23.25.34.36.35.39.63.7.94.8.39.13.94.21,1.41.21.28,0,.53-.03.7-.08.36-.12.68-.53.88-1.11.39-1.16-6.53-5.7-6.83-5.9Zm6.76,5.87c-.19.56-.5.96-.83,1.07-.44.14-1.44.08-2.06-.12-.29-.1-.57-.4-.91-.78-.11-.12-.22-.24-.34-.37-.65-.68-2.74-3.08-2.61-5.57.65.43,7.1,4.72,6.75,5.78Z" style="fill: #78491d;"/>
      </g>
      <g>
        <path d="m23.66,30.72s-.21.53-.55,1.33c-.3.7-.71,1.61-1.19,2.55-.83,1.65-1.85,3.42-2.84,4.38-2.19,2.14-5.19,1.64-8.1-.53-2.91-2.17-4.33-6.2-5.69-8.32-.52-.82-.95-2-1.21-3.23-.22-1.01-.33-2.06-.29-2.94,1.93-3.42,10.89-5.96,15.68-6.23h3.15l.02.26.61,7.55.42,5.17Z" style="fill: #fdd9a5;"/>
        <path d="m14.72,38.22c-4.07.11-7.2-4-7.21-4.01.9,1.57,1.99,3.15,3.47,4.26,2.91,2.17,5.91,2.67,8.1.53,1.15-1.12,2.36-3.35,3.24-5.21-.06.03-1.75.81-3.55,2.02-1.15,1.75-2.68,2.37-4.05,2.4Z" style="fill: #e5b370;"/>
        <path d="m4.78,17.7l-.88,5.18c-.46,1.87.21,5.47,1.37,7.27.37.58.75,1.32,1.16,2.09,1.08,2.07,2.42,4.66,4.54,6.24,1.51,1.13,2.97,1.76,4.34,1.89.17.02.33.02.49.02,1.26,0,2.37-.46,3.31-1.39,2.17-2.12,4.56-8.22,4.59-8.28h0s-1.05-13.03-1.05-13.03H4.78Zm14.28,21.27c-.92.9-2.04,1.35-3.27,1.35-1.46,0-3.1-.63-4.78-1.89-2.11-1.57-3.44-4.15-4.52-6.21-.41-.78-.79-1.52-1.16-2.1-1.14-1.79-1.82-5.37-1.36-7.22l.87-5.13h17.75l1.04,12.94c-.1.25-2.44,6.18-4.57,8.25Z" style="fill: #78491d;"/>
      </g>
      <g>
        <g>
          <path d="m28.52,45.44s.05,1.46,0,1.51c-.05.05,1.53-.36,2.26.17-.31-1.39-1.36-1.72-2.26-1.68Z" style="fill: #eee7de;"/>
          <path d="m28.54,46.25c0,.34,0,.67-.02.7-.05.05,1.53-.36,2.26.17-.56-.89-1.37-1.03-2.24-.87Z" style="fill: #d1c6b8;"/>
          <path d="m28.52,45.4h-.04s0,.04,0,.04c.02.54.03,1.42,0,1.49l-.02.02v.02s.04.03.21,0c.41-.06,1.51-.23,2.07.18l.08.06-.02-.09c-.35-1.56-1.59-1.74-2.29-1.71Zm1.13,1.41c-.4,0-.77.06-.98.09-.04,0-.08.01-.11.02.03-.2.02-.87,0-1.44.68-.02,1.81.17,2.16,1.57-.29-.18-.69-.23-1.07-.23Z" style="fill: #7a7063;"/>
        </g>
        <g>
          <path d="m17.55,46.9c-.85.27-1.73.94-1.55,2.35.5-.75,2.14-.89,2.07-.93-.07-.03-.52-1.42-.52-1.42Z" style="fill: #eee7de;"/>
          <path d="m17.81,47.67c-.87.14-1.59.55-1.81,1.58.5-.75,2.14-.89,2.07-.93-.03-.02-.15-.32-.26-.65Z" style="fill: #d1c6b8;"/>
          <path d="m17.58,46.88v-.03s-.05.01-.05.01c-.67.21-1.78.81-1.58,2.39v.1s.07-.08.07-.08c.39-.58,1.48-.79,1.89-.87.17-.03.18-.04.19-.07v-.03s-.02-.01-.02-.01c-.05-.06-.33-.89-.5-1.4Zm.32,1.44c-.21.04-.58.11-.95.25-.36.13-.71.31-.93.58-.14-1.43.86-2,1.5-2.21.18.55.39,1.18.49,1.36-.03,0-.07.01-.11.02Z" style="fill: #7a7063;"/>
        </g>
        <g>
          <path d="m26.81,44.93c-1.31.27-2.17.1-2.94-.72-.6-.63-.83-3.17-.89-4.27l-2.23.43s.02.07.03.12c.2.84.45,3.7.34,3.98-.15.36-.81,1-1.48,1.26-.68.22-1.58-.2-2.13.27-.71.6-.52,1.81-.04,2.23.49.42,1.09.58,2.38-.13,1.3-.71,1.7-1.15,1.7-1.15,0,0-.81,2.37,1.39,2.43,2.38.06,1.75-1.93,1.49-2.56.66.36,2.08,1.1,3.58.65,1.6-.48,1.24-1.91.75-2.42-.43-.45-1.26-.59-1.95-.11Z" style="fill: #f99f25;"/>
          <path d="m23.59,46.51c-.21-.05-.44-.07-.66-.03-.2.03-.38.1-.53.2-.28.19-.31.46-.31.46.26-.32.6-.46.87-.49.42-.05.78-.02,1.12.2,0,0-.15-.23-.48-.33Z" style="fill: #fdc686;"/>
          <g>
            <path d="m26.81,44.93c-1.31.27-2.17.1-2.94-.72.86.93,1.63,1.22,2.94.94.69-.48,1.58-.35,1.95-.12-.43-.45-1.26-.59-1.95-.11Z" style="fill: #fdc686;"/>
            <path d="m21.11,44.47c-.15.36-.81,1-1.48,1.26-.68.22-1.58-.2-2.13.27-.25.21-.39.49-.44.79.07-.2.19-.39.38-.55.55-.47,1.39-.05,2.23-.33.93-.28,1.5-1.02,1.64-1.38.2-.53-.34-3.2-.55-4.04.2.84.45,3.7.34,3.98Z" style="fill: #fdc686;"/>
            <path d="m17.06,46.79c-.18.53.05,1.13.41,1.44-.32-.27-.51-.88-.41-1.44Z" style="fill: #f99f25;"/>
          </g>
          <path d="m23.86,44.21c-.6-.63-.83-3.17-.89-4.27l-.52.11c.16.99.15,2.33.49,3.3.28.81.86,1.26,1.39,1.27-.16-.11-.32-.25-.47-.41Z" style="fill: #df7d26;"/>
          <path d="m20.59,47.1c-.88.58-1.61,1.1-2.55.73-.49-.18-.78-.61-.93-1.22-.18.6.01,1.31.36,1.61.49.42,1.09.58,2.38-.13.8-.44,1.26-.78,1.49-.97l.2-.18c.17-.46.27-.99.23-1.33-.27.87-.61,1.12-1.19,1.49Z" style="fill: #df7d26;"/>
          <path d="m27.4,46.73c-1.24.15-2.49.07-3.45-1.08-.22.83.84,2.22-.11,2.73-.8.44-1.94.57-2.43-.56,0,0-.01-.02-.02-.03-.02.69.22,1.55,1.54,1.58,2.38.06,1.75-1.93,1.49-2.56.66.36,2.08,1.1,3.58.65,1.56-.47,1.25-1.85.78-2.39.24.83-.6,1.59-1.38,1.66Z" style="fill: #df7d26;"/>
          <path d="m26.79,44.9c-1.34.28-2.16.08-2.9-.71-.5-.52-.78-2.54-.88-4.25v-.04s-2.31.44-2.31.44v.04s.03.07.04.12c.2.85.45,3.69.34,3.96-.15.37-.82.99-1.45,1.24-.28.09-.6.07-.92.05-.44-.03-.89-.06-1.22.22-.31.26-.48.66-.48,1.12,0,.47.17.93.45,1.16.44.38,1.05.63,2.42-.12.95-.52,1.42-.89,1.6-1.06-.09.33-.26,1.18.15,1.76.26.37.7.56,1.31.58.03,0,.07,0,.1,0,.72,0,1.21-.2,1.48-.58.41-.6.15-1.5-.02-1.94.62.34,2.03,1.05,3.51.6.79-.24,1.06-.69,1.15-1.03.14-.54-.09-1.14-.38-1.45-.42-.44-1.26-.63-1.99-.12Zm2.3,1.55c-.12.46-.5.8-1.1.98-1.53.46-3-.34-3.55-.64l-.09-.05.04.1c.16.39.49,1.35.06,1.97-.26.38-.77.57-1.52.55-.59-.01-1.01-.2-1.25-.55-.48-.69-.11-1.82-.11-1.83l-.06-.04s-.41.44-1.69,1.14c-1.27.69-1.85.56-2.34.13-.25-.22-.42-.66-.42-1.11,0-.44.16-.82.46-1.06.31-.26.73-.23,1.17-.21.32.02.65.04.95-.05.65-.26,1.34-.91,1.5-1.28.12-.3-.14-3.2-.34-4,0-.03-.01-.06-.02-.08l2.15-.41c.05.88.27,3.58.9,4.25.76.8,1.62,1.01,2.98.73h.01c.7-.49,1.5-.32,1.9.1.28.3.5.87.37,1.38Z" style="fill: #82411c;"/>
        </g>
        <path d="m22.71,43.61c-.17-.01-.36,0-.54.05-.27.08-.36.24-.36.24.39-.28,1.01-.26,1.28-.12,0,0-.13-.14-.38-.17Z" style="fill: #82411c;"/>
        <path d="m22.33,44.65c-.33.08-.45.3-.45.3.42-.34,1-.32,1.27-.2,0,0-.16-.14-.44-.15-.12,0-.25.01-.38.05Z" style="fill: #82411c;"/>
        <path d="m22.54,45.67c-.28.08-.39.28-.39.28.42-.34,1-.32,1.27-.2,0,0-.15-.15-.45-.15-.14,0-.29.02-.44.07Z" style="fill: #82411c;"/>
        <path d="m23.59,46.51c-.21-.05-.44-.07-.66-.03-.2.03-.38.1-.53.2-.28.19-.31.46-.31.46.22-.41.59-.55.86-.59.42-.07.88.05,1.13.29,0,0-.15-.23-.48-.33Z" style="fill: #82411c;"/>
        <path d="m21.56,46.76c-.02.06-.03.12-.05.18l.07.02c.02-.06.03-.12.05-.17.06-.23.13-.48.18-.75.05-.27-.03-.42-.03-.42-.02.43-.13.81-.22,1.15Z" style="fill: #82411c;"/>
        <path d="m23.95,45.65s0,.28.17.57c.1.22.21.44.27.6l.07-.03c-.06-.16-.17-.38-.27-.6-.11-.24-.22-.46-.24-.54Z" style="fill: #82411c;"/>
        <path d="m26.78,44.91c-.16.19-.21.49-.21.77,0,.44.19.67.19.67-.14-.34-.18-1.07.08-1.4l-.06-.05Z" style="fill: #82411c;"/>
        <path d="m25.93,45.02c-.17.19-.22.43-.23.65,0,.29.14.52.14.52,0,0-.22-.71.14-1.13l-.05-.05Z" style="fill: #82411c;"/>
        <path d="m19.65,45.7l-.03.07c.45.21.64.8.64.8,0,0-.01-.28-.19-.51-.1-.14-.24-.28-.42-.36Z" style="fill: #82411c;"/>
        <path d="m18.07,45.74v.07c.58.01.95.42,1.13,1.2,0,0,.03-.26-.09-.52-.27-.59-.69-.74-1.03-.75Z" style="fill: #82411c;"/>
        <g>
          <path d="m22.56,48.66c.06.89.76,1.61,1.19,1.94,0,0,.49-1.18.26-2.15-.24-.98-1.51-.58-1.45.21Z" style="fill: #eee7de;"/>
          <path d="m23.78,48.04c.4.87-.01,1.79-.2,1.83-.15.03-.48,0-.76-.35.26.49.65.87.94,1.09,0,0,.49-1.18.26-2.15-.05-.19-.13-.32-.23-.41Z" style="fill: #d1c6b8;"/>
          <path d="m23.22,47.85c-.36.06-.73.36-.69.82.07,1.02.94,1.76,1.21,1.97l.04.03.02-.04s.49-1.2.26-2.18c-.13-.52-.52-.64-.83-.6Zm.52,2.7c-.3-.24-1.07-.94-1.14-1.89-.03-.41.3-.69.63-.74.04,0,.07,0,.11,0,.26,0,.53.14.63.55.21.85-.15,1.86-.24,2.08Z" style="fill: #7a7063;"/>
        </g>
      </g>
      <g>
        <path d="m23.63,31.76l-5.62,3.02c-.27,3.32,1.09,5.36,2.61,6.12.59.29,2.03.01,2.34-.34,1.72-1.92,1.58-5.15,1.58-5.15l-.9-3.65Z" style="fill: #fdd9a5;"/>
        <path d="m23.25,25.56c.03,1.87,0,4.13-.14,6.5-.07,1.15-.16,2.32-.28,3.48-.32-.2-.63-.52-.91-.92-1.55-2.25-2.38-7.16-2.3-9.28-.2.43-4.67,2.7-6.19,3.08-1.52.37-4.57,2.51-4.57,2.51,0,0-1.25-1.74-3.21-2.75-.74-.38-1.23-.84-1.56-1.26-.22-1.01-.33-2.06-.29-2.94,1.93-3.42,10.89-5.96,15.68-6.23.56-.03,1.06-.03,1.49,0,.74.06,1.29.15,1.68.26,2.07.61,0,1.93.28,3.01.16.58.29,2.27.33,4.54Z" style="fill: #e5b370;"/>
        <path d="m23.63,31.76l-1.27.68c-.02,2.37.42,5.43-1.6,6.41-1.25.54-2.49-1.47-2.78-2.97.08,2.67,1.3,4.35,2.64,5.02.59.29,2.03.01,2.34-.34,1.72-1.92,1.58-5.15,1.58-5.15l-.9-3.65Z" style="fill: #e5b370;"/>
        <path d="m24.49,35.42s.12,3.24-1.57,5.12c-.29.32-1.7.63-2.29.33-1.45-.73-2.9-2.71-2.62-6.09,0,0-.1.45-.1,1.15.1,2.72,1.39,4.36,2.69,5.01.18.09.43.13.71.13.65,0,1.44-.21,1.67-.47,1.71-1.91,1.59-5.14,1.59-5.18h-.07Z" style="fill: #78491d;"/>
      </g>
      <path d="m11.11,30.05c.12.69.71,1.11,1.3,1.03.55-.08,1.09-.47.96-1.42-.49.5-1.63.72-2.25.39Z" style="fill: #bf7d2d;"/>
      <path d="m7.88,31.32c-.1.7.34,1.28.92,1.38.55.1,1.19-.11,1.35-1.06-.62.33-1.77.18-2.27-.32Z" style="fill: #bf7d2d;"/>
      <path d="m5.75,29.11c-.26.62,0,1.26.51,1.5.48.22,1.13.18,1.5-.65-.66.15-1.68-.27-2.02-.85Z" style="fill: #bf7d2d;"/>
      <path d="m8.35,34.03c-.17.68.22,1.3.78,1.46.54.15,1.19,0,1.44-.93-.65.27-1.78.01-2.23-.53Z" style="fill: #bf7d2d;"/>
      <path d="m14.6,28.26c.28.64.96.91,1.51.68.52-.21.95-.73.58-1.61-.36.61-1.41,1.09-2.09.93Z" style="fill: #bf7d2d;"/>
      <path d="m17.29,28.53c.24.66.9.97,1.46.78.53-.17.99-.66.69-1.57-.4.58-1.48,1-2.15.79Z" style="fill: #bf7d2d;"/>
      <path d="m15.49,31.37c.3.63.99.87,1.53.63.51-.23.92-.76.53-1.63-.34.62-1.37,1.14-2.06,1Z" style="fill: #bf7d2d;"/>
      <path d="m14.8,34.56c.16.68.78,1.07,1.36.95.55-.11,1.06-.54.87-1.48-.46.53-1.59.81-2.23.53Z" style="fill: #bf7d2d;"/>
      <path d="m11.79,33.45c.1.7.68,1.13,1.27,1.07.55-.06,1.11-.44,1-1.4-.51.49-1.65.67-2.26.33Z" style="fill: #bf7d2d;"/>
      <path d="m10.97,35.96c-.09.7.36,1.27.94,1.36.55.09,1.18-.14,1.33-1.08-.62.34-1.77.21-2.27-.28Z" style="fill: #bf7d2d;"/>
      <path d="m14.07,36.79c.16.68.78,1.07,1.36.95.55-.11,1.06-.54.87-1.48-.46.53-1.59.82-2.23.53Z" style="fill: #bf7d2d;"/>
      <path d="m18.41,33.07c.23.66.89.98,1.45.8.53-.17,1-.65.71-1.56-.4.58-1.49.98-2.16.76Z" style="fill: #bf7d2d;"/>
      <g>
        <g>
          <path d="m3.93,18.47c-1.02.51-1.86,2.47-1.65,4.23.15,1.28.7,2.18,1.28,2.53.3,1.09,1.45,2.63,2.89,3.31.8,1.35,1.86,2.16,2.41,2.43.49-1,2.58-1.78,3.6-2.82,1.7-.07,3.79-1.43,4.16-1.87,1.23-.34,3.06-1.56,3.75-3.36.69-1.81-.1-3.26-.1-3.26l-16.34-1.19Z" style="fill: #ffecd5;"/>
          <path d="m2.29,22.7c.04.31.1.6.18.86-.29-2.08.57-4.27,2.16-5.04l-.69-.05c-1.02.51-1.86,2.47-1.65,4.23Z" style="fill: #ffe8ca;"/>
          <path d="m8.76,23.96c-.11-1.4.69-2.32,1.73-3.08.84-.62,1.87-1.28,2.87-1.72l-2.95.58c-1.28.67-2.32,2.2-1.65,4.22Z" style="fill: #e5c7a8;"/>
          <path d="m19.38,19.6c.14,1.8.41,3.59-1.32,5.1,0-.73-.15-1.39-.36-2.12-.58,1.75-1.97,3.43-3.58,4.3.27-.58.29-1.53.07-2.18-.85,1.44-1.88,2.68-3.09,3.48-.48.32-1.79.92-2.36,1.84-1.86-1.63-2.52-4.17-2.67-4.97-.45.2-.94.99-1.08,1.5-.96-1.01-1.39-2.45-1.25-3.84-.36.36-.36,1.27-.33,1.64-.48-.06-.86-.66-1.01-.98.23.92.69,1.58,1.16,1.86.3,1.09,1.45,2.63,2.89,3.31.8,1.35,1.86,2.16,2.41,2.43.49-1,2.58-1.78,3.6-2.82,1.7-.07,3.79-1.43,4.16-1.87,1.23-.34,3.06-1.56,3.75-3.36.69-1.81-.1-3.26-.1-3.26l-.89-.07Z" style="fill: #e5c7a8;"/>
          <path d="m20.3,19.63l-16.36-1.19h0s0,0,0,0c-1.08.54-1.87,2.57-1.67,4.27.17,1.4.77,2.23,1.29,2.55.31,1.11,1.48,2.64,2.9,3.31.83,1.4,1.91,2.19,2.42,2.44l.03.02.02-.03c.27-.55,1.05-1.04,1.87-1.55.62-.39,1.27-.79,1.71-1.25,1.71-.08,3.79-1.44,4.16-1.88,1.12-.31,3.03-1.46,3.76-3.38.69-1.8-.09-3.27-.1-3.29v-.02Zm.03,3.28c-.72,1.89-2.62,3.03-3.72,3.33h-.01s0,.01,0,.01c-.35.42-2.43,1.79-4.13,1.86h-.01s-.01.01-.01.01c-.44.45-1.09.86-1.71,1.25-.81.51-1.59.99-1.88,1.55-.51-.26-1.55-1.04-2.36-2.4h0s-.01-.01-.01-.01c-1.41-.66-2.57-2.19-2.87-3.28h0s-.01-.02-.01-.02c-.5-.3-1.1-1.12-1.27-2.51-.2-1.66.57-3.65,1.62-4.19l16.31,1.19c.08.17.72,1.54.09,3.21Z" style="fill: #736555;"/>
        </g>
        <path d="m3.41,23.51c-.07.52-.05,1.17.12,1.73l.07-.02c-.28-.94-.16-2.1.14-2.51,0,0-.25.19-.33.8Z" style="fill: #736555;"/>
        <path d="m5.89,25.59s-.22.13-.22.78c.03.75.39,1.65.77,2.19l.06-.04c-.58-.85-.98-2.26-.61-2.93Z" style="fill: #736555;"/>
        <path d="m12.45,28.12l.05.05c.22-.2.48-.53.68-.84.2-.29.24-.62.24-.62-.13.39-.61,1.09-.97,1.41Z" style="fill: #736555;"/>
        <path d="m16.6,26.25l.05.05c.22-.24.38-.49.49-.71.2-.38.19-.68.19-.68,0,0-.15.68-.73,1.34Z" style="fill: #736555;"/>
        <path d="m8.78,23.08c-.12.51-.01.88-.01.88-.08-1.78,1.35-3.05,2.71-3.48l-.02-.07c-1.14.37-2.34,1.32-2.67,2.67Z" style="fill: #736555;"/>
      </g>
      <g>
        <g>
          <path d="m24.75,28.54s-.41,5.46.38,9.02c1.14-1.14,1.47-7.39,1.06-9.6l-1.45.57Z" style="fill: #af562d;"/>
          <path d="m25.56,28.22c.41,3.03.62,6.71-.36,9.27,1.09-1.31,1.4-7.37,1-9.52l-.64.25Z" style="fill: #974021;"/>
          <path d="m26.23,27.92l-1.51.6v.02c0,.05-.41,5.5.38,9.03v.06s.06-.05.06-.05c1.17-1.17,1.48-7.42,1.07-9.63v-.04Zm-1.08,9.57c-.74-3.4-.4-8.54-.37-8.92l1.38-.55c.38,2.15.07,8.22-1.01,9.47Z" style="fill: #37150e;"/>
        </g>
        <g>
          <path d="m23.27,30.29s-.02,5.37,1.27,8.24c1.41-.56.84-8,.56-9.43l-1.83,1.19Z" style="fill: #af562d;"/>
          <path d="m24.43,29.53c.33,1.87,1.09,7.06.12,9,1.39-.6.82-8,.55-9.43l-.66.43Z" style="fill: #974021;"/>
          <path d="m25.12,29.04l-1.89,1.23v.02c0,.05,0,5.42,1.27,8.26v.03s.05-.01.05-.01c1.44-.57.84-8.13.58-9.47v-.05Zm-.58,9.45c-1.22-2.75-1.25-7.82-1.25-8.18l1.76-1.15c.14.78.34,2.95.34,4.98,0,2.53-.3,4.07-.86,4.34Z" style="fill: #37150e;"/>
        </g>
        <g>
          <g>
            <path d="m27.11,21.73c-.11-2.92-2.23-3.58-4.06-2.92-1.61.58-2.59,1.8-2.8,4.41-.46,5.66,3.2,16.23,4.13,15.96.94-.27-.39-7.29-.46-7.8.15-.32.22-.67.22-.67,0,0,.38.35.74-.05.36-.39.61-1.18.71-1.77.23.15.91-.15,1.18-1.57.25-1.3,0-2.28,0-2.28,0,0,.43-1.1.35-3.31Z" style="fill: #af562d;"/>
            <path d="m20.54,23.36c.21-2.61.9-3.96,2.5-4.55-1.61.58-2.59,1.8-2.8,4.41-.45,5.58,3.11,15.95,4.09,15.96-.69-.12-4.24-10.28-3.79-15.82Z" style="fill: #d48a72;"/>
            <path d="m27.11,21.73c-.09-2.35-1.49-3.24-2.98-3.15.12.03-.31.3-.19.31,3.31.28,2.67,4.57,2.63,4.98-.17-.36-.41-.63-.66-.84.32,1.5.74,4.78-.27,5.25.03-.67-.11-1.36-.25-1.58.14,1.25-.45,4.21-1.12,3.37.11-.82.1-1.96-.09-2.6.03.67-.06,1.77-.28,2.75-.32,1.39-.83,2.36-1.24,1.68-.04.21-.05.64.28.72.19.04.35-.12.53-.34.23,1.09,1.32,6.39.57,6.68.13.16.25.23.34.21.94-.27-.39-7.29-.46-7.8.15-.32.22-.67.22-.67,0,0,.38.35.74-.05.36-.39.61-1.18.71-1.77.23.15.91-.15,1.18-1.57.25-1.3,0-2.28,0-2.28,0,0,.43-1.1.35-3.31Z" style="fill: #974021;"/>
            <path d="m27.15,21.73c-.05-1.27-.49-2.22-1.27-2.75-.76-.51-1.8-.59-2.85-.2v.03s0-.03,0-.03c-1.76.64-2.63,2.01-2.83,4.44-.19,2.31.31,5.81,1.37,9.59.87,3.12,1.98,5.84,2.57,6.33.07.06.13.08.19.08.02,0,.03,0,.05,0,.59-.17.46-2.61-.37-7.45-.03-.18-.05-.31-.06-.38.11-.25.18-.5.21-.61.12.08.44.25.74-.08.35-.39.61-1.14.71-1.74.08.03.18.02.29-.03.15-.06.66-.37.89-1.59.23-1.21.03-2.17,0-2.28.04-.12.42-1.24.34-3.32Zm-.42,3.3h0s0,.02,0,.02c0,0,.24.99,0,2.26-.22,1.18-.71,1.47-.85,1.54-.11.05-.21.05-.27,0l-.05-.03v.05c-.11.59-.36,1.36-.71,1.75-.33.36-.67.06-.69.04l-.05-.04v.06s-.09.35-.24.66h0s0,.02,0,.02c0,.06.03.19.07.39,1.02,5.9.79,7.27.42,7.37-.04.01-.1,0-.17-.06-.58-.48-1.68-3.18-2.55-6.29-1.05-3.78-1.55-7.27-1.37-9.57.19-2.4,1.05-3.75,2.78-4.38.43-.16.87-.24,1.28-.24.56,0,1.08.15,1.5.43.76.51,1.19,1.44,1.23,2.69.08,2.18-.34,3.29-.34,3.3Z" style="fill: #37150e;"/>
          </g>
          <path d="m26.42,24.34s.22.29.31.71l.07-.02c-.09-.44-.38-.69-.38-.69Z" style="fill: #37150e;"/>
          <path d="m25.38,26.71c.13.38.28,1.02.17,2.17h.07c.05-.57.04-1.01,0-1.37-.03-.56-.25-.81-.25-.81Z" style="fill: #37150e;"/>
          <path d="m24.17,27.48c.13.82.23,2.04-.08,3.23l.07.02c.2-.77.23-1.56.2-2.24,0-.57-.19-1.01-.19-1.01Z" style="fill: #37150e;"/>
          <path d="m22.94,32.61c-.34-.06-.28-.69-.28-.69,0,0-.1.33,0,.55.05.11.13.19.26.21.02,0,.03,0,.05,0,.39,0,.8-.78.97-1.29l-.07-.02c-.18.53-.6,1.3-.94,1.24Z" style="fill: #37150e;"/>
        </g>
      </g>
      <g>
        <path d="m21.1,2.48C16.42-.04,7.98-.24,4.81,3.66c-.73.9-1.48,2.23-2.33,3.86C1.28,9.84.15,12.43.26,14.55c.18,3.61,4.74,6.2,11.13,6.46s12.36-.57,13.9-3.58c1.39-2.71.04-5.51-.29-7.44-.33-1.93-.07-5.46-3.9-7.51Z" style="fill: #af562d;"/>
        <path d="m21.1,2.48C16.42-.04,7.98-.24,4.81,3.66c-.73.9-1.48,2.23-2.33,3.86.84-1.63,1.5-2.6,2.23-3.51C6.68,1.59,10.85.64,14.88.99c2.46.21,4.89,1.01,6.67,1.96.65.35,1.17.73,1.59,1.13-.5-.59-1.16-1.13-2.04-1.6Z" style="fill: #d48a72;"/>
        <path d="m24.18,5.8c.5,1.78,0,3.03.19,4.44.3,2.28.59,4.24-.26,6.17-1.24,2.99-5.08,3.27-8.24,3.54-2.61.22-5.02.45-7.93.07-2.6-.34-5.25-1.41-6.96-3.3,1.53,2.45,5.41,4.09,10.43,4.29,6.38.26,12.36-.57,13.9-3.58,1.39-2.71.04-5.51-.29-7.44-.18-1.08-.18-2.65-.81-4.19Z" style="fill: #974021;"/>
        <path d="m23.39,4.56c.16.19.32.37.47.57-.26-.47-.59-.93-1.02-1.37.14.3.33.58.55.8Z" style="fill: #974021;"/>
        <path d="m25.03,9.99c-.05-.29-.09-.63-.13-.98-.22-2.03-.53-4.81-3.79-6.56-2.35-1.26-5.61-1.94-8.73-1.82-3.44.14-6.14,1.2-7.6,3l.03.02-.03-.02c-.8.98-1.59,2.44-2.33,3.87C1.36,9.62.11,12.33.23,14.56c.09,1.78,1.22,3.34,3.26,4.52,2.02,1.17,4.76,1.85,7.91,1.97.64.03,1.34.04,2.08.04,4.43,0,10.3-.61,11.85-3.64,1.08-2.11.51-4.28.05-6.03-.13-.51-.26-1-.34-1.43Zm.22,7.43c-1.79,3.5-9.46,3.73-13.86,3.56-3.14-.13-5.86-.81-7.87-1.97-2.02-1.16-3.13-2.7-3.22-4.46-.11-2.21,1.13-4.91,2.22-7.02.74-1.42,1.53-2.88,2.32-3.85,1.45-1.79,4.13-2.84,7.55-2.98.24,0,.48-.01.72-.01,2.88,0,5.81.67,7.97,1.83,3.23,1.74,3.53,4.49,3.75,6.51.04.35.08.69.13.98.07.44.2.92.34,1.44.46,1.74,1.02,3.9-.04,5.98Z" style="fill: #37150e;"/>
      </g>
      <g>
        <path d="m16.39,3.01c-3.75.24-6.44,5.38-6.26,7.84.21,2.78,5.72,6.69,9.13,5.95,3.4-.75,3.89-3.68,3.45-7.07-.44-3.4-1.59-7.01-6.32-6.71Z" style="fill: #fdd9a5;"/>
        <path d="m16.38,2.97c-1.76.11-3.12,1.27-3.95,2.22-1.45,1.67-2.46,4.1-2.34,5.66.09,1.21,1.17,2.7,2.9,3.98,1.77,1.32,3.78,2.09,5.38,2.09.32,0,.61-.03.89-.09,2.92-.64,4.02-2.9,3.48-7.11-.43-3.3-1.53-7.05-6.36-6.75Zm2.86,13.79c-1.67.37-4.11-.41-6.22-1.98-1.71-1.27-2.78-2.74-2.87-3.93-.11-1.54.89-3.95,2.33-5.61.82-.94,2.16-2.09,3.9-2.2.18-.01.36-.02.53-.02,4.32,0,5.35,3.56,5.75,6.7.54,4.17-.55,6.4-3.43,7.03Z" style="fill: #875723;"/>
      </g>
      <g>
        <path d="m6.39,2.52c-.98.61-1.85,1.79-2.68,3.22-.94,1.62-3.63,6.75-1.65,8.13,2,1.39,6.46-.79,6.83-2.04.71-2.36.72-5.42.27-7.81-.31-.29-2.36-.97-2.77-1.51Z" style="fill: #fdd9a5;"/>
        <path d="m9.2,4.01h0c-.13-.12-.52-.3-.98-.5-.69-.31-1.55-.69-1.79-1.01l-.02-.03-.03.02c-.87.54-1.73,1.57-2.69,3.24-.64,1.11-3.74,6.72-1.64,8.18.43.3,1.01.45,1.69.45s1.39-.14,2.18-.41c1.52-.53,2.82-1.43,3.02-2.1.66-2.22.77-5.21.27-7.82h0Zm-.34,7.8h.03s-.03,0-.03,0c-.19.64-1.5,1.54-2.97,2.05-1.59.56-2.98.54-3.81-.03C.03,12.41,3.1,6.86,3.74,5.76c.95-1.64,1.79-2.65,2.64-3.19.28.33,1.12.7,1.8,1,.44.2.82.37.95.48.48,2.56.38,5.61-.27,7.78Z" style="fill: #875723;"/>
      </g>
      <g>
        <g>
          <path d="m.04.07c.11,1.29,1.41,1.82,2.34,1.68-.21.21-.92.28-1.31.19.24.5,1.27.77,2.17.58-.33.22-.71.26-.71.26,0,0,.84.45,2.07.2,1.72-.34,2.94.48,3.85.96,1.1.58,2.52,1.02,2.52,1.02C8.25,3.68,6.47,1.1,4.96.53,3.44-.03,1.68,1.16.04.07Z" style="fill: #89341c;"/>
          <g>
            <path d="m4.96.53C3.44-.03,1.68,1.16.04.07c1.23,1.31,3.34.08,4.85.64.53.2,1.17.61,1.86,1.12,0,0,0-.01.01-.02-.66-.59-1.26-1.07-1.81-1.28Z" style="fill: #a25b42;"/>
            <path d="m6.77,1.81s0,.01-.01.02c.06.05.13.09.19.14-.06-.05-.12-.11-.18-.16Z" style="fill: #a25b42;"/>
          </g>
          <path d="m.04.07c.11,1.29,1.41,1.82,2.34,1.68.09-.02.62-.16.85-.42C1.82,1.8.68,1.33.04.07Z" style="fill: #722714;"/>
          <path d="m1.07,1.94c.24.5,1.27.77,2.17.58.11-.05.54-.12.84-.44-.88.32-2.39.37-3.01-.14Z" style="fill: #722714;"/>
          <path d="m2.53,2.79s.84.45,2.07.2c1.72-.34,2.94.48,3.85.96,1.1.58,2.52,1.02,2.52,1.02-2.32-.88-3.52-2.33-5.29-2.42-.81-.04-1.99.48-3.15.23Z" style="fill: #722714;"/>
          <path d="m4.97.5c-.66-.25-1.36-.16-2.09-.08C1.94.53.98.65.06.04l-.06-.04v.08c.05.51.29.95.69,1.27.43.33,1.01.51,1.55.46-.28.13-.83.18-1.16.1l-.07-.02.03.07c.23.48,1.13.75,2,.64-.26.13-.51.16-.52.16h-.12s.1.07.1.07c0,0,.86.45,2.09.21,1.52-.3,2.63.31,3.52.79.11.06.21.12.31.17,1.09.58,2.53,1.03,2.54,1.03v-.08c-1.47-.7-2.66-1.78-3.71-2.73-.86-.78-1.61-1.46-2.3-1.72Zm3.5,3.42c-.1-.05-.2-.11-.31-.17-.7-.38-1.6-.88-2.76-.88-.26,0-.53.02-.81.08-.96.19-1.68-.04-1.94-.15.14-.03.39-.1.61-.25l.16-.1-.18.04c-.84.17-1.81-.06-2.09-.5.42.07,1.07-.01,1.27-.22l.08-.08-.11.02c-.56.09-1.2-.08-1.65-.43C.37,1,.14.6.09.14c.92.58,1.87.46,2.8.35.73-.09,1.41-.17,2.06.07.68.25,1.42.92,2.28,1.7.95.86,2.01,1.82,3.3,2.52-.51-.18-1.35-.49-2.05-.86Z" style="fill: #37150e;"/>
        </g>
        <path d="m2.39,1.79c.15-.03.3-.08.45-.15.31-.14.4-.31.4-.31-.24.18-.56.32-.86.39l.02.07Z" style="fill: #37150e;"/>
        <path d="m3.25,2.56c.14-.03.26-.07.37-.12.35-.15.46-.36.46-.36,0,0-.33.29-.84.41l.02.07Z" style="fill: #37150e;"/>
      </g>
      <g>
        <g>
          <path d="m10.97,4.98s2.33-1.39,5.68-1.61c2.81-.18,4.6,1.37,6.35,1.68,1.67.29,2.19-.4,2.19-.4,0,0-.45.06-1.22-.27.54.05,1.59-.16,1.93-.95-.29.14-.92.18-1.54-.04.81-.11,2.1-.64,2.1-2.03-1.77,1.47-5.98.68-9.25,1.16-3.68.54-5.59,1.84-6.24,2.46Z" style="fill: #89341c;"/>
          <g>
            <polygon points="19.41 2.35 19.41 2.35 19.41 2.35 19.41 2.35" style="fill: #a25b42;"/>
            <path d="m19.41,2.35c2.83.03,5.88.46,7.05-.99-1.39,1.15-4.29.91-7.05.99Z" style="fill: #a25b42;"/>
          </g>
          <path d="m23.68,3.36c.3.05.38.04.68.04.81-.11,2.1-.64,2.1-2.03-.22.98-1.58,1.86-2.78,2Z" style="fill: #722714;"/>
          <path d="m23.43,4.19c.23.16.44.19.7.2.56,0,1.46-.23,1.77-.96-.35.47-1.78.92-2.47.76Z" style="fill: #722714;"/>
          <path d="m21.32,3.89c-1.3-.53-2.48-.9-4.02-.9-1.94,0-4.68.73-6.33,1.99,0,0,2.33-1.39,5.68-1.61,2.81-.18,4.6,1.37,6.35,1.68,1.08.19,1.83-.01,2.17-.38-1.09.57-3.05-.45-3.85-.77Z" style="fill: #722714;"/>
          <path d="m26.5,1.36v-.08s-.06.05-.06.05c-1.12.93-3.25.95-5.5.96-1.26,0-2.56.02-3.73.19-4,.59-5.81,2.04-6.26,2.47l.03.07s2.37-1.4,5.68-1.62c1.79-.12,3.16.47,4.37.99.68.29,1.33.57,1.97.68,1.67.29,2.2-.39,2.22-.42l.05-.07h-.09s-.37.06-1-.18c.62-.01,1.46-.3,1.75-.98l.04-.09-.09.04c-.26.13-.82.17-1.36,0,.95-.17,1.98-.8,1.98-2.05Zm-2.15,2.07c.56.2,1.15.18,1.48.07-.38.73-1.4.88-1.85.84l-.23-.02.21.09c.57.24.96.28,1.14.28-.18.16-.78.55-2.09.32-.63-.11-1.27-.39-1.95-.68-1.11-.48-2.36-1.02-3.95-1.02-.15,0-.3,0-.46.02-2.65.17-4.68,1.09-5.41,1.46.71-.57,2.51-1.73,5.98-2.24,1.17-.17,2.47-.18,3.72-.19,2.22-.01,4.32-.03,5.48-.93-.04,1.21-1.13,1.79-2.07,1.92l-.15.02.14.05Z" style="fill: #37150e;"/>
        </g>
        <path d="m23.7,3.36s.17.08.5.08c.05,0,.11,0,.16,0v-.07c-.39.03-.66,0-.66,0Z" style="fill: #37150e;"/>
        <path d="m23.8,4.39c.06.01.12.02.17.02v-.07c-.12-.01-.36-.05-.54-.15,0,0,.1.15.37.2Z" style="fill: #37150e;"/>
      </g>
      <g>
        <path d="m17.37,4.97c-2.74-.09-3.24,5.06-2.43,6.83.66,1.43,3.4,1.79,4.2.17.97-1.98.49-6.93-1.77-7Z" style="fill: #e2b67a;"/>
        <path d="m17.37,5.81c-2.74-.08-3.24,4.54-2.43,6.12.66,1.28,3.4,1.6,4.2.15.97-1.77.49-6.21-1.77-6.28Z" style="fill: #010101;"/>
        <path d="m17.36,6.04c-2.67-.08-3.16,4.39-2.36,5.92.64,1.24,3.31,1.55,4.09.15.95-1.72.48-6.01-1.72-6.07Z" style="fill: #febe10;"/>
        <path d="m14.66,9.9c-.03.82.09,1.59.34,2.07.64,1.24,3.31,1.55,4.09.15.35-.63.5-1.61.45-2.6-1.2,2.37-4.42,1.82-4.88.38Z" style="fill: #f99e1c;"/>
        <path d="m17.36,6.01c-.76-.02-1.42.33-1.9,1.02-.98,1.39-1.07,3.85-.5,4.96.33.64,1.22,1.08,2.21,1.09.01,0,.03,0,.04,0,.87,0,1.58-.35,1.91-.94.71-1.29.59-3.84-.25-5.16-.39-.61-.91-.95-1.51-.96Zm1.69,6.09c-.31.57-1,.9-1.84.9-.01,0-.03,0-.04,0-.94-.01-1.82-.44-2.14-1.05-.56-1.09-.45-3.56.49-4.89.46-.65,1.05-.98,1.77-.98.02,0,.05,0,.07,0,.58.02,1.07.33,1.45.93.82,1.3.95,3.82.24,5.09Z" style="fill: #010101;"/>
      </g>
      <ellipse cx="17.28" cy="10.21" rx="1.85" ry="1.3" transform="translate(6.32 27.03) rotate(-87.49)" style="fill: #010101;"/>
      <path d="m16.77,7.93c-.29-.01-.54.2-.55.48-.01.28.21.51.51.52.29.01.54-.2.55-.48.01-.28-.21-.51-.51-.52Z" style="fill: #fff;"/>
      <path d="m17.68,11.27c-.13,0-.24.09-.25.22,0,.12.1.23.23.24.13,0,.24-.09.25-.22,0-.12-.1-.23-.23-.24Z" style="fill: #fff;"/>
      <g>
        <path d="m7.05,4.06c-1.56-.49-3.91,2.84-3.91,5.03,0,2.93,2.8,2.33,3.76,1.07,1.07-1.4,1.56-5.65.15-6.1Z" style="fill: #e2b67a;"/>
        <path d="m6.79,4.62c-1.38-.41-3.65,2.28-3.65,4.46,0,2.93,2.8,2.33,3.76,1.07.97-1.52,1.17-5.15-.12-5.53Z" style="fill: #010101;"/>
        <path d="m6.72,4.85c-1.34-.39-3.58,2.19-3.58,4.3,0,2.83,2.71,2.25,3.64,1.03,1.03-1.36,1.18-4.97-.06-5.34Z" style="fill: #febe10;"/>
        <path d="m3.59,7.38c-.27.58-.44,1.2-.44,1.78,0,2.83,2.71,2.25,3.64,1.03.24-.32.44-.77.58-1.27-1.16,1.29-3.73,1.03-3.77-1.54Z" style="fill: #f99e1c;"/>
        <path d="m6.73,4.82c-.42-.12-.97.04-1.53.46-1.01.76-2.09,2.38-2.09,3.88,0,1.34.59,1.82,1.09,1.99.18.06.37.09.56.09.79,0,1.63-.46,2.06-1.02.75-.98,1.06-3.22.64-4.52-.16-.48-.41-.78-.72-.87Zm.02,5.35c-.52.68-1.66,1.21-2.54.91-.47-.16-1.04-.62-1.04-1.92,0-1.48,1.06-3.07,2.06-3.82.43-.32.84-.49,1.19-.49.1,0,.19.01.28.04.29.09.52.37.67.83.42,1.28.11,3.48-.63,4.45Z" style="fill: #010101;"/>
      </g>
      <ellipse cx="5.92" cy="8.55" rx="1.7" ry="1.13" transform="translate(-4.08 11.41) rotate(-71.23)" style="fill: #010101;"/>
      <circle cx="5.49" cy="6.54" r=".46" style="fill: #fff;"/>
      <path d="m5.9,9.54c-.11,0-.2.09-.2.2s.09.2.2.2.2-.09.2-.2-.09-.2-.2-.2Z" style="fill: #fff;"/>
      <g>
        <g>
          <path d="m7.98,12.66c0,.43-.09,1.5-.32,2.55-.28,1.28-.8,2.42-.6,2.71.13.19,1.81.42,3.49-1.18,1.68-1.59,1.66-3.34,1.66-3.34l-4.23-.75Z" style="fill: #f99f25;"/>
          <path d="m11.69,13.31c.03,1.9-1.82,4.18-4.65,4.57,0,.01.01.03.02.04.13.19,1.81.42,3.49-1.18,1.68-1.59,1.66-3.34,1.66-3.34l-.52-.09Z" style="fill: #df7d26;"/>
          <path d="m7.94,12.61v.04c-.01.48-.1,1.55-.32,2.55-.11.49-.25.95-.37,1.36-.21.68-.36,1.18-.22,1.37.04.06.2.12.41.14.08,0,.16.01.24.01.77,0,1.86-.34,2.9-1.32,1.67-1.58,1.67-3.35,1.67-3.36v-.03s-4.3-.76-4.3-.76Zm2.58,4.1c-1.13,1.07-2.33,1.37-3.08,1.29-.22-.02-.34-.08-.36-.11-.11-.17.04-.67.23-1.31.12-.41.27-.88.37-1.37.21-.97.31-2.02.32-2.52l4.16.74c0,.24-.12,1.83-1.65,3.28Z" style="fill: #82411c;"/>
        </g>
        <g>
          <path d="m7.84,16.99c2.02-.44,3-2.15,3.39-2.92-.88-.47-2.54-1-2.54-1-.02,1.17-.33,3.01-.85,3.92Z" style="fill: #5f0c0c;"/>
          <path d="m9.34,14.36c0,.59.35,1.1.83,1.26.53-.57.87-1.18,1.06-1.56-.42-.23-1.02-.47-1.53-.66-.22.24-.36.58-.36.95Z" style="fill: #2b1010;"/>
          <g>
            <path d="m8.49,14.93c-.15.79-.36,1.56-.65,2.06,1.18-.26,2.01-.95,2.57-1.64-.24-.9-1.37-.89-1.92-.42Z" style="fill: #f8afb0;"/>
            <path d="m9.13,14.64c.26.05.73.18.68.66-.05.47-.8,1.21-1.63,1.6,1-.31,1.72-.93,2.22-1.55-.17-.62-.75-.81-1.28-.72Z" style="fill: #f39d9e;"/>
            <path d="m9.77,14.64c-.43-.13-.96-.02-1.31.27h0s0,.02,0,.02c-.16.88-.39,1.6-.65,2.05l-.04.07.08-.02c1-.22,1.87-.77,2.59-1.65h.01s0-.03,0-.03c-.12-.45-.43-.63-.67-.71Zm-1.86,2.3c.24-.45.46-1.16.61-1.99.33-.27.83-.37,1.23-.24.22.07.5.24.62.64-.69.83-1.51,1.37-2.46,1.59Z" style="fill: #b84f4f;"/>
          </g>
          <path d="m8.7,13.03h-.05s0,.03,0,.03c-.03,1.24-.35,3.04-.85,3.91l-.04.07.08-.02c1.44-.31,2.58-1.3,3.42-2.94l.02-.03-.03-.02c-.87-.47-2.53-1-2.55-1.01Zm-.79,3.91c.47-.89.78-2.61.82-3.82.27.09,1.67.55,2.46.97-.81,1.57-1.91,2.53-3.27,2.85Z" style="fill: #82411c;"/>
        </g>
        <g>
          <path d="m9.62,10.29c-.97-1.06-2.07-.48-2.84.57-.78,1.06-1.35,3.03-.26,4.36.13-.66,1-1.9,1.64-2.17.29.11.94.95,1.86,1.23,1.34.4,2.47-.19,2.88-1.23-1.51-.17-2.68-2.09-3.28-2.75Z" style="fill: #f99f25;"/>
          <path d="m8.27,9.85c-1.2.29-1.98,1.99-1.99,2.92.41-1.24.88-2.08,1.73-2.51.39-.2.76-.19,1.41.05-.33-.29-.62-.56-1.15-.45Z" style="fill: #fdc686;"/>
          <path d="m10.45,13.43c-.45-.27-.81-.76-1.25-.96-.95-.44-2.02.33-2.54,1.35-.07.21-.36.8-.67.31.09.39.25.76.52,1.09.13-.66,1-1.9,1.64-2.17.29.11.94.95,1.86,1.23,1.31.39,2.42-.17,2.84-1.15-.73.79-1.76.72-2.42.31Z" style="fill: #df7d26;"/>
          <path d="m10.08,10.79c-.17-.21-.31-.39-.43-.53-.37-.4-.78-.6-1.22-.57-.57.03-1.16.44-1.68,1.14-.73,1-1.41,3-.26,4.4l.05.06v-.08c.14-.63,1-1.86,1.62-2.14.09.04.23.16.39.3.36.31.84.73,1.46.92,1.28.38,2.49-.13,2.92-1.25l.02-.04h-.05c-1.19-.14-2.17-1.39-2.82-2.22Zm-.05,3.44c-.6-.18-1.08-.6-1.43-.9-.18-.16-.33-.28-.43-.32h-.01s-.01,0-.01,0c-.63.27-1.47,1.44-1.65,2.13-1.04-1.36-.37-3.32.31-4.26.5-.69,1.08-1.08,1.62-1.11.02,0,.05,0,.07,0,.39,0,.75.19,1.09.55.12.13.26.31.43.52.65.83,1.62,2.07,2.83,2.23-.43,1.05-1.58,1.53-2.81,1.16Z" style="fill: #82411c;"/>
        </g>
        <path d="m8.86,12.85c-.31-.01-.58.09-.71.15l.03.07c.21-.1.74-.29,1.21.03,0,0-.14-.23-.53-.25Z" style="fill: #82411c;"/>
      </g>
    </g>
  </g>
</svg>