<?xml version="1.0" encoding="UTF-8"?>
<svg id="uuid-9ee0b127-5e8f-4891-8405-03d00f2f94a7" data-name="Layer 2" xmlns="http://www.w3.org/2000/svg" viewBox="0 0 201.24 60.12">
  <g id="uuid-ef414aed-fe7c-4c7c-b72d-fd235e580232" data-name="Pocket">
    <g>
      <path d="m11.58,12.36c2-1.04,4.26-1.56,6.78-1.56,2.88,0,5.51.71,7.89,2.13,2.38,1.42,4.25,3.41,5.61,5.97,1.36,2.56,2.04,5.5,2.04,8.82s-.68,6.29-2.04,8.91c-1.36,2.62-3.23,4.66-5.61,6.12-2.38,1.46-5.01,2.19-7.89,2.19-2.52,0-4.76-.51-6.72-1.53-1.96-1.02-3.56-2.29-4.8-3.81v20.52H0V11.34h6.84v4.86c1.16-1.52,2.74-2.8,4.74-3.84Zm13.95,9.45c-.94-1.66-2.18-2.92-3.72-3.78-1.54-.86-3.19-1.29-4.95-1.29s-3.35.44-4.89,1.32c-1.54.88-2.78,2.16-3.72,3.84-.94,1.68-1.41,3.66-1.41,5.94s.47,4.27,1.41,5.97c.94,1.7,2.18,2.99,3.72,3.87,1.54.88,3.17,1.32,4.89,1.32s3.41-.45,4.95-1.35c1.54-.9,2.78-2.21,3.72-3.93.94-1.72,1.41-3.72,1.41-6s-.47-4.25-1.41-5.91Z" style="fill: #fff;"/>
      <path d="m46.56,42.81c-2.52-1.42-4.5-3.42-5.94-6s-2.16-5.57-2.16-8.97.74-6.34,2.22-8.94c1.48-2.6,3.5-4.6,6.06-6,2.56-1.4,5.42-2.1,8.58-2.1s6.02.7,8.58,2.1c2.56,1.4,4.58,3.4,6.06,6,1.48,2.6,2.22,5.58,2.22,8.94s-.76,6.34-2.28,8.94c-1.52,2.6-3.59,4.61-6.21,6.03-2.62,1.42-5.51,2.13-8.67,2.13s-5.94-.71-8.46-2.13Zm13.41-5.07c1.54-.84,2.79-2.1,3.75-3.78s1.44-3.72,1.44-6.12-.46-4.43-1.38-6.09c-.92-1.66-2.14-2.91-3.66-3.75-1.52-.84-3.16-1.26-4.92-1.26s-3.39.42-4.89,1.26c-1.5.84-2.69,2.09-3.57,3.75-.88,1.66-1.32,3.69-1.32,6.09,0,3.56.91,6.31,2.73,8.25,1.82,1.94,4.11,2.91,6.87,2.91,1.76,0,3.41-.42,4.95-1.26Z" style="fill: #fff;"/>
      <path d="m78.75,18.87c1.38-2.58,3.29-4.57,5.73-5.97,2.44-1.4,5.24-2.1,8.4-2.1,4,0,7.31.95,9.93,2.85,2.62,1.9,4.39,4.61,5.31,8.13h-7.38c-.6-1.64-1.56-2.92-2.88-3.84-1.32-.92-2.98-1.38-4.98-1.38-2.8,0-5.03.99-6.69,2.97-1.66,1.98-2.49,4.75-2.49,8.31s.83,6.34,2.49,8.34c1.66,2,3.89,3,6.69,3,3.96,0,6.58-1.74,7.86-5.22h7.38c-.96,3.36-2.76,6.03-5.4,8.01-2.64,1.98-5.92,2.97-9.84,2.97-3.16,0-5.96-.71-8.4-2.13-2.44-1.42-4.35-3.42-5.73-6s-2.07-5.57-2.07-8.97.69-6.39,2.07-8.97Z" style="fill: #fff;"/>
      <path d="m128.04,27.9l15.24,16.5h-9.24l-12.24-14.22v14.22h-6.84V0h6.84v25.8l12-14.46h9.48l-15.24,16.56Z" style="fill: #fff;"/>
      <path d="m178.26,30.42h-25.26c.2,2.64,1.18,4.76,2.94,6.36,1.76,1.6,3.92,2.4,6.48,2.4,3.68,0,6.28-1.54,7.8-4.62h7.38c-1,3.04-2.81,5.53-5.43,7.47-2.62,1.94-5.87,2.91-9.75,2.91-3.16,0-5.99-.71-8.49-2.13-2.5-1.42-4.46-3.42-5.88-6-1.42-2.58-2.13-5.57-2.13-8.97s.69-6.39,2.07-8.97c1.38-2.58,3.32-4.57,5.82-5.97,2.5-1.4,5.37-2.1,8.61-2.1s5.9.68,8.34,2.04c2.44,1.36,4.34,3.27,5.7,5.73,1.36,2.46,2.04,5.29,2.04,8.49,0,1.24-.08,2.36-.24,3.36Zm-6.9-5.52c-.04-2.52-.94-4.54-2.7-6.06-1.76-1.52-3.94-2.28-6.54-2.28-2.36,0-4.38.75-6.06,2.25-1.68,1.5-2.68,3.53-3,6.09h18.3Z" style="fill: #fff;"/>
      <path d="m193.2,16.92v18.3c0,1.24.29,2.13.87,2.67.58.54,1.57.81,2.97.81h4.2v5.7h-5.4c-3.08,0-5.44-.72-7.08-2.16-1.64-1.44-2.46-3.78-2.46-7.02v-18.3h-3.9v-5.58h3.9V3.12h6.9v8.22h8.04v5.58h-8.04Z" style="fill: #fff;"/>
    </g>
  </g>
</svg>