<?xml version="1.0" encoding="UTF-8"?>
<svg id="uuid-7231e7ae-1f72-4478-9a9a-de799b226eb2" data-name="Layer 1" xmlns="http://www.w3.org/2000/svg" viewBox="0 0 359.17 75.45">
  <g>
    <path d="m18,14.85c2.2-1.2,4.77-1.8,7.73-1.8,3.45,0,6.57.88,9.38,2.62,2.8,1.75,5.01,4.25,6.64,7.5,1.62,3.25,2.44,7.03,2.44,11.33s-.81,8.09-2.44,11.36c-1.63,3.28-3.84,5.8-6.64,7.58-2.8,1.78-5.92,2.66-9.38,2.66-2.9,0-5.46-.6-7.69-1.8-2.23-1.2-3.96-2.75-5.21-4.65v25.8H0V13.65h12.83v5.92c1.25-1.95,2.97-3.53,5.17-4.73Zm10.46,12.11c-1.78-1.83-3.96-2.74-6.56-2.74s-4.71.93-6.49,2.78c-1.78,1.85-2.66,4.38-2.66,7.58s.89,5.73,2.66,7.58c1.77,1.85,3.94,2.77,6.49,2.77s4.73-.94,6.53-2.81c1.8-1.88,2.7-4.41,2.7-7.61s-.89-5.71-2.66-7.54Z" style="fill: #2b602f;"/>
    <path d="m58.91,53.48c-3.28-1.75-5.85-4.25-7.73-7.5-1.88-3.25-2.81-7.05-2.81-11.4s.95-8.09,2.85-11.36c1.9-3.27,4.5-5.79,7.8-7.54,3.3-1.75,7-2.62,11.1-2.62s7.8.88,11.1,2.62c3.3,1.75,5.9,4.26,7.8,7.54,1.9,3.28,2.85,7.06,2.85,11.36s-.96,8.09-2.89,11.36c-1.93,3.28-4.55,5.79-7.88,7.54-3.33,1.75-7.04,2.62-11.14,2.62s-7.79-.87-11.06-2.62Zm17.33-11.17c1.72-1.8,2.59-4.37,2.59-7.72s-.84-5.93-2.51-7.73c-1.68-1.8-3.74-2.7-6.19-2.7s-4.58.89-6.23,2.66c-1.65,1.78-2.48,4.36-2.48,7.76s.81,5.92,2.44,7.72c1.62,1.8,3.66,2.7,6.11,2.7s4.54-.9,6.26-2.7Z" style="fill: #2b602f;"/>
    <path d="m98.81,23.17c1.77-3.25,4.25-5.75,7.42-7.5,3.17-1.75,6.81-2.62,10.91-2.62,5.25,0,9.64,1.38,13.16,4.12,3.52,2.75,5.84,6.63,6.94,11.63h-13.65c-1.15-3.2-3.38-4.8-6.67-4.8-2.35,0-4.23.91-5.62,2.74-1.4,1.83-2.1,4.44-2.1,7.84s.7,6.01,2.1,7.84c1.4,1.83,3.27,2.74,5.62,2.74,3.3,0,5.52-1.6,6.67-4.8h13.65c-1.1,4.9-3.43,8.75-6.98,11.55-3.55,2.8-7.92,4.2-13.12,4.2-4.1,0-7.74-.87-10.91-2.62-3.18-1.75-5.65-4.25-7.42-7.5-1.78-3.25-2.66-7.05-2.66-11.4s.89-8.15,2.66-11.4Z" style="fill: #2b602f;"/>
    <path d="m169.65,55.5l-12.75-17.55v17.55h-12.82V0h12.82v30.68l12.68-17.02h15.82l-17.4,21,17.55,20.85h-15.9Z" style="fill: #2b602f;"/>
    <path d="m229.65,37.65h-29.03c.2,2.6,1.04,4.59,2.51,5.96,1.47,1.38,3.29,2.06,5.44,2.06,3.2,0,5.42-1.35,6.67-4.05h13.65c-.7,2.75-1.96,5.23-3.79,7.42-1.83,2.2-4.11,3.93-6.86,5.17-2.75,1.25-5.83,1.88-9.22,1.88-4.1,0-7.75-.87-10.95-2.62-3.2-1.75-5.7-4.25-7.5-7.5-1.8-3.25-2.7-7.05-2.7-11.4s.89-8.15,2.66-11.4c1.77-3.25,4.26-5.75,7.46-7.5,3.2-1.75,6.88-2.62,11.03-2.62s7.65.85,10.8,2.55c3.15,1.7,5.61,4.12,7.39,7.28,1.77,3.15,2.66,6.83,2.66,11.03,0,1.2-.07,2.45-.22,3.75Zm-12.9-7.12c0-2.2-.75-3.95-2.25-5.25-1.5-1.3-3.38-1.95-5.62-1.95s-3.96.63-5.44,1.88c-1.47,1.25-2.39,3.03-2.74,5.33h16.05Z" style="fill: #2b602f;"/>
    <path d="m259.95,44.63v10.88h-6.52c-4.65,0-8.28-1.14-10.88-3.41-2.6-2.28-3.9-5.99-3.9-11.14v-16.65h-5.1v-10.65h5.1V3.45h12.83v10.2h8.4v10.65h-8.4v16.8c0,1.25.3,2.15.9,2.7.6.55,1.6.83,3,.83h4.57Z" style="fill: #2b602f;"/>
  </g>
  <g>
    <path d="m306.6,30.26c-1.55,2.73-3.84,4.89-6.86,6.49-3.03,1.6-6.69,2.4-10.99,2.4h-6.6v16.88h-16.65V2.93h23.25c6.5,0,11.49,1.65,14.96,4.95,3.47,3.3,5.21,7.73,5.21,13.27,0,3.35-.78,6.39-2.33,9.11Zm-14.55-9.11c0-3.25-1.72-4.88-5.17-4.88h-4.72v9.75h4.72c3.45,0,5.17-1.62,5.17-4.88Z" style="fill: #4e8f41;"/>
    <path d="m340.87,56.03l-9.98-19.05h-.07v19.05h-16.65V2.93h24.75c4.3,0,7.97.76,11.03,2.29,3.05,1.53,5.34,3.6,6.86,6.23,1.52,2.62,2.29,5.59,2.29,8.89,0,3.55-.99,6.7-2.96,9.45-1.98,2.75-4.81,4.72-8.51,5.92l11.55,20.33h-18.3Zm-10.05-30.15h6.6c1.6,0,2.8-.36,3.6-1.09.8-.72,1.2-1.86,1.2-3.41,0-1.4-.41-2.5-1.24-3.3-.83-.8-2.01-1.2-3.56-1.2h-6.6v9Z" style="fill: #4e8f41;"/>
  </g>
</svg>