<?xml version="1.0" encoding="UTF-8"?>
<svg id="uuid-632a10f2-f02a-466b-8dec-f29e9a6dac56" data-name="Layer 2" xmlns="http://www.w3.org/2000/svg" viewBox="0 0 106.25 106.25">
  <g id="uuid-182253ce-4679-44ab-adca-a6c408e91d92" data-name="Layer 1">
    <g>
      <path d="m48.62,51.12c5.2-5.43,7.8-10.52,7.8-15.25,0-1.6-.35-2.83-1.05-3.7-.7-.87-1.62-1.3-2.75-1.3-1.33,0-2.38.68-3.15,2.05-.77,1.37-1.05,3.45-.85,6.25h-21.5c.2-6.2,1.55-11.3,4.05-15.3s5.75-6.93,9.75-8.8c4-1.87,8.4-2.8,13.2-2.8,8.53,0,14.78,2.05,18.75,6.15,3.97,4.1,5.95,9.35,5.95,15.75,0,6.73-2.15,13.05-6.45,18.95-4.3,5.9-9.69,10.88-16.15,14.95h22.9v17.9H27.42v-16.7c8.93-6.67,16-12.72,21.2-18.15Z" style="fill: #fff;"/>
      <path d="m53.12,106.25C23.83,106.25,0,82.42,0,53.12S23.83,0,53.12,0s53.12,23.83,53.12,53.12-23.83,53.12-53.12,53.12Zm0-96.25c-23.78,0-43.12,19.35-43.12,43.12s19.35,43.12,43.12,43.12,43.12-19.35,43.12-43.12S76.9,10,53.12,10Z" style="fill: #fff;"/>
    </g>
  </g>
</svg>