<?xml version="1.0" encoding="UTF-8"?>
<svg id="uuid-00a77a32-ff10-44d6-8aa3-7e846dd38fec" data-name="Layer 2" xmlns="http://www.w3.org/2000/svg" viewBox="0 0 106.25 106.25">
  <g id="uuid-9ee89fdd-2e01-4c83-a033-f6e8a019b249" data-name="Layer 1">
    <g>
      <path d="m34.52,21.73c4.43-4.2,10.72-6.3,18.85-6.3,5.27,0,9.77.9,13.5,2.7,3.73,1.8,6.55,4.23,8.45,7.3,1.9,3.07,2.85,6.53,2.85,10.4,0,4.67-1.1,8.32-3.3,10.95-2.2,2.63-4.67,4.42-7.4,5.35v.4c8,3,12,8.57,12,16.7,0,4.27-1,8.03-3,11.3-2,3.27-4.85,5.8-8.55,7.6-3.7,1.8-8.08,2.7-13.15,2.7-8.67,0-15.47-2.07-20.4-6.2-4.93-4.13-7.47-10.6-7.6-19.4h21.6c-.13,2.4.22,4.22,1.05,5.45.83,1.23,2.28,1.85,4.35,1.85,1.2,0,2.2-.45,3-1.35.8-.9,1.2-2.08,1.2-3.55,0-1.87-.62-3.28-1.85-4.25-1.23-.97-3.32-1.45-6.25-1.45h-3.7v-17.9h3.6c4.53.27,6.8-1.53,6.8-5.4,0-1.67-.35-2.9-1.05-3.7-.7-.8-1.58-1.2-2.65-1.2-2.47,0-3.7,2.07-3.7,6.2h-21.6c.2-7.93,2.52-14,6.95-18.2Z" style="fill: #fff;"/>
      <path d="m53.12,106.25C23.83,106.25,0,82.42,0,53.12S23.83,0,53.12,0s53.12,23.83,53.12,53.12-23.83,53.12-53.12,53.12Zm0-96.25c-23.78,0-43.12,19.35-43.12,43.12s19.35,43.12,43.12,43.12,43.12-19.35,43.12-43.12S76.9,10,53.12,10Z" style="fill: #fff;"/>
    </g>
  </g>
</svg>