<?xml version="1.0" encoding="UTF-8"?>
<svg id="uuid-b42e44ef-cbfa-49cd-ac89-f7607003b615" data-name="Layer 1" xmlns="http://www.w3.org/2000/svg" viewBox="0 0 237.32 457.07">
  <path d="m147.65,127.58c-2.1,1.9-10.72,9.27-22.56,8.35-3.89-.3-7.1-1.42-9.48-2.54-1.01,1.12-5.57,5.91-13.2,6.62-7.88.73-13.37-3.41-14.51-4.31-3.46,1.19-8.15,2.31-13.72,2.25-14.66-.17-24.89-8.4-28.27-11.39-4.2.21-8.18-1.38-9.84-4.33-2.47-4.4.03-12.1,7.5-15.34.25-3.45,1.16-8.66,4.5-13.61,7.87-11.69,23.22-13.01,29.88-13.58,36.03-3.09,68.02,45.29,69.7,47.89Z" style="fill: #3b5d2c;"/>
  <path d="m131.93,219.39c1.74.47,8.09-18.29,10.36-24.53,7.6-20.93,23.45-50.4,59.97-86.68-2.91-.18-5.81-.36-8.72-.55-7.77,7.65-15.96,16.68-23.99,27.26-17.65,23.24-28.56,46.04-35.43,64.33-1.73,9.22-3.46,19.83-2.18,20.17Z" style="fill: #885645;"/>
  <path d="m147.65,457.07h-40.89c.56-8.57.88-19.72.36-32.71-.13-2.81-.23-5.3-.33-7.59-.46-8.67-1.05-13.9-2.94-18.58-6.12-14.98-17.37-17.66-32.71-32.71-6.77-6.64-15.73-17.01-23.71-32.71,4.09,1.37,8.18,2.71,12.27,4.09,2.22,4.45,6.05,11.12,12.27,17.99,5.59,6.18,20.48,22.63,32.71,18.81,7.46-2.32,10.79-11.19,13.08-17.17,7.07-18.61,2.91-36.31,2.45-38.43-4.25-19-1.64-73.79,20.44-211.79,4.64-.56,9.26-1.08,13.9-1.64-9.09,35.68-13.8,66.69-16.35,90.77-5.63,52.86-8.67,81.44-.82,114.48,1.83,7.72,5.33,20.18,6.54,38.43.46,6.87.46,12.72.23,18.05-.46,11.28-2.03,20.18-2.68,31.01-.85,14.42-.33,34.61,6.18,59.69Z" style="fill: #885645;"/>
  <path d="m112.75,330.92c0,4.12-1.21,7.78-3.57,10.43-.98,1.11-3.66,3.66-9.03,4.51-1.34,1.54-3.47,3.5-6.54,4.91-8.24,3.79-16.42.29-17.99-.39-2.03,1.24-11.55,6.87-22.47,3.66-3.76-1.11-6.61-2.91-8.6-4.51-7.46,3.73-15.9,3.3-21.65-1.21-3.99-3.14-5.53-7.33-6.15-9.39C7.2,338.05.17,330.59,0,322.58c-.13-5.89,3.43-11.55,8.99-14.72-.1-1.28-.2-3.86.29-7.07.52-3.47,1.8-7.65,4.61-11.77,7.49-10.99,19.82-12.46,21.69-12.66,7.16-11.32,19.63-16.98,30.65-14.29,8.99,2.16,14.03,9.16,15.54,11.45.88.2,21.52,5.46,26.56,23.68,2.29,8.21.39,15.34-.79,18.84,3.47,4.87,5.17,10.17,5.2,14.88Z" style="fill: #51813b;"/>
  <path d="m112.75,330.92c0,4.12-1.21,7.78-3.57,10.43-.98,1.11-3.66,3.66-9.03,4.51-1.34,1.54-3.47,3.5-6.54,4.91-8.24,3.79-16.42.29-17.99-.39-2.03,1.24-11.55,6.87-22.47,3.66-3.76-1.11-6.61-2.91-8.6-4.51-7.46,3.73-15.9,3.3-21.65-1.21-3.99-3.14-5.53-7.33-6.15-9.39C7.2,338.05.17,330.59,0,322.58c-.13-5.89,3.43-11.55,8.99-14.72-.1-1.28-.2-3.86.29-7.07,6.87,6.02,18.45,13.57,32.41,12.36,2.94-.26,6.41-.92,10.24-2.45-.36,1.08-2.06,6.15-7.39,8.99-4.09,2.19-8.01,1.83-9.39,1.64,8.14,17.76,20.7,26.4,28.23,23.71,1.14-.43,5.23-2.16,7.75-10.63.69.2,4.42,1.28,8.18-.82,4.64-2.58,5.27-7.69,5.33-8.18,5.66,6.61,13.93,9.81,21.65,8.18,2.55-.56,4.71-1.57,6.44-2.68Z" style="fill: #487135;"/>
  <path d="m136.83,160.52c-4.35-5.32-9.4-10.85-15.26-16.35-17.9-16.81-36.54-27-51.24-33.25,3.82-.36,7.63-.73,11.45-1.09,7.91,4.13,16.34,8.99,25.08,14.72,12.23,8.03,22.74,16.24,31.62,23.99-.55,4-1.09,8-1.64,11.99Z" style="fill: #885645;"/>
  <path d="m129.75,291.35c2.07-3.87,4.58-7.92,7.63-11.99,13.09-17.47,29.66-26.76,40.89-31.62-1.64-1.45-3.27-2.91-4.91-4.36-6.38,2.98-13.39,6.72-20.72,11.45-10.72,6.92-19.37,14.19-26.17,20.72,1.09,5.27,2.18,10.54,3.27,15.81Z" style="fill: #885645;"/>
  <path d="m211.69,246.4c0,2.55-.75,4.84-2.22,6.51-.62.69-2.29,2.26-5.63,2.81-.82.95-2.16,2.16-4.06,3.04-5.14,2.36-10.24.2-11.22-.23-1.28.75-7.2,4.25-14,2.26-2.36-.69-4.12-1.8-5.36-2.81-4.64,2.32-9.88,2.06-13.48-.75-2.49-1.93-3.43-4.55-3.83-5.82-5.95-.56-10.34-5.2-10.43-10.2,0-.26,0-.56.03-.82.2-3.37,2.36-6.51,5.56-8.34-.07-.79-.1-2.42.2-4.42.33-2.16,1.11-4.74,2.88-7.33,4.64-6.84,12.33-7.75,13.51-7.88,4.45-7.07,12.2-10.56,19.07-8.9,5.63,1.34,8.73,5.69,9.68,7.13.56.13,12.79,3.24,16.26,13.93.13.26.23.56.29.82,1.44,5.1.23,9.55-.49,11.74,2.16,3.01,3.21,6.31,3.24,9.26Z" style="fill: #51813b;"/>
  <path d="m211.69,246.4c0,2.55-.75,4.84-2.22,6.51-.62.69-2.29,2.26-5.63,2.81-.82.95-2.16,2.16-4.06,3.04-5.14,2.36-10.24.2-11.22-.23-1.28.75-7.2,4.25-14,2.26-2.36-.69-4.12-1.8-5.36-2.81-4.64,2.32-9.88,2.06-13.48-.75-2.49-1.93-3.43-4.55-3.83-5.82-5.95-.56-10.34-5.2-10.43-10.2,0-.26,0-.56.03-.82,1.47,1.67,3.3,3.96,5.95,4.09,2.32.1,4.25-1.5,5.46-2.71.29.29,5.92,5.89,12.82,4.09,3.07-.82,5.07-2.78,5.99-3.83,1.05.49,4.91,2.13,9.55.82,3.5-.98,5.66-3.11,6.54-4.09,5.72-.56,13.8-2.29,18.25-8.44,1.34-1.9,2.13-3.83,2.58-5.72.13.26.23.56.29.82,1.44,5.1.23,9.55-.49,11.74,2.16,3.01,3.21,6.31,3.24,9.26Z" style="fill: #487135;"/>
  <path d="m106.76,457.07c.56-8.57.88-19.72.36-32.71-.13-2.81-.23-5.3-.33-7.59,4.48-1.44,8.5-4.02,11.51-7.69,8.7-10.6,4.06-24.37,3.79-25.05,4.68-2.32,10.86-6.08,16.91-12,1.93-1.86,3.63-3.76,5.14-5.66-.46,11.28-2.03,20.18-2.68,31.01-.85,14.42-.33,34.61,6.18,59.69h-40.89Z" style="fill: #734232;"/>
  <path d="m236.45,100.81c-.03.2-.1.39-.13.56-.92,3.79-2.91,12.27-10.63,15.54-6.38,2.68-12.59.16-14.16-.56-1.6,2.94-4.15,6.48-8.18,9.29-13.64,9.52-31.3,1.73-32.71,1.08-2.85,2.22-6.84,4.71-12,5.99-17.24,4.35-31.92-8.14-33.79-9.81-3.7,2.71-8.8,5.59-15.27,7.1-21.98,5.1-40.36-10.2-43.08-12.53-4.48-.33-10.4-1.28-16.88-3.83-12.07-4.71-19.66-12.43-23.45-16.91-2.52.46-10.92,1.67-14.72-2.71-1.54-1.8-2.29-4.45-2.09-7.69.33-6.48,4.42-15.08,12.99-22.83.43-3.27,1.77-10.24,7.1-16.91,7.75-9.71,18.45-11.81,21.26-12.27,2.81-11.51,9.35-20.28,16.94-24.92,4.51-2.78,9.42-4.12,14.13-3.7,8.11.72,13.87,6.38,16.35,9.26,1.57-1.34,7.2-5.89,15.54-5.99,5.89-.07,10.27,2.13,12.27,3.27,10.7-11.94,28-15.57,42.52-8.99,14.72,6.67,23.42,22.34,21.26,38.43,3.01-.72,10.5-2.06,17.99,1.64,10.24,5.07,16.22,17.47,14.72,31.07,2.16.59,7.2,2.29,10.89,7.1,1.08,1.37,1.86,2.81,2.45,4.25,2.55,6.08,1.34,12.3.69,15.08Z" style="fill: #51813b;"/>
  <path d="m236.45,100.81c-.03.2-.1.39-.13.56-.92,3.79-2.91,12.27-10.63,15.54-6.38,2.68-12.59.16-14.16-.56-1.6,2.94-4.15,6.48-8.18,9.29-13.64,9.52-31.3,1.73-32.71,1.08-2.85,2.22-6.84,4.71-12,5.99-17.24,4.35-31.92-8.14-33.79-9.81-3.7,2.71-8.8,5.59-15.27,7.1-21.98,5.1-40.36-10.2-43.08-12.53-4.48-.33-10.4-1.28-16.88-3.83-12.07-4.71-19.66-12.43-23.45-16.91-2.52.46-10.92,1.67-14.72-2.71-1.54-1.8-2.29-4.45-2.09-7.69,2.68,1.41,5.82,2.49,9.45,2.78,6.57.49,12.27-1.8,16.35-4.09,7.23,7.41,17.61,9.98,26.17,6.54,7.81-3.14,11.22-10.11,12.07-12.01,1.58.86,7.05,3.57,14.02,2.19,8.97-1.77,13.34-8.92,14.02-10.08-.75-2.3-1.47-5.26-1.75-8.76-.39-4.87.21-8.96.88-11.83,0,2.55.26,13.48,8.76,22.79,7.58,8.29,16.93,10.09,19.72,10.52-1.29,1.45-3.44,4.25-4.38,8.33-.59,2.55-1.93,8.32,1.75,12.27,2.76,2.96,7.38,3.88,11.83,2.63-.11,2.39-.06,8.49,4.03,12.59,5.94,5.97,18.55,5.86,28.89-2.73,3.32-.69,12.97-3.16,19.63-11.99,2.42-3.22,3.81-6.43,4.63-8.99,4.27,2.71,14.86,8.58,28.62,7.36,4.78-.43,8.93-1.6,12.4-3.01Z" style="fill: #487135;"/>
  <path d="m235.77,85.73c-3.73,2.62-8.64,4.87-14.42,5-11.91.23-23.58-8.73-30.55-22.9-.69,6.38-2.32,10.01-4.91,10.89-6.44,2.22-18.81-12.66-37.06-44.68-2.91,1.41-7.49,3.07-13.08,2.71-15.93-1.05-24.07-17.6-24.53-18.55-2.26.72-5,1.34-8.18,1.64-13.15,1.24-27.34-3.99-35.39-10.47,4.51-2.78,9.42-4.12,14.13-3.7,8.11.72,13.87,6.38,16.35,9.26,1.57-1.34,7.2-5.89,15.54-5.99,5.89-.07,10.27,2.13,12.27,3.27,10.7-11.94,28-15.57,42.52-8.99,14.72,6.67,23.42,22.34,21.26,38.43,3.01-.72,10.5-2.06,17.99,1.64,10.24,5.07,16.22,17.47,14.72,31.07,2.16.59,7.2,2.29,10.89,7.1,1.08,1.37,1.86,2.81,2.45,4.25Z" style="fill: #5f903e;"/>
</svg>