<?xml version="1.0" encoding="UTF-8"?>
<svg id="uuid-9d8ea966-beaf-4848-adf8-55817883af9e" data-name="Layer 1" xmlns="http://www.w3.org/2000/svg" viewBox="0 0 228.18 447.12">
  <path d="m106.24,186.66c-5.63,5.81-14.06,13.16-25.73,18.95-17.72,8.8-34.27,9.72-34.17,13.26.04,1.31,2.35,3.04,12.32,4.9-3.28,2.32-8.33,5.71-14.78,9.3C19.21,246.82-.36,249.32,0,252.61c.15,1.38,3.8,2.97,20.52,3.56-.48,1-2.04,4.41-.65,6.55,1.83,2.81,8.47,3.02,16.13-1.1,1.46,4.44,3.54,6.05,5.01,6.72,6.86,3.14,19.37-5.37,30.8-21.97.12,3.71.23,7.41.35,11.12,3.94-3.14,7.91-6.56,11.87-10.3,20.85-19.66,34.28-41.22,43.04-59.68-6.94-.28-13.88-.57-20.83-.85Z" style="fill: #3b5d2c;"/>
  <path d="m114.81,322.32c5.63,5.81,14.06,13.16,25.73,18.95,17.72,8.8,34.27,9.72,34.17,13.26-.04,1.31-2.35,3.04-12.32,4.9,3.28,2.32,8.33,5.71,14.78,9.3,24.67,13.75,44.24,16.25,43.88,19.54-.15,1.38-3.8,2.97-20.52,3.56.48,1,2.04,4.41.65,6.55-1.83,2.82-8.47,3.02-16.13-1.1-1.46,4.44-3.54,6.05-5.01,6.72-6.86,3.14-19.37-5.37-30.8-21.97-.12,3.71-.23,7.41-.35,11.12-3.94-3.14-7.91-6.57-11.87-10.3-20.85-19.66-34.28-41.22-43.04-59.68,6.94-.28,13.88-.57,20.83-.85Z" style="fill: #3b5d2c;"/>
  <path d="m106.87,317.44c-4.57,4.71-11.4,10.67-20.86,15.36-14.36,7.14-27.78,7.88-27.7,10.75.03,1.06,1.91,2.46,9.99,3.97-2.66,1.88-6.76,4.63-11.99,7.54-20,11.15-35.87,13.18-35.57,15.84.12,1.12,3.08,2.41,16.64,2.89-.39.81-1.66,3.57-.53,5.31,1.48,2.28,6.87,2.45,13.07-.9,1.19,3.6,2.87,4.91,4.06,5.45,5.56,2.55,15.7-4.35,24.97-17.81.09,3,.19,6.01.28,9.01,3.19-2.55,6.41-5.32,9.62-8.35,16.91-15.94,27.79-33.42,34.89-48.39-5.63-.23-11.26-.46-16.89-.69Z" style="fill: #3b5d2c;"/>
  <path d="m116.65,302.18c-1.1,5.09-3.59,13.32-9.88,21.28-5.69,7.2-14.43,14.1-16.21,12.66-.61-.5-.58-2.13,1.52-6.59-1.63.47-3.98,1.12-6.84,1.77-11,2.51-24.64,4.01-25.08,2.28-.15-.61,1.29-1.88,8.61-4.81-1.76.1-4.2.16-7.09,0-7.52-.42-17.23-2.3-17.22-4.05,0-1.84,10.7-3.01,17.48-4.05,13.36-2.05,32.01-6.76,54.71-18.49Z" style="fill: #487135;"/>
  <path d="m114.62,31.15c.5,2.69,1.52,6.54,3.8,10.64,6.03,10.81,16.31,15.06,15.45,16.97-.33.73-2.28,1.08-9.62-.76,1.01,2.3,1.26,3.65.76,4.05-.9.72-4.19-1.56-9.88-6.84.02,3.27-.9,3.89-1.27,4.05-2.31,1.02-7.06-5.67-7.35-6.08-1.35.87-3.4,2-6.08,2.79-4.37,1.28-10.12,1.53-10.64,0-.18-.55.22-1.55,3.04-3.55-2.83.19-4.44-.14-4.81-1.01-1.07-2.47,7.8-9.22,26.6-20.26Z" style="fill: #487135;"/>
  <path d="m111.07,73.96c-.95-6.1-1.68-12.7-2.03-19.76-.94-19.05,1.17-35.73,4.05-49.14-1.86.68-3.72,1.35-5.57,2.03-1.33,8.5-2.39,17.64-3.04,27.36-1.31,19.77-.61,37.67,1.01,53.19,1.86-4.56,3.72-9.12,5.57-13.68Z" style="fill: #734232;"/>
  <path d="m120.91,447.12h-22.8c2.29-29.65,4.09-60.12,5.32-91.38,2.83-71.98,2.32-140.36-.56-204.68,5.45,1.01,10.89,2.03,16.34,3.04-1.84,57.56-2.47,117.29-1.59,179.05.55,38.85,1.67,76.85,3.29,113.96Z" style="fill: #734232;"/>
  <path d="m185.5,179.64c18.88,8.72,19.27,11.91,19,12.92-.76,2.74-10.52,2.52-22.8,2.28-9.64-.21-17.51-.94-22.8-1.52,12.67,6.87,14.92,9.91,14.44,11.4-1.15,3.59-19.39.94-36.47-1.52-9.85-1.43-18.42-2.98-25.41-4.41-2.98-.58-5.65-1.16-8.02-1.67-3.13,2.22-6.26,3.95-9.27,5.23-4.16,1.79-8.09,2.74-11.55,2.92-4.98.27-8.97-1.03-11.09-3.59-.73-.88-3.07-4.07-1.52-11.4-28.15,8.12-43.34,9.91-45.59,5.32-.33-.67-.4-1.43-.18-2.37.55-2.49,3.16-6.05,7.78-10.55-17.81,2.92-22.19,1.7-22.8,0-1.76-5.05,28.63-15.53,57.75-42.55,6.9-6.41,12.71-12.8,17.48-18.66,4.74-5.81,8.51-11.12,11.4-15.53-19.91,6.32-30.55,8.09-31.91,5.32-1.03-2.07,3.04-6.63,12.16-13.68-17.72,1.7-21.82,1.03-22.04,0-.24-1.31,5.74-2.71,13.74-6.44,6.2-2.9,10.27-5.91,14.38-8.75,5.99-4.14,13.7-10.15,21.83-18.55,7.26,3.52,14.99,7.65,23.01,12.47,9.68,5.82,18.28,11.76,25.84,17.48l-15.96,2.28c19.82,10.7,23.46,14.89,22.8,16.72-.97,2.67-12.04,1.52-19.76-.76-8.94-2.67-15.29-7.39-19-10.64,20.97,35.81,43.34,52.37,60.79,60.79,9.18,4.44,25.17,10.55,24.32,14.44-.67,3.01-11.19,3.31-20.52,3.04Z" style="fill: #51813b;"/>
  <path d="m101.15,112c-4.79,2.84-12.09,6.97-21.28,11.4-30.94,14.92-54.44,19.27-53.95,22.04.2,1.11,4.28,2.03,22.8.76-7.31,3.67-15.91,8.46-15.2,10.64.91,2.8,17.15,1.36,29.64-3.8,7.15-2.95,25.21-12.14,37.99-41.03Z" style="fill: #51813b;"/>
  <path d="m163.86,185.02c-.4,1.95-7.96,2.16-12.95,2.31-3.77.09-6.9-.15-9.12-.4,6.78,4.89,7.66,6.99,7.23,7.99-.97,2.31-9.94,1.06-22.8-.79-4.01-.55-7.33-1.12-9.48-1.52-1.67,2.4-3.47,4.47-5.29,6.17-5.29,4.94-13.51,7.13-14.86,5.26-.64-.89-.08-3.17,5.32-9.32-13.09,10.23-25.85,11.84-30.4,6.95-.66-.71-3.15-3.72-1.52-11.4-28.15,8.12-43.34,9.91-45.59,5.32-.33-.67-.4-1.43-.18-2.37,22.4,2.64,35.29-2.19,43.1-7.81,3.56-2.55,12.34-9.76,13.31-8.72.85.85-5.02,6.87-3.8,8.33,1.4,1.7,10.85-3.86,13.28-5.29,4.19-2.46,7.39-4.83,9.51-6.47-3.16,6.26-3.1,8.39-2.28,9.12,1.88,1.67,9.06-3.19,12.92-6.47,4.71-3.98,7.69-8.27,9.51-11.37,1.58,5.32,5.84,7.72,8.33,6.81,2.37-.85,3.01-4.56,3.04-4.92,2.13,1.34,5.41,3.4,9.51,5.71,14.77,8.3,23.62,10.76,23.19,12.89Z" style="fill: #487135;"/>
  <path d="m132.69,121.59c3.28,1.97,8.18,4.96,14.06,8.74,18.05,11.59,18.48,13.31,18.24,14.06-.4,1.23-3.49,2.53-20.14,0,3.36,3.43,4.75,5.58,4.18,6.46-.98,1.52-7.82-.76-20.52-6.84-2.03,4.18-4.47,5.08-5.32,5.32-5.06,1.43-12.63-3.91-16.72-14.44,2.58,5.31,7.74,8.33,12.54,7.6,3.75-.57,6.09-3.24,6.84-4.18,1.13.66,7.03,4,9.88,1.9,2.92-2.15,2.36-9.83-3.04-18.62Z" style="fill: #487135;"/>
  <path d="m117.47,92.32c-2.43,6.05-7.36,15.26-17.08,22.07-4.95,3.46-10.36,5.78-15.96,7.08,4.74-5.81,8.51-11.12,11.4-15.53-19.91,6.32-30.55,8.09-31.92,5.32-1.03-2.07,3.04-6.63,12.16-13.68-17.72,1.7-21.82,1.03-22.04,0-.24-1.31,5.74-2.71,13.74-6.44,3.31,1.31,7.02,2.34,12.1,2.34,3.19,0,5.84-.4,7.6-.76-1.19,3.62.36,7.48,3.43,9.12,3.5,1.88,8.24.46,10.24-3.43-1.22,4.62-.7,6.02,0,6.47,2.25,1.46,9.27-5.2,11.4-7.2,2.22-2.13,3.89-4.04,4.92-5.35Z" style="fill: #487135;"/>
  <path d="m113.61,216.31c6.27,4.38,13.35,8.86,21.28,13.17,13.53,7.37,26.32,12.54,37.49,16.21-3.88.84-7.77,1.69-11.65,2.53-15.03-8.61-30.06-17.22-45.09-25.84-.68-2.03-1.35-4.05-2.03-6.08Z" style="fill: #734232;"/>
  <path d="m112.8,252.64c-6.27,4.38-13.35,8.86-21.28,13.17-13.53,7.37-26.32,12.54-37.49,16.21,3.88.84,7.77,1.69,11.65,2.53,15.03-8.61,30.06-17.22,45.09-25.84.68-2.03,1.35-4.05,2.03-6.08Z" style="fill: #734232;"/>
  <path d="m114.11,0c-.46,2.6-.72,6.12,0,10.13,1.89,10.5,9.17,16.78,11.65,18.74,8.15,4.23,12.03,6.84,11.65,7.85-.29.77-3.08.6-8.36-.51,1.5,2.58,2.01,4.1,1.52,4.56-.82.78-4.45-1.42-10.89-6.59,1.98,5.09,2.57,7.88,1.77,8.36-.92.56-3.71-1.98-8.36-7.6-1.1,1.79-2.81,4.27-5.32,6.84-4.64,4.76-11.09,8.91-12.16,7.85-.58-.58.16-2.96,6.33-11.14-6.38,1.45-9.76,1.7-10.13.76-.33-.83,1.69-2.61,6.08-5.32-2.25.02-5.58,0-9.63-.25-5.91-.36-8.87-.56-9.12-1.52-.45-1.77,7.28-3.15,14.69-10.13,4.37-4.12,4.18-6,9.63-12.16,4.08-4.62,7.98-7.86,10.64-9.88Z" style="fill: #51813b;"/>
  <path d="m228.09,359.16c-1.49,3.34-21.34-2.58-22.8-3.04-2.1,3.25-4.41,4.8-6.08,5.59-8.21,3.86-20.64-1.03-30.4-12.67,2.04,5.81,2.37,9.18,1,10.12-1.85,1.34-6.93-1.88-15.2-9.6,2.67,8.78,3.16,16.87,0,18.72-3.56,2.13-12.28-3.43-20.76-14.68.24,6.17.12,13.13-2.04,13.68-3.4.85-10.55-15.11-14.16-25.32-.33-.94-.67-1.92-.97-2.89-11.09-33.59-8.78-71.09-1.06-72.61,3.65-.7,4.56,7.39,16.2,20.27,16.87,18.66,38.45,27.66,48.63,31.92,3.83,1.61,6.81,2.64,9.57,3.68,4.44,1.58,8.45,3.1,14.74,6.44,10.3,5.47,24.01,14.44,22.8,17.23-.49,1.15-3.8,1.7-16.72-1.52,1.46.88,18.69,11.4,17.23,14.68Z" style="fill: #51813b;"/>
  <path d="m228.09,359.16c-1.49,3.34-21.34-2.58-22.8-3.04-2.1,3.25-4.41,4.8-6.08,5.59-8.21,3.86-20.64-1.03-30.4-12.67,2.04,5.81,2.37,9.18,1,10.12-1.85,1.34-6.93-1.88-15.2-9.6,2.67,8.78,3.16,16.87,0,18.72-3.56,2.13-12.28-3.43-20.76-14.68.24,6.17.12,13.13-2.04,13.68-3.4.85-10.55-15.11-14.16-25.32-.33-.94-.67-1.92-.97-2.89,16.47,7.14,26.23,8.81,29.33,5.05,1.43-1.76,1.43-4.68,0-8.75,8.51,9.76,19.91,14.38,29.24,11.4,2.1-.67,5.02-2.01,7.99-4.95,6.63-.7,15.65-2.34,16.72-6.81,1-4.19-5.41-9.03-9.94-12.67,4.44,1.58,8.45,3.1,14.74,6.44,10.3,5.47,24.01,14.44,22.8,17.23-.49,1.15-3.8,1.7-16.72-1.52,1.46.88,18.69,11.4,17.23,14.68Z" style="fill: #487135;"/>
  <path d="m113.61,255.83c2.45,3.09,6.3,7.53,11.65,12.16,16.91,14.62,34.28,18.48,33.69,20.77-.25.97-3.7,1.55-18.49-.51,3.62,2.93,5.23,4.79,4.81,5.57-.67,1.26-6.58-.26-17.73-4.56,1.21,3.63,1.47,5.66.76,6.08-1.23.73-5.37-3.4-12.41-12.41-.14,7.19-1.02,8.73-1.77,8.87-2.04.36-6.73-9.02-6.59-18.49.13-8.42,4.04-14.66,6.08-17.48Z" style="fill: #487135;"/>
</svg>