<?xml version="1.0" encoding="UTF-8"?>
<svg id="uuid-a1e2b403-852a-45ac-bdf5-af6560e32f34" data-name="Layer 1" xmlns="http://www.w3.org/2000/svg" viewBox="0 0 238.58 322.33">
  <path d="m238.58,180.9c.07,7.12-1.94,13.66-5.91,18.58-6.4,7.95-16.34,9.78-20.57,10.28-1.87,1.79-8.11,7.32-17.71,8-5.94.42-10.64-1.2-13.14-2.29-1.76.78-10.8,4.56-21.14.57-9-3.47-13.2-10.59-14.28-12.57-9.98,1.03-28.98,1.46-48.57-8.57-6.21-3.18-11.31-6.81-15.43-10.28-2.66,1.97-11.51,7.96-24,7.43-16.17-.7-25.84-11.82-27.43-13.71-7.82-2.91-14.55-7.57-19.67-13.37-6.07-6.87-9.88-15.32-10.62-24.34-1.31-16.27,7.94-28.03,10.28-30.85-.95-3.2-4.69-17.11,2.86-30.85,3.73-6.79,8.76-10.92,12-13.14,3.14-22.52,14.76-41.74,31.19-52.93,5.33-3.63,11.16-6.42,17.38-8.2,19.61-5.61,36.76.58,43.42,3.43.61-.75,7.34-8.94,16-8,9.18.99,17.67,11.91,16,25.71,1.76-1.22,5.34-3.28,9.71-2.86,7.07.69,13.45,7.58,14.86,17.14,19.84,1.45,37.15,9.62,48.29,21.86,5.14,5.65,8.97,12.16,11.13,19.28,4.08,13.47,1.18,25.76-1.14,32.57,1.34,2.53,4.24,8.86,3.43,17.14-1.06,10.97-7.87,17.71-9.71,19.43,8.52,9.51,12.67,20.61,12.76,30.56Z" style="fill: #8fac3d;"/>
  <path d="m238.58,180.9c.07,7.12-1.94,13.66-5.91,18.58-6.4,7.95-16.34,9.78-20.57,10.28-1.87,1.79-8.11,7.32-17.71,8-5.94.42-10.64-1.2-13.14-2.29-1.76.78-10.8,4.56-21.14.57-9-3.47-13.2-10.59-14.28-12.57-9.98,1.03-28.98,1.46-48.57-8.57-6.21-3.18-11.31-6.81-15.43-10.28-2.66,1.97-11.51,7.96-24,7.43-16.17-.7-25.84-11.82-27.43-13.71-7.82-2.91-14.55-7.57-19.67-13.37,4.91-.34,9.51-1.84,13.38-4.54,4.18-2.9,6.78-6.68,8.38-9.9,6.67,2.95,14.14,2.07,19.05-2.29,4.35-3.86,5.15-9.06,5.34-10.67-4.06-.87-18.73-4.53-28.19-18.28-4.34-6.31-6.09-12.56-6.86-16.75,1.57.82,4.19,2.07,7.62,3.04,17.83,5.06,34.94-3.86,47.99-10.66,5.49-2.87,13.37-7.46,22.09-14.48-1.05,4.17-4.23,14.27-13.71,22.1-4.42,3.63-8.87,5.68-12.19,6.86,10.97,19.47,26.61,28.27,35.81,24.37,1.67-.71,5.66-2.91,8.38-10.66,4.08-.61,21.4-3.65,32.76-19.05,5.52-7.5,7.55-15.1,8.38-19.8,6.66,8.14,23.17,25.83,49.51,31.23,6.99,1.44,13.44,1.75,19.05,1.52.07.53.77,6.59-3.81,10.67-3.65,3.23-9.12,3.86-13.71,1.52-.7,2.08-4.72,13.53-16.76,19.05-7.95,3.63-15.29,2.8-18.28,2.29-.4,6.99,3.63,13.45,9.91,16,5.6,2.27,12.12,1.07,16.75-3.05,1.1,1.79,9.6,15.21,26.67,17.52,3.68.5,7.13.4,10.28-.1Z" style="fill: #7e973b;"/>
  <path d="m104.4,226.91l-.86,7.71c-3.86-2.19-7.72-4.39-11.59-6.58-.33-.18-.65-.38-.98-.56-1.34-1.52-2.66-3.05-4-4.57-.56-1.61-1.19-3.27-1.91-4.97-.93-2.19-2-4.46-3.23-6.74-8.98-16.6-22.11-26.43-30.85-31.71,1.23-.95,2.48-1.91,3.71-2.86,2.61,1.79,5.28,3.78,8,6,7.61,6.22,13.6,12.67,18.28,18.57-1.03-3.93-1.81-8.43-2-13.43-.7-17.63,6.24-31.69,11.35-39.73.74-1.17,1.44-2.22,2.08-3.12,1.23.86,2.48,1.71,3.71,2.57-.87,1.17-1.85,2.56-2.88,4.18-1.6,2.53-3.3,5.62-4.83,9.24-2.32,5.49-9.76,23.09-2.57,42.28.87,2.31,1.87,4.46,2.97,6.43.64,1.17,1.31,2.27,2.01,3.33,4.59,6.92,10.09,11.45,13.59,13.95Z" style="fill: #885645;"/>
  <path d="m136.11,222.91c-3.62,2.67-7.26,3.93-9.71,4.57,7.28,14.48,15.47,23.52,21.71,29.14,1.78,1.6,3.43,2.95,4.91,4.21,3.82,3.21,6.64,5.83,8.23,10.65.7,2.13.87,3.81,0,22.85-.43,9.43-.59,11.86.57,15.43,1.98,6,6.07,10.08,9.22,12.57h-69.79c.62-7.56,2.47-13.4,4.3-17.67.09-.21.18-.41.27-.62,1.25-2.8,1.87-3.52,7.43-13.14,7.45-12.9,7.95-14.39,8-16.57.18-8.23-6.25-14.35-7.43-15.43-3.42-3.13-7.03-4.51-9.14-5.14-4.14-5.72-9.39-14.4-12.73-25.72-.86-2.87-1.58-5.92-2.13-9.13-.25-1.51-.47-2.99-.63-4.43-.19-1.67-.32-3.29-.4-4.85-.11-1.95-.14-3.82-.11-5.58,2.14-2.55,5.07-6.55,7.43-12,1.77-4.09,5.83-13.85,3.43-25.71-.48-2.39-1.97-8.49-6.31-14.67-.85-1.22-1.82-2.45-2.91-3.63-.34-.38-.7-.75-1.06-1.12-10.2-10.24-19.84-7.46-27.43-17.14-4.22-5.37-5.36-11.47-5.71-15.43,2.48.19,4.95.38,7.43.57-.3,2.94-.38,7.92,2.29,12.57,6.69,11.66,23.32,8.42,40.57,19.43,4.85,3.1,11.8,8.63,18.28,18.86,3.59-3.77,9.3-9.28,17.14-14.86,11.61-8.25,17.77-9.46,26.28-16.57,4.79-3.99,11.1-10.5,16.57-21.14,2.29.77,4.57,1.52,6.86,2.29-8.73,13.04-17.59,21.54-24,26.85-15.04,12.48-22.32,12.2-32.57,25.14-1.34,1.69-7.91,10.14-12.68,23.29-.35.97-.7,1.97-1.03,2.99-2.56,7.92-3.58,14.89-4,20,3.62.1,8.48-.38,12.57-3.43,3.66-2.73,3.49-5.12,6.86-8,3.34-2.86,6.59-3.23,13.91-4.15.99-.14,2.07-.27,3.23-.42,11.83-1.57,17.75-2.34,21.71-4,4.65-1.94,10.86-5.99,16.57-15.43,1.34,1.34,2.66,2.66,4,4-12.38,13.24-23.4,18.67-31.43,21.14-.41.13-.83.25-1.26.38-6.37,1.82-13.48,3.06-18.74,9.34-2.45,2.91-4,6.33-8.57,9.71Z" style="fill: #885645;"/>
  <path d="m222.12,61.93c-2.42-1.09-4.99-2.09-7.73-3.01-22.85-7.63-42.67-3.39-50.85-1.14.32-.93,2.78-8.33-1.71-15.43-4.1-6.49-10.9-7.8-12-8-.95-4.27-3.33-11.51-9.71-16.57-10.94-8.66-29.36-7.56-44.57,4-5.91-4.83-11.54-7.27-16-8.57-7.93-2.31-15.77-2.07-23.09-.37,5.33-3.63,11.16-6.42,17.38-8.2,19.61-5.61,36.76.58,43.42,3.43.61-.75,7.34-8.94,16-8,9.18.99,17.67,11.91,16,25.71,1.76-1.22,5.34-3.28,9.71-2.86,7.07.69,13.45,7.58,14.86,17.14,19.84,1.45,37.15,9.62,48.29,21.86Z" style="fill: #a3c03a;"/>
  <path d="m171.05,322.33h-69.79c.62-7.56,2.47-13.4,4.3-17.67,4,.3,7.79-.66,10.75-2.9,3.36-2.55,4.75-6.06,5.33-8,1.61-.22,13.78-2.07,19.43-12.57,2.22-4.1,2.64-8.09,2.67-10.66,1.86-1.28,3.83-2.9,5.71-4.96,1.39-1.53,2.58-3.12,3.58-4.74,3.82,3.21,6.64,5.83,8.23,10.65.7,2.13.87,3.81,0,22.85-.43,9.43-.59,11.86.57,15.43,1.98,6,6.07,10.08,9.22,12.57Z" style="fill: #734232;"/>
  <path d="m205.06,121.59c-3.34,3.44-7.36,6.86-12.19,9.9-24.02,15.14-51.1,10.2-60.57,8,3.01-4.73,8.83-12.56,18.66-19.05,5.88-3.88,14.51-9.57,26.66-9.52,14.06.05,24,7.74,27.43,10.67Z" style="fill: #7e973b;"/>
  <path d="m87.74,133.01c-2.33.3-5.46.55-9.14.38-19.75-.89-39.01-12.94-37.71-18.66.91-4.01,11.99-5.41,19.81-4.19,17.89,2.79,26.17,20.52,27.04,22.47Z" style="fill: #7e973b;"/>
  <path d="m211.53,186.72c-4.11,2.04-10.08,4.41-17.52,5.33-18.4,2.28-37.96-5.24-37.71-10.28.21-4.24,14.45-7.86,25.9-7.24,14.54.79,24.89,8.43,29.33,12.19Z" style="fill: #7e973b;"/>
  <path d="m71.74,181.77c-2.97,1.18-7.01,2.3-11.81,2.29-14.91-.05-24.72-11.06-26.66-13.33,3.16-1.18,8.92-2.82,16-1.9,12.99,1.67,20.65,10.67,22.47,12.95Z" style="fill: #7e973b;"/>
  <path d="m84.42,45.43c-3.14-.07-10.69.2-18.49,4.93-9.1,5.52-12.83,13.64-13.97,16.43-1.39-1.19-3.43-2.64-6.16-3.7-5.73-2.23-10.9-1.35-13.15-.82.31-1.23,1.85-6.82,7.4-10.27,4.17-2.6,8.31-2.56,9.86-2.47,1.58-2.26,4.07-5.04,7.81-6.98,12.19-6.34,25.82,2.3,26.71,2.88Z" style="fill: #6c8137;"/>
</svg>