<?xml version="1.0" encoding="UTF-8"?>
<svg id="uuid-b19abe4e-ab47-4a59-bf51-c14cbabed0d0" data-name="Layer 1" xmlns="http://www.w3.org/2000/svg" viewBox="0 0 245.27 374.67">
  <path d="m204.63,279.85c-.8,5.93-8.88,10.46-16.49,14.72-11.98,6.71-23.41,7.19-28.86,7.07-3.52,3.35-10.53,8.95-20.61,10.6-15.73,2.57-32.36-5.56-42.99-20.61-2.17,1.26-11.49,6.36-22.97,3.53-12.09-2.98-22.09-13.66-22.38-23.56-.49-16.58,26.3-28.77,40.05-32.98,52.85-16.19,116.67,23.19,114.25,41.22Z" style="fill: #6c8137;"/>
  <path d="m125.13,229.79c2.36,26.11,4.71,52.22,7.07,78.33,4.32-5.69,8.64-11.39,12.96-17.08-1.77-17.47-3.53-34.94-5.3-52.41-4.91-2.94-9.82-5.89-14.72-8.83Z" style="fill: #885645;"/>
  <path d="m195.21,269.25c-9.38,3.3-27.49,11.19-42.59,29.26-12.53,14.98-18.3,31.33-20.8,45.13-2.76,15.08-1.63,27.11-1.2,31.02h-49.52c2.4-5.77,4.59-12.44,6.08-19.86,1.08-5.54,1.77-11.52,1.84-17.83.49-56.06-48.67-92.32-55.76-97.36,3.67-1.58,7.33-3.16,11-4.71,6.53,8.13,13.07,16.49,19.62,25.11,18.21,24,34.63,47.66,49.47,70.67,3.82-8.72,9.56-19.36,18.26-30.22,16.58-20.71,35.74-31.94,47.7-37.69,5.3,2.17,10.6,4.31,15.9,6.48Z" style="fill: #885645;"/>
  <path d="m201.69,116.72c-15.19,18.94-50.25,22.9-83.63,4.71-2.85,4.03-8.79,11.24-18.85,16.49-12.63,6.62-24.45,6.31-29.45,5.89-12.51,14.3-30.62,20.38-45.94,15.31-2.21-.73-21.04-7.3-23.56-24.73-.71-4.81.02-9.19,1.27-12.89,2.19-6.41,6.03-10.81,6.97-11.85-4.1-22-.14-43.6,10.55-60.05,0,0,0-.02.02-.02,4.12-6.36,9.26-11.94,15.34-16.49,14.68-10.98,30.69-12.72,38.87-12.96.92-2,6.93-14.65,21.2-18.85,12.39-3.63,26.15.52,35.34,10.6,3.37-1.34,17.79-6.6,32.98,0,1.04.45,2.03.94,3.02,1.48,13.97,7.54,22.92,23.3,22.9,40.92,4.62,1.81,13.4,6.1,18.85,15.31.52.87.99,1.77,1.39,2.66,7.47,15.83.42,34.86-7.28,44.45Z" style="fill: #8fac3d;"/>
  <path d="m201.69,116.72c-15.19,18.94-50.25,22.9-83.63,4.71-2.85,4.03-8.79,11.24-18.85,16.49-12.63,6.62-24.45,6.31-29.45,5.89-12.51,14.3-30.62,20.38-45.94,15.31-2.21-.73-21.04-7.3-23.56-24.73-.71-4.81.02-9.19,1.27-12.89,11.75,5.84,25.21,15.59,40.35,11.31,6.88-1.93,11.83-6.15,14.91-9.42,12.58-1.72,22.99-9.94,26.69-21.2,3.93-11.9-1.25-22.24-2.36-24.33,2.66-.52,13.71-2.97,21.2-13.36,5.3-7.3,6.12-14.82,6.29-18.04,1.34,2,11.02,16,28.27,17.27,8.65.64,15.43-2.19,18.85-3.93,1.2,1.44,16.87,19.43,40.05,16.49,5.04-.64,9.45-2.14,13.17-4,7.47,15.83.42,34.86-7.28,44.45Z" style="fill: #7e973b;"/>
  <path d="m145.15,91.09c-4.99,7.05-11.76,18.59-15.31,34.16-5.84,25.62.58,46.75,3.93,55.75-4.97,1.31-9.95,2.62-14.92,3.93.63-4.26,1.67-15.5-4.71-26.7-11.7-20.54-37.12-21.19-38.48-21.2,1.7-1.57,3.4-3.14,5.1-4.71,4.72.22,10.65.91,17.27,2.75,8.15,2.26,14.62,5.48,19.24,8.24,1.7-5.47,3.42-13.32,3.14-22.77-.5-16.62-6.91-28.94-10.6-34.94,2.49-.13,4.97-.26,7.46-.39,1.58,3.06,3.15,6.2,4.71,9.42,2.39,4.94,4.61,9.79,6.67,14.53,1.83-4.09,4.03-8.45,6.67-12.96,1.3-2.21,2.61-4.31,3.93-6.28,1.96.39,3.93.79,5.89,1.18Z" style="fill: #885645;"/>
  <path d="m245.17,277.76c-.78,10.25-6.86,20.61-17.57,23.89-11.12,3.42-24.05-1.79-30.62-12.96-3.06.99-11.97,3.44-22.38,0-12.63-4.17-18.61-14.02-20.02-16.49-2.33.94-9.23,3.37-17.67,1.18-10.04-2.59-15.24-9.92-16.49-11.78-4.64,4.05-12.89,10.22-24.73,14.13-10.11,3.32-18.96,3.72-24.73,3.53-1.81.94-19.32,9.8-35.34,1.18-4.92-2.64-8.88-6.5-11.83-11.05-7.49-11.47-8.53-27.42-2.31-39.6,7.8-15.29,24.33-19.39,27.09-20.02.66-3.79,4.19-22.54,21.04-35.81.8-.64,1.65-1.27,2.52-1.88,23.2-16.23,49.05-8.01,51.82-7.07,8.13-13.52,24.33-19.79,38.87-15.31,13.26,4.08,22.76,16.35,23.56,30.62,4.26,1.04,23.84,6.31,36.51,25.91,5.39,8.34,7.92,16.75,8.95,24.1,1.55,10.93-.19,19.48-.71,21.84,2.61,1.51,10.11,6.27,12.96,15.31,1.01,3.2,1.37,6.74,1.08,10.27Z" style="fill: #8fac3d;"/>
  <path d="m165.83,13.38c-6.29-.54-13.17,0-20.28,2.45-10.41,3.58-17.36,9.92-21.2,14.13-2.83-2.4-10.15-7.96-21.2-9.42-10.48-1.39-18.61,1.65-22,3.13,2.61.28,7.61,1.2,12.58,4.71,2.99,2.12,5.02,4.5,6.27,6.29-6.12-1.18-12.81-1.93-20.02-1.98-24.73-.14-45.56,8.08-60.87,16.89,4.12-6.36,9.26-11.94,15.34-16.49,14.68-10.98,30.69-12.72,38.87-12.96.92-2,6.93-14.65,21.2-18.85,12.39-3.63,26.15.52,35.34,10.6,3.37-1.34,17.79-6.6,32.98,0,1.04.45,2.03.94,3.02,1.48Z" style="fill: #a3c03a;"/>
  <path d="m231.84,230.34c-4.22-2.4-9.16-4.43-14.84-5.65-24.66-5.28-43.11,9.05-45.54,11-1.67-2.29-6.12-7.82-14.13-11-8.15-3.2-15.31-2.12-18.07-1.55,7.13-3.69,10.56-11.92,8.24-19.25-2.11-6.7-8.61-11.33-15.9-11.19-2-4.79-5.39-10.58-11.19-15.31-12.91-10.53-32.51-11.49-50.81-3.42.83-.67,1.67-1.29,2.52-1.88,23.2-16.23,49.05-8.01,51.82-7.07,8.13-13.52,24.33-19.79,38.87-15.31,13.26,4.08,22.76,16.35,23.56,30.62,4.26,1.04,23.84,6.31,36.51,25.91,5.39,8.34,7.92,16.75,8.95,24.1Z" style="fill: #a3c03a;"/>
  <path d="m245.17,277.76c-.78,10.25-6.86,20.61-17.57,23.89-11.12,3.42-24.05-1.79-30.62-12.96-3.06.99-11.97,3.44-22.38,0-12.63-4.17-18.61-14.02-20.02-16.49-2.33.94-9.23,3.37-17.67,1.18-10.04-2.59-15.24-9.92-16.49-11.78-4.64,4.05-12.89,10.22-24.73,14.13-10.11,3.32-18.96,3.72-24.73,3.53-1.81.94-19.32,9.8-35.34,1.18-4.92-2.64-8.88-6.5-11.83-11.05,15.71,1.86,34.44,4.48,46.57-6.62,6.03-5.51,8.41-12.53,9.42-16.49,2.94,1.22,9.42,3.44,17.67,2.36,9.56-1.25,15.88-6.17,18.26-8.24,4.64,13,14.84,21.86,25.91,22.38,5.77.28,10.51-1.77,13.55-3.53,5.28,4.81,31.57,27.77,67.73,24.15,8.62-.87,16.11-3.09,22.28-5.63Z" style="fill: #7e973b;"/>
  <path d="m130.62,374.67h-49.52c2.4-5.77,4.59-12.44,6.08-19.86,4.78-.4,9.85-1.08,15.17-2.12,11.31-2.21,21.2-5.54,29.47-9.05-2.76,15.08-1.63,27.11-1.2,31.02Z" style="fill: #734232;"/>
</svg>