<?xml version="1.0" encoding="UTF-8"?>
<svg id="uuid-2c331994-74b9-473f-9a4d-c2d536d03a2b" data-name="Layer 1" xmlns="http://www.w3.org/2000/svg" viewBox="0 0 233.83 299.77">
  <path d="m110,299.77h19.76c-1.91-5.43-3.67-26.82-4.61-34.37-2.3-18.46,1.44-33.74,4.61-43.03h-19.76c1.99,10.3,3.48,23.28,2.85,38.2-.38,9.07-1.48,32.08-2.85,39.2Z" style="fill: #734232;"/>
  <path d="m32.28,202.87c-4.69,4.29-6.67,7.14-5.93,8.56,1.05,1.95,7.4,1.08,19.1-2.63-2.61,3.98-6.77,9.3-13.17,13.83-13.33,9.41-27.11,8.83-27.01,11.2.11,2.11,11.14,4.06,21.74,3.29,9.75-.71,17.47-3.64,22.39-5.93-4,4.74-5.56,7.82-4.61,9.22,1.32,1.95,7.46.63,18.44-3.95,5.22,2.71,12.86,6.38,22.39,9.88,28.51,10.41,60.57,14.33,61.92,9.88.42-1.42-2.06-4.37-15.81-11.2,4.64.32,11.46.79,19.76,1.32,31.83,1.95,35.83,1.45,36.23,0s-2.53-4.51-19.1-11.86c4.74.55,11.57,1.16,19.76,1.32,20.79.34,45.34-2.53,45.45-5.93.05-1.55-5.01-3.9-28.32-7.25,10.83-1.95,13.17-3.5,13.17-4.61,0-1.95-7.32-2.56-16.47-6.59-7.4-3.27-12.88-7.4-16.47-10.54,4.98.76,12.25,1.58,21.08,1.32,5.66-.18,12.96-.4,13.17-1.98.21-1.42-5.59-2.63-13.75-5.45-4.93-1.66-10.7-3.87-16.55-7.06-10.88-5.95-18.6-13.33-23.71-19.1,3.64,1.95,9.25,4.51,16.47,5.93,6.32,1.24,16.52,2.11,17.13,0,.68-2.4-11.25-6.35-22.39-13.17-9.64-5.93-22.47-16.28-34.25-35.57-14.7,1.53-29.43,3.06-44.13,4.61-4.82,4.51-11.8,10.91-20.42,18.44-14.41,12.59-21.63,18.92-29.64,24.37-7.93,5.4-14.2,9.67-20.73,13.2-4.58,2.5-9.33,4.64-14.83,6.56C6.64,195.26-.16,196.92,0,198.92c.18,2.45,10.83,3.56,14.49,3.95,7.38.76,13.54.45,17.78,0Z" style="fill: #51813b;"/>
  <path d="m32.28,202.87c-4.69,4.29-6.67,7.14-5.93,8.56,1.05,1.95,7.4,1.08,19.1-2.63-2.61,3.98-6.77,9.3-13.17,13.83-13.33,9.41-27.11,8.83-27.01,11.2.11,2.11,11.14,4.06,21.74,3.29,9.75-.71,17.47-3.64,22.39-5.93-4,4.74-5.56,7.82-4.61,9.22,1.32,1.95,7.46.63,18.44-3.95,5.22,2.71,12.86,6.38,22.39,9.88,28.51,10.41,60.57,14.33,61.92,9.88.42-1.42-2.06-4.37-15.81-11.2,4.64.32,11.46.79,19.76,1.32,31.83,1.95,35.83,1.45,36.23,0s-2.53-4.51-19.1-11.86c4.74.55,11.57,1.16,19.76,1.32,20.79.34,45.34-2.53,45.45-5.93.05-1.55-5.01-3.9-28.32-7.25,10.83-1.95,13.17-3.5,13.17-4.61,0-1.95-7.32-2.56-16.47-6.59-7.4-3.27-12.88-7.4-16.47-10.54,4.98.76,12.25,1.58,21.08,1.32,5.66-.18,12.96-.4,13.17-1.98.21-1.42-5.59-2.63-13.75-5.45-7.57,2.99-18.92,6.02-31.48,3-6.93-1.66-11.66-4.55-12.28-3.53-.94,1.55,8.73,10.44,20.84,15.6,2.72,1.16,5.09,1.92,6.82,2.42-4.82,2.34-10.86,4.8-18.02,6.59-4.45,1.11-8.59,1.79-12.28,2.19,18.13,4.8,22.13,6.9,21.95,7.9-.32,1.79-13.91,1.32-27.22.87-3.98-.13-7.32-.29-9.67-.42,7.17,6.59,8.06,9.06,7.46,10.09-1.74,2.95-18.13-2.87-30.3-9.67-8.46-4.72-14.73-9.83-18.86-13.59.16,5.93-.29,9.01-1.32,9.22-1.34.26-3.69-4.27-7.03-13.62-14.94,9.38-23,13.33-24.16,11.86-.95-1.21,2.71-6.03,10.99-14.49-16.1,9.75-24.87,13.7-26.35,11.86-1.05-1.32,1.58-5.56,7.9-12.73-6.22,3.48-11.57,5.4-12.73,3.95-1.21-1.53,2.13-6.72,7.9-12.75-12.25,4.9-24.79.32-28.98-8.33-.76-1.58-1.21-3.19-1.42-4.77-4.58,2.5-9.33,4.64-14.83,6.56C6.64,195.26-.16,196.92,0,198.92c.18,2.45,10.83,3.56,14.49,3.95,7.38.76,13.54.45,17.78,0Z" style="fill: #487135;"/>
  <path d="m56.65,129.76c-16.36,7.56-16.7,10.33-16.47,11.2.66,2.37,9.12,2.19,19.76,1.98,8.35-.18,15.18-.82,19.76-1.32-10.99,5.95-12.94,8.59-12.51,9.88,1,3.11,16.81.82,31.62-1.32,8.54-1.24,15.97-2.58,22.03-3.82,2.58-.5,4.9-1,6.96-1.45,2.71,1.92,5.43,3.43,8.04,4.53,3.61,1.55,7.01,2.37,10.01,2.53,4.32.24,7.77-.9,9.62-3.11.63-.76,2.66-3.53,1.32-9.88,24.4,7.03,37.57,8.59,39.52,4.61.29-.58.34-1.24.16-2.05-.47-2.16-2.74-5.24-6.74-9.14,15.44,2.53,19.23,1.48,19.76,0,1.53-4.37-24.82-13.46-50.06-36.89-5.98-5.56-11.01-11.09-15.15-16.18-4.11-5.03-7.38-9.64-9.88-13.46,17.26,5.48,26.48,7.01,27.66,4.61.9-1.79-2.63-5.74-10.54-11.86,15.36,1.48,18.92.9,19.1,0,.21-1.13-4.98-2.34-11.91-5.59-3.82-1.82-8.19-4.22-12.46-7.59-6.8-5.37-11.14-11.38-13.83-15.81.21-9.88.45-19.76.66-29.64-3,9.12-9.91,25.69-25.69,40.18-7.96,7.3-15.99,12.07-22.39,15.15l13.83,1.98c-17.18,9.27-20.34,12.91-19.76,14.49.84,2.32,10.43,1.32,17.13-.66,7.75-2.32,13.25-6.4,16.47-9.22-18.18,31.04-37.57,45.4-52.69,52.69-7.96,3.85-21.82,9.14-21.08,12.51.58,2.61,9.7,2.87,17.78,2.63Z" style="fill: #51813b;"/>
  <path d="m129.76,71.13c4.15,2.46,10.48,6.04,18.44,9.88,26.82,12.93,47.19,16.7,46.77,19.1-.17.96-3.71,1.76-19.76.66,6.34,3.18,13.79,7.33,13.17,9.22-.79,2.42-14.86,1.18-25.69-3.29-6.2-2.56-21.86-10.52-32.93-35.57Z" style="fill: #51813b;"/>
  <path d="m82.78,153.21c-3.88,1.58-7.63,3.45-11.26,5.56-1.83,1.04-3.62,2.16-5.37,3.42-.88.62-1.75,1.27-2.63,2-.87.72-1.71,1.54-2.59,2.67-.41.65-.94,1.18-1.22,2.71-.06.37-.12.7-.02,1.28.04.26.1.53.18.78l.13.37.38.64.11.16s.04.08.29.34c.39.41.89.77,1.39,1.03,2.2.89,3.34.7,4.63.72,2.4-.13,4.52-.5,6.64-.9,2.11-.4,4.16-.93,6.18-1.53,2.02-.6,3.99-1.31,5.95-2.01l-3.5-5.03c-.61.95-1.2,1.94-1.77,3.01-.28.53-.56,1.1-.8,1.72-.24.64-.49,1.29-.62,2.31-.05.48-.1,1.17.22,2.05.08.21.18.43.33.66l.22.32.03.04.34.35h0s.02.02.02.02l.04.03c.13.08.08.1.71.44.51.27,1.07.39,1.25.38.26.02.58.06.78.03.43-.03.85-.09,1.17-.18.71-.16,1.28-.38,1.84-.61.57-.22,1.07-.48,1.6-.72,2.04-.98,3.88-2.15,5.77-3.21l5.55-3.31-1.74-.66c.58,1.55,1.26,3.07,2.14,4.52.44.73.95,1.42,1.55,2.09.64.64,1.25,1.33,2.4,1.77.28.11.64.18,1.01.2.2,0,.41-.03.61-.07l.46-.15c.95-.48,1.18-.94,1.52-1.4.56-.93.84-1.8,1.06-2.67.43-1.74.52-3.45.54-5.17l-3.06,1.71c2.31,2.01,4.71,3.95,7.2,5.77,2.49,1.85,5.08,3.51,7.78,5.04,5.39,3.01,10.98,5.58,16.86,7.7,2.96,1.05,5.96,2,9.3,2.56,1.69.27,3.39.48,5.62.26,1.12-.17,2.45-.32,4.16-1.54.41-.3.82-.69,1.2-1.19l.27-.36.06-.09.22-.39.03-.06.14-.31c.64-1.6.55-2.51.49-3.29-.18-1.58-.64-2.62-1.08-3.53-.45-.91-.94-1.67-1.43-2.4-.98-1.43-2.02-2.68-3.1-3.87-2.16-2.35-4.33-4.53-6.65-6.56l-3.5,5.52c2.39.65,4.8,1.17,7.24,1.43,2.49.25,4.8.36,7.26.29.62-.02,1.25-.06,1.91-.13.67-.09,1.33-.16,2.21-.47.41-.17,1.04-.35,1.65-1.24.07-.12.13-.24.19-.36l.04-.09.05-.16h0s0-.07,0-.07c.01-.05.06-.33.06-.48,0-.18-.01-.25-.03-.38-.07-.45-.22-.72-.36-.96-.55-.84-1.09-1.2-1.61-1.61-2.1-1.47-4.25-2.35-6.45-3.22l-.4.68c1.75,1.5,3.57,3.03,4.94,4.62.31.37.61.84.62,1.01-.01.02-.04.02-.09-.15-.01-.06-.01-.06-.02-.17,0-.08.04-.28.04-.27l-.02.05h0s-.05.15.04-.11h0s0-.06,0-.06c.02-.06.04-.12.07-.18.28-.41.34-.35.2-.37-.24,0-.74,0-1.22-.06-.5-.06-1.02-.14-1.55-.23-2.14-.43-4.42-.86-6.47-1.48-2.09-.62-4.14-1.3-6.12-2.17l-12.81-5.63,9.31,11.15c1.88,2.26,3.81,4.45,5.47,6.73.81,1.14,1.61,2.27,2.26,3.35.64,1,1.08,2.33,1,2.27.05-.03-.15-.18.27-1.07.02-.03-.07.14-.1.19l-.03.06v.02c.08-.16-.22.37.19-.35l.02-.04.09-.15c.16-.2.3-.32.4-.41.49-.33.3-.16-.06-.15-.76.1-2.07-.03-3.34-.21-2.59-.4-5.37-1.07-8.12-1.87-5.52-1.61-11.01-3.7-16.36-6.03l-4-1.78-3.96-1.88c-2.63-1.3-5.22-2.71-7.74-4.25l-3.78-2.31.72,4.02c.26,1.42.34,2.9.2,4.27-.07.68-.21,1.35-.44,1.79-.06.2-.33.4-.08.3l-.13.06-.07.03-.03.02h0c.07-.02-.16.06.15-.05h0s0,0,0,0c0,0,.02,0,.03.01-.02,0-.06.01-.15-.01-.35-.07-.95-.48-1.4-.96-.47-.49-.92-1.05-1.32-1.67-.81-1.22-1.44-2.59-1.91-4.01l-.45-1.36-1.28.7c-1.86,1.01-3.77,1.93-5.71,2.77-1.91.87-3.92,1.56-5.85,2.12-.48.11-.97.25-1.43.32-.46.09-.92.15-1.27.14-.2.02-.31-.02-.42-.04-.07,0-.02-.04-.02-.04-.1-.02.22,0,.48.17.36.28.13.1.05,0l-.03-.04-.02-.02h0c-.29-.31.39.41.33.34l.02.02.12.15c.07.12.12.21.16.3.15.38.11.51.16.47.05-.04.22-.38.44-.69.23-.33.48-.69.76-1.06.56-.74,1.21-1.5,1.88-2.24l6.66-7.38-10.16,2.34c-3.98.92-7.93,1.88-11.77,2.84-1.91.46-3.84.87-5.56,1.04-.76.1-1.74-.01-1.48.12.28.12.56.34.74.61.13.21.07.14.02.07l-.12-.15-.03-.04-.02-.02h0c-.29-.5.39.64.32.54l.09.18c.05.13.08.26.1.4,0,.34,0,.41,0,.52-.15.5-.09.13.05-.07.32-.54.89-1.24,1.53-1.93.61-.7,1.3-1.4,2.01-2.09,1.43-1.36,2.93-2.73,4.44-4.11,3.05-2.72,6.16-5.44,9.19-8.35l-.43-.66Z" style="fill: #487135;"/>
  <path d="m75.41,134.42c.34,1.69,6.9,1.87,11.22,2,3.27.08,5.98-.13,7.9-.34-5.88,4.24-6.64,6.06-6.27,6.93.84,2,8.62.92,19.76-.69,3.48-.47,6.35-.97,8.22-1.32,1.45,2.08,3,3.87,4.58,5.35,4.58,4.28,11.71,6.18,12.88,4.56.56-.77.07-2.75-4.61-8.08,11.34,8.86,22.4,10.27,26.35,6.03.57-.62,2.73-3.22,1.32-9.88,24.4,7.03,37.57,8.59,39.52,4.61.29-.58.34-1.24.16-2.05-19.42,2.29-30.59-1.9-37.36-6.77-3.08-2.21-10.7-8.46-11.54-7.56-.74.74,4.35,5.95,3.29,7.22-1.21,1.48-9.41-3.35-11.51-4.58-3.64-2.13-6.4-4.19-8.25-5.61,2.74,5.43,2.69,7.27,1.98,7.9-1.63,1.45-7.85-2.77-11.2-5.61-4.08-3.45-6.67-7.17-8.25-9.85-1.37,4.61-5.06,6.69-7.22,5.9-2.05-.74-2.61-3.95-2.63-4.27-1.84,1.16-4.69,2.95-8.25,4.95-12.8,7.19-20.47,9.33-20.1,11.17Z" style="fill: #487135;"/>
  <path d="m102.43,79.44c-2.84,1.71-7.09,4.3-12.19,7.57-15.64,10.04-16.02,11.54-15.81,12.19.34,1.07,3.02,2.19,17.45,0-2.91,2.97-4.12,4.84-3.62,5.6.85,1.32,6.78-.66,17.78-5.93,1.76,3.62,3.88,4.4,4.61,4.61,4.39,1.24,10.95-3.39,14.49-12.51-2.24,4.61-6.71,7.22-10.87,6.59-3.25-.49-5.28-2.81-5.93-3.62-.98.57-6.1,3.47-8.56,1.65-2.53-1.87-2.05-8.52,2.63-16.14Z" style="fill: #487135;"/>
  <path d="m115.61,54.06c2.11,5.24,6.38,13.23,14.81,19.13,4.29,3,8.98,5.01,13.83,6.14-4.11-5.03-7.38-9.64-9.88-13.46,17.26,5.48,26.48,7.01,27.66,4.61.9-1.79-2.63-5.74-10.54-11.86,15.36,1.48,18.92.9,19.1,0,.21-1.13-4.98-2.34-11.91-5.59-2.87,1.13-6.09,2.03-10.49,2.03-2.77,0-5.06-.34-6.59-.66,1.03,3.14-.32,6.48-2.98,7.9-3.03,1.63-7.14.39-8.88-2.98,1.05,4,.61,5.22,0,5.61-1.95,1.26-8.04-4.51-9.88-6.24-1.92-1.84-3.37-3.5-4.27-4.64Z" style="fill: #487135;"/>
</svg>