<?xml version="1.0" encoding="UTF-8"?>
<svg id="uuid-1fd638a5-5024-4ee2-8bb5-b5bf5cffa174" data-name="Layer 1" xmlns="http://www.w3.org/2000/svg" viewBox="0 0 228.99 477.58">
  <path d="m213.79,330.68c2.67,3.34,5.29,7.87,5.02,13.01-.9,15.6-27.62,25.73-43.58,28.55-7.72,1.38-21.67,2.64-39.07-3.01-.81,1.26-6.46,10.01-17.55,11.54-8.81,1.2-15.36-2.92-17.01-4.03-.9.75-19.47,15.72-40.09,8.02-11.03-4.12-16.92-12.62-19.02-16.02-23.5-5.68-38.65-22.75-38.08-39.07.09-2.55.57-4.96,1.29-7.18,1.74-5.44,4.96-9.83,7.72-12.86-1.5-2.07-11.72-16.95-13.25-36.9-.57-7.78.15-16.35,3.25-25.21,6.64-19.02,20.59-29.42,26.06-33.06-3.31-4-8.75-11.81-11.03-23.02-3.73-18.3,3.67-32.85,6.01-37.09-.24-.39-.51-.81-.72-1.2-6.31-10.49-8.9-22.33-7.78-33.6.81-8.32,3.67-16.35,8.5-23.29,13.07-18.66,34.86-20.77,38.08-21.04-6.31-11.45-5.95-25.06.99-35.07,7.18-10.31,18.51-12.56,21.04-13.01C90.46,9.63,105.39-1.16,119.64.1c10.61.96,17.67,8.32,20.02,11.03,6.76-8.35,18.54-10.31,27.05-5.02,9.41,5.83,12.47,19.05,6.01,29.06,1.68,1.86,3.79,4.3,6.1,7.33,8.08,10.49,18.75,27.95,22.96,51.75,2.07,11.72,2.13,22.39,1.29,31.47-.87,9.53-2.73,17.28-4.3,22.63,3.16,2.64,16.74,14.52,24.58,34.53,2.79,7.15,4.87,15.39,5.47,24.58,1.89,29.72-12.89,50.64-17.04,56.11,1.2,1.02,6.34,5.5,10.46,13.01,3.04,5.47,5.5,12.53,5.59,21.04.15,19.11-11.96,31.07-14.03,33.06Z" style="fill: #51813b;"/>
  <path d="m213.79,330.68c2.67,3.34,5.29,7.87,5.02,13.01-.9,15.6-27.62,25.73-43.58,28.55-7.72,1.38-21.67,2.64-39.07-3.01-.81,1.26-6.46,10.01-17.55,11.54-8.81,1.2-15.36-2.92-17.01-4.03-.9.75-19.47,15.72-40.09,8.02-11.03-4.12-16.92-12.62-19.02-16.02-23.5-5.68-38.65-22.75-38.08-39.07.09-2.55.57-4.96,1.29-7.18,4.66,2.86,10.07,5.08,16.5,5.8,6.91.78,12.77-.42,16.53-1.5,1.89,2.22,12.08,13.79,29.3,15.03,13.97.99,24.04-5.44,27.05-7.51,17.34,7.6,37.24,4.99,51.09-6.76,17.28-14.67,16.65-36.39,16.53-39.07,5.23,1.32,27.29,6.25,50.34-6.01,3.37-1.8,6.43-3.79,9.2-5.89,3.04,5.47,5.5,12.53,5.59,21.04.15,19.11-11.96,31.07-14.03,33.06Z" style="fill: #487135;"/>
  <path d="m181.24,336.82c-3.66,2.13-8.71,4.51-15.03,6.01-11.98,2.84-22.11.96-27.55-.5-2.84,3.43-7.53,8.12-14.53,11.52-16.79,8.16-33.36,2.39-37.07,1-1.92,2.56-5.13,6.12-10.02,9.02-9.52,5.63-19.04,4.94-22.54,4.51,4.96,2.72,11.15,5.5,18.53,7.51,18.45,5.04,34.47,2.66,43.58.5,2.68,2.11,16.06,12.19,32.06,9.02,18.55-3.68,33.45-23.79,32.56-48.59Z" style="fill: #3b5d2c;"/>
  <path d="m159.7,351.36c-4.84,15.51-9.38,32.94-13.01,52.08-1.86,9.68-3.31,19.08-4.45,28.13-2.13,16.56-3.19,31.98-3.58,46.01h-29.06c2.01-8.6,3.91-20.14,3.88-33.72,0-4.87-.27-10.01-.87-15.39-3.52-32.13-17.01-55.36-25.03-67.11,4,.33,8.02.66,12.02.99,8.35,12.71,16.71,25.39,25.03,38.08,5.02-15.54,10.04-31.04,15.03-46.58,2.64-.03,5.5-.18,8.53-.51,4.27-.45,8.11-1.17,11.51-1.98Z" style="fill: #734232;"/>
  <path d="m223.35,182.88c-3.43-2.49-7.36-4.93-11.81-7.09-26.75-12.92-52.44-5.89-59.35-3.76.9-6.82,1.38-18.93-4.51-31.56-14.58-31.22-53.73-34.44-55.6-34.56,3.64-2.79,14.12-10.16,29.3-10.52,20.2-.48,33.45,11.78,36.06,14.28,11.93-.03,21.19,2.55,27.8,5.26,6.73,2.76,12.65,6.46,17.82,10.79-.87,9.53-2.73,17.28-4.3,22.63,3.16,2.64,16.74,14.52,24.58,34.53Z" style="fill: #487135;"/>
  <path d="m105.6,189.31c-2.37.3-18.24,2.49-27.05,16.53-4.75,7.54-5.26,15.09-5.26,18.78-9.92,1.83-29.87,6.88-49.59,22.54-10.58,8.41-18.18,17.58-23.53,25.57-.57-7.78.15-16.35,3.25-25.21,6.64-19.02,20.59-29.42,26.06-33.06-3.31-4-8.75-11.81-11.03-23.02-3.73-18.3,3.67-32.85,6.01-37.09-.24-.39-.51-.81-.72-1.2,11.21,3.28,25.57,5.2,41.29,1.59,9.17-2.1,16.71-5.59,22.54-9.02-.42,4.54-.48,11.9,2.25,20.29,4.06,12.5,11.99,20.11,15.78,23.29Z" style="fill: #487135;"/>
  <path d="m178.81,42.5c-4.84-.6-10.52-.48-16.62,1.29-14.79,4.3-22.24,15.24-24.04,18.03.21-2.4.6-10.28-4.51-18.03-6.07-9.23-15.51-11.57-17.52-12.02-4.36-8.08-9.17-9.26-10.52-9.5-8.93-1.62-21.31,9.5-26.54,29.54-1.62.09-7.6.57-11.03,5.02-4.42,5.74-3.07,16.17,5.02,23.53-4.09,1.08-9.92,2.92-16.53,6.01-18.72,8.75-31.56,21.85-40.57,33.18.81-8.32,3.67-16.35,8.5-23.29,13.07-18.66,34.86-20.77,38.08-21.04-6.31-11.45-5.95-25.06.99-35.07,7.18-10.31,18.51-12.56,21.04-13.01C90.46,9.63,105.39-1.16,119.64.1c10.61.96,17.67,8.32,20.02,11.03,6.76-8.35,18.54-10.31,27.05-5.02,9.41,5.83,12.47,19.05,6.01,29.06,1.68,1.86,3.79,4.3,6.1,7.33Z" style="fill: #5f903e;"/>
  <path d="m151.43,251.67c-2.74-.03-11.8.2-20.29,6.76-9.3,7.19-11.53,17.03-12.02,19.53-1.33-3.91-4.07-10.11-9.77-15.78-11.55-11.5-26.41-12-30.05-12.02.37-1.05,4.34-11.73,15.78-15.03,10.15-2.93,18.33,2.22,19.53,3.01,2.85-1.24,7.98-2.96,14.28-2.25,14.22,1.6,21.63,14.18,22.54,15.78Z" style="fill: #3b5d2c;"/>
  <path d="m142.24,431.57c-2.13,16.56-3.19,31.98-3.58,46.01h-29.06c2.01-8.6,3.91-20.14,3.88-33.72,7.06-1.56,14.82-4.18,23.17-8.87,2.04-1.14,3.88-2.28,5.59-3.43Z" style="fill: #5c3528;"/>
</svg>