<?xml version="1.0" encoding="UTF-8"?>
<svg id="uuid-a471ce3d-abfb-4211-9594-ca3a7e7aa13a" data-name="Layer 1" xmlns="http://www.w3.org/2000/svg" viewBox="0 0 235.5 247.36">
  <path d="m116.49,109.09c-.63,1.06-4.41,7.21-12.16,8.84-5.71,1.2-10.27-.75-11.79-1.47-1.73,1.04-3.97,2-6.63,2.21-10.37.81-21.21-10.19-19.53-16.21,1.49-5.3,12.61-6.39,15.1-6.63,16.27-1.59,29.44,8.41,35,13.26Z" style="fill: #3b5d2c;"/>
  <path d="m110.1,207.33c-1.94.22-6.41.43-10.81-2.21-1.71-1.03-7.01-4.21-6.88-9.33.09-3.48,2.62-5.91,3.44-6.63-.69-.48-2.54-1.91-3.19-4.42-.81-3.11.54-6.6,3.44-8.84-1.05-1.47-2.25-3.7-2.21-6.39.1-6.72,7.83-11.24,12.28-12.77,10.76-3.69,20.74,3.8,21.86,4.67.7-.24,4.4-1.45,8.1.49,3.45,1.81,5.56,5.65,5.4,9.82,3.53,1.23,5.58,2.87,6.14,4.91,1.73,6.33-10.79,16.56-37.58,30.7Z" style="fill: #3b5d2c;"/>
  <path d="m207.85,127.51c-2.24,4.29-6.06,9.87-12.53,13.26-5.54,2.9-7.57,1.36-11.79,3.68-8.92,4.92-6.12,15.38-14,28-5.85,9.37-8.94,6.12-19.89,18.42-4.6,5.16-11.07,12.6-15.02,23.25-.75,1.96-1.4,4.04-1.93,6.22-1.27,5.23-2.79,14.78,0,27.01h-48.14c-.5-4.72-.52-8.55-.19-11.69.72-6.96,3.12-10.48,5.6-12.38,3.57-2.76,8.31-2.98,11.3-7.85,1.84-3.02,1.83-5.89,1.96-8.84.71-15.52,4.91-17.06,3.93-24.08-1.52-10.74-11.72-9.3-22.1-24.55-9.58-14.06-4.21-20.13-14.25-29.97-6.63-6.5-11.83-6.65-16.7-14.24-4.07-6.34-4.86-13.09-4.92-17.68,3.45,1.47,6.88,2.95,10.32,4.42.25,2.77,1.03,7.34,3.93,11.79,5.69,8.71,14.01,8.43,20.14,17.18,4.17,5.97,1.21,7.35,4.91,13.76,7.18,12.39,20.13,10.34,29.96,21.12,3.82,4.17,8,11.21,8.84,23.58,2.65-2.31,6.81-5.73,12.29-9.33,14.85-9.77,20.39-8.34,26.02-15.72,6.51-8.53,1.93-14.13,8.84-19.64,5.38-4.29,10.58-2.87,17.2-8.84,2.98-2.7,4.82-5.58,5.89-7.62,3.43.25,6.88.49,10.32.74Z" style="fill: #a36853;"/>
  <path d="m235.49,132.99c-.09,2.34-1.16,4.61-3.11,6.31-4.66,4.08-11.94,2.9-12.23,2.84-.75,1.36-3.58,5.97-10.27,8.55-4.91,1.89-9.43,1.74-11.45,1.58-5.29,4.29-12.95,5.16-18.17,2.53-4.92-2.49-5.81-7.13-5.92-7.91-1.39-.35-20.87-5.72-23.7-18.66-.43-1.92-.62-4.61.38-7.9-.49-.31-2.74-1.75-4.32-4.11-.88-1.31-1.56-2.9-1.61-4.75-.06-2.71,1.28-5.36,3.61-7.47,2.14-1.97,5.11-3.49,8.64-4.23.63-1.13,3.21-5.54,9.06-9.03,1.69-1,3.67-1.93,5.95-2.67.49-.16.97-.31,1.46-.44,9.02-2.49,16.8-.43,18.69.12,2.59-1.62,7.22-3.96,13.03-3.79,14.81.46,22.91,16.95,23.93,18.98.78,1.58,1.41,3.15,1.92,4.7,2.52,7.68,1.96,14.62,1.4,18.38,1.93,2.12,2.81,4.6,2.71,6.97Z" style="fill: #51813b;"/>
  <path d="m78.17,131.44c-.03-3.34.43-8.07,2.95-12.77,4.28-8.01,11.21-9.72,18.17-15.72,4.6-3.96,10.11-10.57,13.75-22.1-2.05.57-4.09,1.15-6.14,1.72-1.19,3.56-3.42,8.58-7.86,13.02-5.94,5.94-11.04,6.06-16.95,11.3-3.3,2.93-7.34,7.9-9.82,16.7,1.96,2.62,3.93,5.24,5.89,7.86Z" style="fill: #a36853;"/>
  <path d="m172.17,98.95c-2.83,5.29-7.94,9.9-12.44,12.7h-.01c-.41.28-.83.52-1.24.75-4.01,2.27-8.06,3.37-11.77,3.82-6.22.77-11.44-.32-13.65-.87-2.55.85-6.54,1.83-11.42,1.47-9-.66-15.1-5.44-17.31-7.37-1.93.77-4.88,1.62-8.47,1.47-8.68-.37-14.22-6.31-15.47-7.74-1.77,1.89-4.05,3.88-7,5.53-11.51,6.48-23.93,2.92-27.26,1.84-2.03,1.83-6.2,4.95-11.79,5.16-9.05.34-18.23-7.15-21.74-18.79-.75-.04-7.84-.55-11.05-5.89-3.36-5.61-1.22-14.52,6.26-19.53-.32-1.05-1.92-6.41.78-11.89.09-.21.21-.43.32-.63,2.84-5.13,8.55-8.24,14.74-8.1-.59-1.43-4.44-11.24.74-21,4.51-8.5,14.07-13.59,24.31-12.89.13-.24.31-.55.55-.88,1.02-1.58,3.05-4.07,6.45-5.75,5.22-2.56,10.11-1.44,11.42-1.11,2.11-2.28,5.6-5.38,10.68-7.37,12.88-5.03,24.92,1.47,26.89,2.58,11.83-2.17,23.02,2.2,28,10.68,3.3,5.64,2.96,11.54,2.58,14.37,1.69,1.5,4.38,4.24,6.26,8.47,2.73,6.09,2.21,11.64,1.84,14,2.73.24,8.97,1.19,14.74,5.89,2.56,2.09,4.47,4.47,5.88,6.85,3.95,6.71,4.07,13.57,4.07,14.88.19.15.38.31.59.49,1.9,1.61,4.2,4.08,5.17,7.53.06.15.09.29.13.46.91,3.7.04,7.43-1.78,10.86Z" style="fill: #51813b;"/>
  <path d="m235.49,132.99c-.09,2.34-1.16,4.61-3.11,6.31-4.66,4.08-11.94,2.9-12.23,2.84-.75,1.36-3.58,5.97-10.27,8.55-4.91,1.89-9.43,1.74-11.45,1.58-5.29,4.29-12.95,5.16-18.17,2.53-4.92-2.49-5.81-7.13-5.92-7.91-1.39-.35-20.87-5.72-23.7-18.66-.43-1.92-.62-4.61.38-7.9-.49-.31-2.74-1.75-4.32-4.11-6.22.77-11.44-.32-13.65-.87-2.55.85-6.54,1.83-11.42,1.47-9-.66-15.1-5.44-17.31-7.37-1.93.77-4.88,1.62-8.47,1.47-8.68-.37-14.22-6.31-15.47-7.74-1.77,1.89-4.05,3.88-7,5.53-11.51,6.48-23.93,2.92-27.26,1.84-2.03,1.83-6.2,4.95-11.79,5.16-9.05.34-18.23-7.15-21.74-18.79-.75-.04-7.84-.55-11.05-5.89-3.36-5.61-1.22-14.52,6.26-19.53-.32-1.05-1.92-6.41.78-11.89,2.2,3.39,4.91,6.5,9.17,7.47,2.95.68,5.61.09,7.37-.49.1.55,1.92,9.53,10.32,12.76,6.16,2.37,11.67.01,12.78-.49,3.96,8.3,11.77,13.68,20.13,13.75,7.4.07,12.63-4.01,14.25-5.39,1.64,1.13,8.18,5.42,17.2,4.42,10.4-1.18,16.19-8.52,17.18-9.83.71,1.39,5,9.56,14.74,12.28,7.25,2.02,13.28-.18,15.24-.97-.6,3.88.04,7.69,1.77,10.88,1,1.89,2.4,3.54,4.13,4.83,2.36,1.78,4.88,2.52,6.88,2.81h.01c1.53.22,2.77.18,3.42.13-4.21,10.37-1.36,20.88,5.39,25.05,4.77,2.95,10.24,1.96,12.29,1.47,1.3.75,9.89,5.51,19.64,1.97,6.09-2.21,9.5-6.51,10.8-8.36,1.95,1.15,8.06,4.45,16.21,3.43,3.18-.4,5.86-1.34,8-2.37Z" style="fill: #487135;"/>
  <path d="m212.76,110.81c.6,2.08,1.19,5.33-.49,7.37-5.82,7-36.04-4.14-35.85-12.78.06-2.71,3.09-4.89,5.89-6.38-1.37.32-6.16,1.36-10.14-.07-1.15-.4-2.23-1.02-3.12-1.9-1.62-1.59-2.45-3.8-2.64-6.31-.27-3.32.62-7.15,2.24-10.64,1.9,1.61,4.2,4.08,5.17,7.53,9.02-2.49,16.8-.43,18.69.12,2.59-1.62,7.22-3.96,13.03-3.79,14.81.46,22.91,16.95,23.93,18.98.78,1.58,1.41,3.15,1.92,4.7-7.5,2.43-16.3,3.02-18.63,3.17Z" style="fill: #5f903e;"/>
  <path d="m164,64.73c-4.57,3.52-13.47,3.95-21.47-1.08-3.67,1.31-10.12,2.99-17.68,1.47-18.54-3.73-25.97-23.03-26.52-24.57-2.42,4.94-5.23,6.06-6.4,6.38-6.35,1.81-15.94-5.33-21.6-19.16-4.55,2.93-7.74,2.77-9.34,2.46-4.94-.96-9.28-6.16-11.73-14.15,1.02-1.58,3.05-4.07,6.45-5.75,5.22-2.56,10.11-1.44,11.42-1.11,2.11-2.28,5.6-5.38,10.68-7.37,12.88-5.03,24.92,1.47,26.89,2.58,11.83-2.17,23.02,2.2,28,10.68,3.3,5.64,2.96,11.54,2.58,14.37,1.69,1.5,4.38,4.24,6.26,8.47,2.73,6.09,2.21,11.64,1.84,14,2.73.24,8.97,1.19,14.74,5.89,2.56,2.09,4.47,4.47,5.88,6.85Z" style="fill: #5f903e;"/>
  <path d="m57.17,91.04c-.29-.31-6.48-7.11-4.05-15.47,1.98-6.81,8.79-11.65,16.58-11.42.32-2.19,1.1-4.87,2.95-7.37,4.2-5.68,12.21-8.1,20.63-6.63-1.15-1.51-6.66-8.43-16.58-9.95-11.88-1.81-20.28,5.63-21.37,6.63-1.49-.24-6.15-.8-11.05,1.84-4.18,2.25-6.24,5.6-7,7-1.92-.47-4.95-.84-8.1.37-5.83,2.24-9.7,8.99-9.58,16.95,12.53,6.02,25.05,12.03,37.58,18.05Z" style="fill: #487135;"/>
  <path d="m132.7,220.35c-1.27,5.23-2.79,14.78,0,27.01h-48.14c-.5-4.72-.52-8.55-.19-11.69,6.44-3.54,12.07-5.97,18.86-4.64,4.3.84,7.54,2.87,9.58,4.42,1.41-9.03,4.32-15.02,7.37-15.1.71-.01,2.33.25,4.42,3.68,2.83-10.46,5.25-12.89,7-12.89,1.16,0,2.06,1.05,3.04,2.99-.75,1.96-1.4,4.04-1.93,6.22Z" style="fill: #885645;"/>
</svg>