<?xml version="1.0" encoding="UTF-8"?>
<svg id="uuid-68d12d41-0133-4b31-9532-3f9711a5946f" data-name="Layer 1" xmlns="http://www.w3.org/2000/svg" viewBox="0 0 240.29 340.05">
  <g>
    <path d="m202.5,213.02c4.41,9.98.96,25.43-9.44,32.67-8.76,6.1-21.5,5.7-32.67-.73-3.08-.3-7.56-1.14-12.34-3.63-9.36-4.87-13.73-12.82-15.24-15.97-1.52,3.03-4.37,7.64-9.44,11.62-10.05,7.89-21.43,7.49-24.68,7.26-3.16,2.91-8.58,6.92-15.97,7.99-18.64,2.69-38.17-14.99-37.02-26.86,1.63-16.81,44.92-24.23,60.25-26.86,6.86-1.18,84.03-13.78,96.55,14.52Z" style="fill: #6c8137;"/>
    <path d="m172.74,212.29c-5.05,3.75-11.7,9.38-18.15,17.42,0,0-10.16,12.69-15.97,29.04-4.73,13.33-5.55,27.5-4.59,40.25,1.54,20.76,7.7,37.75,8.94,41.06h-20.38c1.07-9.81,1.63-20.24,1.51-31.21-.03-1.39-.03-2.79-.09-4.15-1.54-56.59-21.08-102.44-38.39-133.05,3.86-.23,7.75-.49,11.62-.73,7.11,13.79,14.2,28.54,21.05,44.28,4.76,10.92,9.12,21.57,13.07,31.94,4.7-7.26,11.5-16.06,21.05-24.68,5.84-5.26,11.56-9.44,16.7-12.69,1.22.84,2.41,1.68,3.63,2.53Z" style="fill: #885645;"/>
    <path d="m239.03,211.1c-2.67,7.2-8.77,10.86-11.62,12.57-24.3,14.61-63.8-3.95-69.69-6.77-.81.99-5.26,6.3-12.57,6.77-7.06.46-13.97-3.75-17.42-10.66-6.27,5.81-15.88,13.42-29.04,19.37-32.26,14.58-77.07,15.19-85.17-1.95-1.83-3.86-2.93-11.01,4.82-24.19-4.47-3.89-12.69-12.17-16.44-25.18-8.04-27.82,11.79-51.22,13.53-53.23-.81-4.21-2.38-14.72.81-27.32.7-2.96,1.68-6.01,3.05-9.15.29-.73.64-1.48.99-2.24,9.15-19.4,25.29-27.79,30-30.02,1.57-6.53,4.73-16.2,11.62-26.13C74.19,15.3,95.27,1.31,116.12.09c32.2-1.86,66.93,26.66,76.46,70.65,2.44,2.56,15.01,16.23,13.56,35.83-.29,4.07-1.16,7.69-2.26,10.86-1.36,4.04-3.11,7.23-4.5,9.47,7.06-.32,13.73,2.96,17.42,8.71.93,1.45,1.63,3.02,2.12,4.65,1.8,6.16.44,13.21-4.07,18.58,2.18.64,6.77,2.38,10.66,6.77,5.89,6.65,5.87,14.55,5.81,16.46,1.22,1.45,12.75,15.51,7.72,29.04Z" style="fill: #8fac3d;"/>
    <path d="m239.03,211.1c-2.67,7.2-8.77,10.86-11.62,12.57-24.3,14.61-63.8-3.95-69.69-6.77-.81.99-5.26,6.3-12.57,6.77-7.06.46-13.97-3.75-17.42-10.66-6.27,5.81-15.88,13.42-29.04,19.37-32.26,14.58-77.07,15.19-85.17-1.95-1.83-3.86-2.93-11.01,4.82-24.19-4.47-3.89-12.69-12.17-16.44-25.18-8.04-27.82,11.79-51.22,13.53-53.23-.81-4.21-2.38-14.72.81-27.32,4.85,10.22,12.17,18.18,21.46,22.47,3.89,1.8,9.67,3.66,17.42,3.63,0,1.51.41,25.67,19.6,37.02,9.41,5.58,18.9,5.43,23.23,5.08,15.74,23.49,36.64,34,49.36,28.31,2.58-1.16,6.74-3.83,10.16-10.89,11.82-.03,22.45-5.78,27.59-15.24,4.09-7.58,3.4-15.07,2.9-18.15,3.6.09,14.2-.09,24.68-7.26,2.41-1.66,4.47-3.43,6.24-5.26,1.8,6.16.44,13.21-4.07,18.58,2.18.64,6.77,2.38,10.66,6.77,5.89,6.65,5.87,14.55,5.81,16.46,1.22,1.45,12.75,15.51,7.72,29.04Z" style="fill: #7e973b;"/>
    <path d="m206.13,106.57c-.29,4.07-1.16,7.69-2.26,10.86-5.14.06-11.41-1.89-17.34-6.04-1.67-4.45-5.34-12.37-13.07-19.6-5.91-5.53-11.94-8.54-15.97-10.16-1.64-17.11-14.41-30.85-30.49-33.39-13.96-2.21-28.27,4.36-36.3,16.7-5.74-2.35-10.93-3.32-15.24-3.63-30.62-2.23-52.84,25.77-56.16,30.08.29-.73.64-1.48.99-2.24,9.15-19.4,25.29-27.79,30-30.02,1.57-6.53,4.73-16.2,11.62-26.13C74.19,15.3,95.27,1.31,116.12.09c32.2-1.86,66.93,26.66,76.46,70.65,2.44,2.56,15.01,16.23,13.56,35.83Z" style="fill: #a3c03a;"/>
    <path d="m122.59,340.05c1.07-9.81,1.63-20.24,1.51-31.21-.03-1.39-.03-2.79-.09-4.15,3.28-1.6,6.65-3.48,10.02-5.69,1.54,20.76,7.7,37.75,8.94,41.06h-20.38Z" style="fill: #734232;"/>
    <path d="m147.33,108.48c-3.89.02-11.02.57-18.87,4.36-8.5,4.1-13.58,9.92-15.97,13.07-2.37-3.17-5.67-6.82-10.16-10.16-12.48-9.29-26.03-10.16-31.94-10.16,1.03-1.88,5.97-10.38,16.7-13.79,9.42-3,17.34-.17,19.6.73.46-.49,6.24-6.46,14.52-5.08,6.29,1.05,11.45,5.91,13.07,12.34,1.47.13,4.3.57,7.26,2.42,3.41,2.13,5.11,4.96,5.81,6.29Z" style="fill: #6c8137;"/>
  </g>
  <path d="m73.13,176.54c-3.33-.34-7.16-1.02-11.28-2.33-11.27-3.59-18.99-10.03-23.34-14.39-1.12.14-5.64.83-8.56,4.67-3.26,4.29-3.19,10.77.39,15.95-1.65,4.97-1.09,8.41-.39,10.5,4.28,12.84,28.51,19.11,42.01,10.5,2.9-1.85,4.78-4.04,5.84-5.45.7,0,5.87-.14,8.95-4.28,1.43-1.92,1.82-3.93,1.95-5.06-1.52.14-4.33.18-7.39-1.17-5.68-2.5-7.76-7.82-8.17-8.95Z" style="fill: #8fac3d;"/>
</svg>