<?xml version="1.0" encoding="UTF-8"?>
<svg id="uuid-727b0d2d-4fb8-4157-aaac-556a955e786e" data-name="Layer 1" xmlns="http://www.w3.org/2000/svg" viewBox="0 0 239.91 358.95">
  <path d="m50.8,39.88c2.73-14.6,12.82-26.02,25.66-29.04,10.88-2.56,20,1.8,22.96,3.38C105.35,4.93,115.68-.53,126.43.04c12.2.65,22.98,8.96,27.01,20.93,2.73.57,10.85,2.64,17.56,10.13,6.57,7.34,7.8,15.44,8.1,18.23,3.64.05,9.07.72,14.18,4.05,12.2,7.96,16.92,27.4,10.8,35.12-8.94,11.27-42.1-1.09-79.01-14.86-32.18-12-57.49-24.65-74.28-33.76Z" style="fill: #5f903e;"/>
  <path d="m103.81,182.2c-.98-3.22-2.66-7.93-5.57-13.17-5.65-10.19-12.51-16.22-14.69-18.23-7.06-6.53-16.41-18.44-26.34-42.04,2.7.34,5.4.68,8.1,1.01,1.62,7.13,4.09,12.8,6.58,17.22,8.48,15.02,18.79,18.39,30.39,34.44,4.48,6.2,7.54,12.05,9.62,16.71l-8.1,4.05Z" style="fill: #734232;"/>
  <path d="m2.86,87.15c.87,1.05,4.42,4.86,13.49,4.74,1.94,3.53,7.76,13.03,19.59,18.23,6.48,2.84,12.42,3.36,16.21,3.36,3.14,2.47,7.88,5.53,14.18,7.43,14.38,4.38,26.84-.24,31.06-2.03,5.51,3.67,14.67,8.77,27.02,11.49,10.51,2.29,19.53,2.03,25.65,1.34,13.98,17.06,32.92,25.57,48.62,20.95,3.42-1.01,8.04-3.04,12.84-7.43,10.7,1.24,20.89-2.9,25.65-10.8,2.55-4.23,3.14-8.87,2.49-13.37-1.11-7.8-5.9-15.25-10.6-19.73-7.54-7.17-16.69-8.47-20.26-8.77-5.02-16.71-17.65-29.29-33.08-32.41-11.71-2.37-21.45,1.42-25.67,3.38-.59-1.78-2.01-5.23-5.39-8.1-6.12-5.19-13.59-4.23-14.87-4.05-.59-1.42-10.23-23.52-33.08-27.03-14.08-2.15-25,4.01-28.36,6.08-2.31-1.03-10.37-4.29-19.59-1.34-9.76,3.12-17.02,12.03-18.9,22.95-3.24-.47-9.87-.91-16.21,2.69-3.83,2.21-7.05,5.59-9.38,9.46-4.8,7.84-5.96,17.56-1.42,22.95Z" style="fill: #51813b;"/>
  <path d="m2.86,87.15c.87,1.05,4.42,4.86,13.49,4.74,1.94,3.53,7.76,13.03,19.59,18.23,6.48,2.84,12.42,3.36,16.21,3.36,3.14,2.47,7.88,5.53,14.18,7.43,14.38,4.38,26.84-.24,31.06-2.03,5.51,3.67,14.67,8.77,27.02,11.49,10.51,2.29,19.53,2.03,25.65,1.34,13.98,17.06,32.92,25.57,48.62,20.95,3.42-1.01,8.04-3.04,12.84-7.43,10.7,1.24,20.89-2.9,25.65-10.8,2.55-4.23,3.14-8.87,2.49-13.37-7.76,1.56-18.19,3.57-25.67-2.13-2.82-2.15-4.38-4.74-5.06-6.08-4.98-.04-20.87-.79-33.93-12.66-5.39-4.88-8.65-10.17-10.64-14.18-6.62,1.07-16.71,1.78-28.36-1.01-5.59-1.34-10.33-3.22-14.18-5.06-4.44,1.8-21.45,8.16-40.52,1.01-10.76-4.03-17.71-10.68-21.27-14.69-6.14,2.31-20.26,6.69-37.99,3.55-6.87-1.22-12.8-3.3-17.77-5.61-4.8,7.84-5.96,17.56-1.42,22.95Z" style="fill: #487135;"/>
  <path d="m38.98,251.58c7.58,3.65,19.59,10.55,31.2,22.71,1.26,1.32,2.51,2.69,3.75,4.13,12.78,14.85,18.84,30.04,21.78,40.01,5.02,16.98,4.84,31.58,4.05,40.52h23.3c7.25-17.67,6.58-30.49,4.56-39-2.69-11.32-8.27-16.96-11.65-33.93-1.72-8.63-.71-9.18-1.86-19.83-.04-.47-.1-.93-.16-1.44-3.79-31.97-13.15-38.17-9.12-55.2,2.37-10.01,7.88-17.38,11.14-21.78,9.79-13.13,16.49-12.68,23.3-24.31,7.27-12.42,3.12-18.62,9.12-25.32,3.73-4.17,10.76-7.52,24.84-6.26-2.21-1.42-4.48-2.98-6.79-4.64-1.54.04-3.18.16-4.88.43-16.88,2.69-25.61,16.61-27,18.92-.28-3.14-2.17-20.7-16.53-34.01-2.92.67-6.18,1.03-9.5,1.05,12.54,11.75,18.54,29.96,13.53,42.75-5.92,15.13-28.44,27.35-30.39,28.36-3.32,1.74-5.41,2.51-7.6,5.06-6.34,7.35-4.15,18.62-.51,35.45,7.46,34.34,9.85,40.11,7.09,42.54-3.14,2.78-12.84,1.11-44.06-22.79-2.53,2.19-5.06,4.4-7.6,6.58Z" style="fill: #734232;"/>
  <path d="m70.18,274.29c1.26,1.32,2.51,2.69,3.75,4.13,12.78,14.85,18.84,30.04,21.78,40.01,5.02,16.98,4.84,31.58,4.05,40.52h23.3c7.25-17.67,6.58-30.49,4.56-39-2.69-11.32-8.27-16.96-11.65-33.93-1.72-8.63-.71-9.18-1.86-19.83-2.39,5.85-3.95,12.34-4.19,18.56-.36,8.97,2.03,16.31,4.05,20.93-6.24-7.09-15.5-15.94-28.36-23.64-5.21-3.12-10.39-5.65-15.42-7.74Z" style="fill: #5c3528;"/>
</svg>