<?xml version="1.0" encoding="UTF-8"?>
<svg id="uuid-2866c2f5-98b6-4eb3-aab5-72900f5e95b6" data-name="Layer 1" xmlns="http://www.w3.org/2000/svg" viewBox="0 0 230.64 367.96">
  <path d="m6.13,63.68c-.79.59-5.5,4.28-6.07,10.79-.71,8.1,5.62,13.15,6.07,13.49.29,3.25,1.2,7.77,4.05,12.14,9.79,15,35,16.77,38.46,10.79,2.34-4.05-3.31-15.07-42.5-47.23Z" style="fill: #6c8137;"/>
  <path d="m34.46,103.48c-.55,1.09-4.28,8.79-.67,16.87,3.22,7.22,11,11.82,19.57,11.47,1.78,1,5.58,2.76,10.12,2.02,6.92-1.12,12.71-7.58,14.17-16.19,1.61-.56,9.6-3.5,12.82-11.47,3.43-8.5-.32-18.36-5.4-22.26-9.2-7.07-30.2-.27-50.6,19.57Z" style="fill: #6c8137;"/>
  <path d="m101.47,90.33c.32,4.07,3.44,6.23,3.83,6.48.02,2,.36,6.15,3.06,10.3,4.7,7.29,12.77,8.6,14.11,8.78.38.63,4.9,7.89,13.74,8.4,8.04.47,13.12-5.02,13.74-5.73.87-.02,7.53-.32,11.46-5.73,1.42-1.96,2.25-4.27,2.49-6.7.38-3.78-.69-7.83-3.26-11.23.45-.47,3.81-4.13,3.06-9.17-.65-4.39-4.13-8.04-8.78-9.15.26-.49,3.89-7.47,0-14.51-.93-1.68-2.06-3-3.26-4.03-3.4-2.87-7.23-3.52-7.81-3.6-1.88-6.48-6.88-9.98-10.69-9.17-2.39.53-3.91,2.67-4.57,3.83-.34-.32-7.37-6.68-12.59-4.57-3.56,1.44-6.19,6.76-5.65,13.66.2,2.98,1.01,6.23,2.59,9.61-.83.08-4.64.55-7.25,3.83-.18.22-.36.47-.53.71-2.04,3.06-2.27,7.12-.63,10.73-.3.26-3.38,2.96-3.06,7.27Z" style="fill: #8fac3d;"/>
  <path d="m101.47,90.33c.32,4.07,3.44,6.23,3.83,6.48.02,2,.36,6.15,3.06,10.3,4.7,7.29,12.77,8.6,14.11,8.78.38.63,4.9,7.89,13.74,8.4,8.04.47,13.12-5.02,13.74-5.73.87-.02,7.53-.32,11.46-5.73,1.42-1.96,2.25-4.27,2.49-6.7-8.95,3.95-17.63,3.89-23.34-.12-1.7-1.19-5.24-4.21-7.08-11.13-1.46-.06-16.86-.85-24.79-13.66-1.9-3.06-2.96-6.13-3.52-8.89-2.04,3.06-2.27,7.12-.63,10.73-.3.26-3.38,2.96-3.06,7.27Z" style="fill: #7e973b;"/>
  <path d="m52.67,188.49c-.97,3.02-.61,5.1,5.4,23.62,4.64,14.25,5.85,17.39,9.45,20.24,4.15,3.28,7.25,2.85,12.14,4.72,0,0,10.79,4.11,20.91,22.26,5.49,9.84,6.09,29.33.28,54-3.87,16.37-10.55,35.02-20.52,54.63h53.31c-.26-6.88.08-16.94,3.36-28.34,3.99-13.91,10.24-22.59,17.2-32.85,1.66-2.43,3.34-4.94,5.06-7.63,6.78-10.67,15.32-26.43,22.26-47.91-3.16.67-6.29,1.36-9.45,2.02-4.96,16.64-12.69,28.38-18.22,27.67-5.81-.75-10.81-15.56-10.12-36.43-2.69.22-5.38.45-8.1.67,2.43,10.36,6.23,33.19-2.69,59.36-.32.91-.65,1.82-.97,2.71-5.36,14.45-12.91,25-18.6,31.7,1.25-7.1,2.71-17.2,3.3-29.43.04-.53.06-1.05.08-1.6.51-11.8.93-23.6-2.02-38.46-2.89-14.57-5.93-29.85-16.86-36.43-2.17-1.3-7.87-4.21-13.5-6.74-9.07-4.11-9.55-3.48-12.14-5.4-6.96-5.18-11.64-15.87-8.76-23.62,2.11-5.69,6.68-5.22,10.12-10.12,6.88-9.84-1.64-25.75-7.43-40.64-4.68-12-10.12-29.96-12.14-54.14-2.02-.57-4.05-1.13-6.07-1.68,2.02,22.97,7,40.1,11.48,51.94,4.25,11.27,9.94,22.83,4.72,32.38-3.58,6.6-9.19,6.44-11.48,13.5Z" style="fill: #885645;"/>
  <path d="m72.75,239.09c3.81,3.83,9.68,3.68,11.64,3.54,1.3,1.96,5.22,7.37,12.65,10.12,9.29,3.44,17.39.26,19.23-.51,1.03,1.07,4.86,4.84,11.13,5.57,5.93.69,10.32-1.72,11.64-2.53,12.04,15.89,29.15,22.99,42,18.22,2.75-1.01,7.33-3.34,11.64-9.11,4.43,1.68,9.27.65,12.14-2.53,2.91-3.22,2.61-7.33,2.53-8.1,14.35-3.76,23.74-15.54,23.28-27.32-.4-10.06-7.83-16.7-9.61-18.22.16-.38,2.91-7.59.53-15-.61-1.94-1.6-3.89-3.06-5.75-4.31-5.42-10.32-6.76-12.14-7.08.97-6.01.2-11.98-2.1-17.1-1.78-4.05-4.49-7.57-8.02-10.22-7.41-5.57-15.67-5.26-18.22-5.06-1.68-1.72-14.49-14.45-32.38-12.14-8.52,1.09-14.61,5.14-17.71,7.59-2.39-.14-15.36-.67-25.81,9.11-13.58,12.71-10.36,31.15-10.12,32.38-2.43.91-7.25,3.14-11.13,8.1-2.69,3.44-4.07,7.1-4.74,10.36-1.01,4.8-.49,8.74-.32,9.88-4.07,4.59-6.13,9.76-6.52,14.43-.38,4.61.87,8.74,3.48,11.38Z" style="fill: #8fac3d;"/>
  <path d="m70.73,167.24c2.33-4.04,6.21-10.02,12.14-16.19,9.1-9.46,16.28-12.38,23.78-18.22,6.86-5.34,15.72-14.48,22.77-30.87-2.19-.34-4.39-.67-6.58-1.01-1.69,4.03-4.73,10.13-10.12,16.19-9.68,10.87-18.54,12.16-31.37,23.28-3.81,3.3-9.19,8.52-14.67,16.19,1.35,3.54,2.7,7.08,4.05,10.63Z" style="fill: #885645;"/>
  <path d="m2.32,67.56c.12,1.62.55,3.02,1.13,4.21,1.5,3.24,4.03,5,4.43,5.26.04,2.91.55,9.01,4.47,15.06,6.88,10.65,18.66,12.55,20.62,12.83.55.91,7.14,11.54,20.08,12.27,11.74.69,19.17-7.33,20.1-8.36,1.25-.04,10.97-.47,16.72-8.36,5.34-7.35,5.02-18.07-1.11-26.21.38-.4,2.1-2.29,3.34-5.18.95-2.21,1.6-5.02,1.13-8.22-.95-6.42-6.03-11.76-12.83-13.38.38-.71,5.65-10.91,0-21.19-1.48-2.71-3.38-4.76-5.32-6.31-4.82-3.87-10.04-4.74-10.85-4.86-2.77-9.45-10.08-14.55-15.63-13.38-3.52.75-5.71,3.89-6.7,5.59-.51-.49-10.77-9.78-18.4-6.7-7.45,3-12.08,17.63-4.47,34.02-1.19.12-6.76.81-10.59,5.57-.69.87-1.28,1.8-1.72,2.77-2.06,4.21-2.08,9.37.04,13.97-.45.38-4.94,4.31-4.45,10.61Z" style="fill: #8fac3d;"/>
  <path d="m3.45,71.77c1.5,3.24,4.03,5,4.43,5.26.04,2.91.55,9.01,4.47,15.06,6.88,10.65,18.66,12.55,20.62,12.83.55.91,7.14,11.54,20.08,12.27,11.74.69,19.17-7.33,20.1-8.36,1.25-.04,10.97-.47,16.72-8.36,5.34-7.35,5.02-18.07-1.11-26.21.38-.4,2.1-2.29,3.34-5.18-4.84,1.07-8.87.4-10.75,0-.51,10.99-3.81,18.34-7.59,18.72-.63.06-3.14.12-6.58-5.06-1.76.67-7.41,2.53-14.17.51-7.39-2.23-11.17-7.61-12.14-9.11-3.1,1.38-14.01,5.73-27.32,2.02-3.93-1.07-7.27-2.65-10.1-4.39Z" style="fill: #7e973b;"/>
  <path d="m72.75,239.09c3.81,3.83,9.68,3.68,11.64,3.54,1.3,1.96,5.22,7.37,12.65,10.12,9.29,3.44,17.39.26,19.23-.51,1.03,1.07,4.86,4.84,11.13,5.57,5.93.69,10.32-1.72,11.64-2.53,12.04,15.89,29.15,22.99,42,18.22,2.75-1.01,7.33-3.34,11.64-9.11,4.43,1.68,9.27.65,12.14-2.53,2.91-3.22,2.61-7.33,2.53-8.1,14.35-3.76,23.74-15.54,23.28-27.32-.4-10.06-7.83-16.7-9.61-18.22.16-.38,2.91-7.59.53-15-.99,2.39-2.33,4.92-4.23,7.41-3.42,4.47-7.39,7.19-10.12,8.76,7.14,9.03,6.8,20.73.67,27-5.67,5.77-14.25,4.88-15.52,4.72-2.21,2.08-11.31,10.14-24.96,10.12-8.24-.02-14.45-2.98-17.55-4.72-4.35,1.23-16.96,4.21-31.03-1.36-8.74-3.46-14.49-8.8-17.55-12.14-4.64.63-12.43,1.09-21.58-1.36-3.95-1.05-7.41-2.45-10.4-3.95-.38,4.61.87,8.74,3.48,11.38Z" style="fill: #7e973b;"/>
  <path d="m76.11,203.41c3.58-1.92,9.57-4.19,17.04-3.44,9.61.95,15.71,6.34,17.55,8.1,2.31-2.96,7.31-8.46,15.52-11.48,16.01-5.87,30.4,2.81,32.38,4.05-.51-2.98-1.98-9.03-6.76-14.84-6.44-7.85-14.74-10.16-17.53-10.81.31-1.93,1.95-10.85,10.11-16.86,10.73-7.9,23.18-3.77,24.29-3.38,2.41-1.19,8.75-3.91,16.86-2.69,11.12,1.67,17.33,9.5,18.64,11.23-1.78-4.05-4.49-7.57-8.02-10.22-7.41-5.57-15.67-5.26-18.22-5.06-1.68-1.72-14.49-14.45-32.38-12.14-8.52,1.09-14.61,5.14-17.71,7.59-2.39-.14-15.36-.67-25.81,9.11-13.58,12.71-10.36,31.15-10.12,32.38-2.43.91-7.25,3.14-11.13,8.1-2.69,3.44-4.07,7.1-4.74,10.36Z" style="fill: #a3c03a;"/>
  <path d="m200.77,204.18c-2.08-1.72-4.93-3.64-8.6-5.06-10.35-4.01-19.89-1.18-23.28,0,.27-1.62,1.28-6.5,5.57-10.63,3.98-3.83,8.46-4.79,10.12-5.06.26-.98,1.27-4.29,4.55-6.58,4.48-3.12,9.46-1.71,10.12-1.52-1.56,1.69-3.56,4.38-4.55,8.1-2.88,10.74,5.27,19.88,6.07,20.75Z" style="fill: #7e973b;"/>
  <path d="m6.73,42.99c9.63-3.48,18.01-1.03,20.48-.22.02-1.38.3-10.3,6.58-14.67,7.25-5.04,20.3-2.51,28.34,8.6.71-4.19,2.35-9.41,6.58-13.16,2-1.78,4.19-2.87,6.38-3.56-4.82-3.87-10.04-4.74-10.85-4.86-2.77-9.45-10.08-14.55-15.63-13.38-3.52.75-5.71,3.89-6.7,5.59-.51-.49-10.77-9.78-18.4-6.7-7.45,3-12.08,17.63-4.47,34.02-1.19.12-6.76.81-10.59,5.57-.69.87-1.28,1.8-1.72,2.77Z" style="fill: #a3c03a;"/>
  <path d="m110.34,58.19c1.5-.38,3.16-.65,4.92-.75,13.38-.79,22.63,8.4,24.29,10.12,1.5-1.92,3.95-4.68,7.59-7.08,1.52-.99,3.04-1.8,4.51-2.43-3.4-2.87-7.23-3.52-7.81-3.6-1.88-6.48-6.88-9.98-10.69-9.17-2.39.53-3.91,2.67-4.57,3.83-.34-.32-7.37-6.68-12.59-4.57-3.56,1.44-6.19,6.76-5.65,13.66Z" style="fill: #a3c03a;"/>
  <path d="m133.66,367.96c-.26-6.88.08-16.94,3.36-28.34,3.99-13.91,10.24-22.59,17.2-32.85-4.37,1.4-9.15,2.19-14.51,1.8-2.85-.18-5.44-.71-7.71-1.34-5.36,14.45-12.91,25-18.6,31.7,1.25-7.1,2.71-17.2,3.3-29.43-4.25,2.04-9.78,3.89-15.83,3.83-3.87,16.37-10.55,35.02-20.52,54.63h53.31Z" style="fill: #734232;"/>
</svg>