<?xml version="1.0" encoding="UTF-8"?>
<svg xmlns="http://www.w3.org/2000/svg" viewBox="0 0 348.54 464">
  <g style="isolation: isolate;">
    <g id="uuid-189e9b76-7ce5-40e2-96d9-f0ba5412e4f6" data-name="Layer 1">
      <g>
        <path d="m241.76,219.35c23.57,4.98,40.78,20.52,42.71,21.63,1.95,1.12,5-5.82,5-5.82,0,0,2.77,8.05,4.44,6.94,1.67-1.12,4.72-23.03,12.21-35.24,4.51-7.34,10.01-18,14.11-25.68,2.71-5.09,4.81-8.88,5.59-9.54,1.93-1.67,11.65-3.05,18.3-1.12,2.23-1.65,2.79-6.93,2.79-6.93,0,0-19.7,5.54-19.42,3.33.27-2.23,13.58-15.82,21.07-18.86-.83-3.89-4.16-6.66-4.16-6.66,0,0-19.42,24.13-20.52,22.47-1.11-1.67,2.49-11.37,9.7-26.63-1.11-1.67-6.37-2.51-6.37-2.51,0,0-3.89,22.75-10.82,31.9-5.26-4.44-4.44-23.57-4.44-23.57,0,0-9.44,1.11-9.72,2.77-.27,1.67,11.37,18.62,10.54,25.8-.19,1.67-.62,3.41-1.25,5.17-5.51,15.48-25.92,33.66-25.92,33.66,0,0-40.5-3.61-50.76-19.7,0,0-11.66,11.65,6.93,28.57Z" style="fill: #d3905f;"/>
        <g>
          <path d="m181.31,360.44c3.27-.46,8.86.25,15.29,2.93,9.16,3.8,19.98,11.6,28.12,25.65-.03,24.4-13.45,43.05-25.17,54.68-9.07,9.01-17.12,13.81-17.12,13.81l3.88,6.47h116.46s-19.52-37.48-32.45-31.99c-3.07,1.31-8.51,3.51-15.04,6.09-20.66,8.2-52.13,20.35-53.11,20.71,1.22-1.46,40.74-47.66,65-59.43-.24,4.84,1.21,8.39,11.54-6.8,1.62,5.82,4.85,2.27,3.88-4.2-.97-6.46-3.95-54.79-31.02-89.58-9.38-12.05-36.83-21.89-62.04,1.7-25.2,23.59-16.16,61.07-8.23,59.95Z" style="fill: #d3905f;"/>
          <path d="m224.72,389.03c-.03,24.4-13.45,43.05-25.17,54.68,5.68-1.53,10.22-3.21,10.22-3.21,10.91-9.35,31.57-46.75,31.57-52.21s-4.29-25.33-2.73-29.6c1.56-4.29-33.51-14.42-35.07-13.64-.55.28-3.42,8.17-6.93,18.33,9.16,3.8,19.98,11.6,28.12,25.65Z" style="fill: #d3905f; mix-blend-mode: multiply; opacity: .2;"/>
          <path d="m247.24,464h55.52s-19.52-37.48-32.45-31.99c-3.07,1.31-8.51,3.51-15.04,6.09-7.53,9.2-8.17,20.83-8.03,25.9Z" style="fill: #64452e;"/>
          <g>
            <path d="m271.98,464h1.47c.68-4.67.72-13.06-5.81-18.74l-.97,1.12c6.13,5.32,5.96,13.31,5.31,17.62Z" style="fill: #64452e; mix-blend-mode: multiply; opacity: .5;"/>
            <path d="m280.68,445.11c6.65,7.09,7.52,15.26,7.53,18.89h1.49c.01-3.85-.87-12.35-7.95-19.9l-1.08,1.02Z" style="fill: #64452e; mix-blend-mode: multiply; opacity: .5;"/>
          </g>
        </g>
        <path d="m29.75,433.39c12.96,17.8,27.61,32.14,38.3,28.73,18.72-5.96,26.66-62.28,45.75-76.61.62-.47,1.25-.88,1.89-1.25,20.48-11.91,88.12-3.82,126.23-25.73,1.19-.68,2.36-1.37,3.51-2.06,34.85-21.23,38.72-42.42,38.72-59.24s-37.14-82.25-54.62-120.29c-.58-1.24-1.14-2.45-1.65-3.61-3.82-8.57-6.31-13.48-7.37-16.76-8.73-26.97-45.66-13.78-37.88.53,5.44,10,8.49,23.94,8.48,38.2-.01,11.56-2.03,23.34-6.44,33.41-2.26,5.18-5.15,9.91-8.71,13.92-1.19,1.36-2.51,2.71-3.89,4.1-3.66,3.61-7.93,7.31-12.56,11.04-21.67,17.53-51.29,35.94-62.64,50.13-18.55,23.18-35.99,115.2-42.43,116.34-6.44,1.14-50.41-50.02-54.2-46.6-2.17,1.95,12.18,31.95,29.53,55.76Z" style="fill: #d3905f;"/>
        <path d="m29.75,433.39c12.96,17.8,27.61,32.14,38.3,28.73,18.02-7.86,26.61-62.39,45.75-76.61.62-.47,1.25-.88,1.89-1.25,20.48-11.91,88.12-3.82,126.23-25.73,1.19-.68,2.36-1.37,3.51-2.06,34.85-21.23,38.72-42.42,38.72-59.24s-37.14-82.25-54.62-120.29c-.58-1.24-1.14-2.45-1.65-3.61-10.7-9.01-16.39.27-10.31,35.25,7.15,40.97,21.98,72.79,13.4,88.98-8.57,16.2-30,29.53-58.12,40.01-28.1,10.48-42.87,14.77-57.63,22.87-14.77,8.09-35.72,77.77-44.78,91.67-4.38,6.72-11.53,6.75-40.69-18.72Z" style="fill: #f0c09f;"/>
        <path d="m272.69,333.76c-22.43,8.57-43.88-13.43-43.88-13.43,0,0,22.81,34.61,43.88,13.43Z" style="fill: #bd7d67;"/>
        <g>
          <path d="m115.22,360.44c7.93-1.12,29.56,4.69,43.4,28.59-.05,35.27-28.07,58.52-38.46,65.94-2.12,1.51-2.73,4.38-1.39,6.61h0c.9,1.5,2.52,2.42,4.26,2.42h113.64s-19.52-37.48-32.45-31.99c-3.07,1.31-8.51,3.51-15.04,6.09-20.98,8.33-53.13,20.73-53.13,20.73,0,0,40.38-47.49,65.03-59.44-.24,4.84,1.21,8.39,11.54-6.8,1.62,5.82,4.85,2.27,3.88-4.2-.97-6.46-3.95-54.79-31.02-89.58-9.38-12.05-36.83-21.89-62.04,1.7-25.2,23.59-16.16,61.07-8.23,59.95Z" style="fill: #d3905f;"/>
          <path d="m181.15,464h55.52s-19.52-37.48-32.45-31.99c-3.07,1.31-8.51,3.51-15.04,6.09-7.53,9.2-8.17,20.83-8.03,25.9Z" style="fill: #64452e;"/>
          <g>
            <path d="m205.89,464h1.47c.68-4.67.72-13.06-5.81-18.74l-.97,1.12c6.13,5.32,5.96,13.31,5.31,17.62Z" style="fill: #64452e; mix-blend-mode: multiply; opacity: .5;"/>
            <path d="m214.59,445.11c6.65,7.09,7.52,15.26,7.53,18.89h1.49c.01-3.85-.87-12.35-7.95-19.9l-1.08,1.02Z" style="fill: #64452e; mix-blend-mode: multiply; opacity: .5;"/>
          </g>
          <path d="m205.89,381.15c-1.8,9.06-21.79-14.82-23.21-19.66-.14,8.77-5.79.77-13.6-6.48-7.81-7.25-44.47-15.28-47.27-29.09-2.8-13.82,39.61-37.07,59.27-17.89,19.65,19.18,26.42,65.06,24.82,73.12Z" style="fill: #946543; mix-blend-mode: screen; opacity: .2;"/>
        </g>
        <g>
          <path d="m228.12,125.23c2.15-1.25,2.83-3.64,2.68-6.46-.16-3.04-1.31-6.58-2.64-9.7-1.55-3.61-3.36-6.69-4.23-7.86-2.31-3.1-16.42-4.81-17.5-2.48-1.09,2.33,7.59,31.3,21.69,26.49Z" style="fill: #954464;"/>
          <path d="m219.36,104.58c6.54,7.82,4.97,16.91,2.98,19.61s-16.91-14.25-15.92-25.45c6.11.3,12.93,5.84,12.93,5.84Z" style="fill: #ed6a69;"/>
          <path d="m206.59,99.5c1.56,5.65,13.84,18.1,24.21,19.27-.16-3.04-1.31-6.58-2.64-9.7-5.34-3.52-13.22-7.89-21.57-9.57Z" style="fill: #bd764f; mix-blend-mode: multiply; opacity: .4;"/>
          <g>
            <path d="m168.99,78.89l5.08-1.77,3.76-1.3s1.16-1.29,3.04-3.49c1.14-1.33,2.54-2.99,4.1-4.89,2.56-3.12,5.55-6.87,8.51-10.86.35-.48.68-.93,1.03-1.41,4.65-6.4,9.05-13.27,11.36-18.92,1.37-3.36,2-6.3,1.48-8.45-2.9-11.98-15.83-29.22-18.89-27.7-2.15,1.08-10.98,40-15.96,62.72-1.66,7.53-2.9,13.29-3.34,15.3-.09.5-.16.78-.16.78Z" style="fill: #d3905f;"/>
            <path d="m174.08,77.12l3.76-1.3s21.8-24.24,28.03-39.57c-1.03-9.47-7.71-19.5-8.96-17.71-1.31,1.87-18.41,46.87-22.82,58.59Z" style="fill: #f0c09f;"/>
            <path d="m169.15,78.12l7.99-4.78c2.18-1.61,4.84-3.61,7.83-5.9,2.56-3.12,5.55-6.87,8.51-10.86-9.61,3.39-17.79,5.48-20.99,6.25-1.66,7.53-2.9,13.29-3.34,15.3Z" style="fill: #d3905f; mix-blend-mode: multiply; opacity: .4;"/>
            <path d="m182.62,157.1c16.53,34.43,45.73,16.65,36.33-4.82-3.21-7.34-4.57-14.74-4.94-21.32-.24-4.01-.09-7.71.24-10.9.01-.16.03-.31.04-.47-.77-1.14-6.93-10.62-7.86-20.86,2,4.22,10.26,10.04,10.26,10.04,0,0,1.08.72,2.98,1.83,7.46,4.35,27.56,14.55,43.57,9.04,19.15-6.6,24.34-28.65,23.99-43.37-.1-5.06-.87-9.26-1.95-11.68-1.78-4-12.56-6.6-26.91-7.56-31.62-2.15-80.68,3.63-89.39,20.01-10.08,18.9-2.89,45.65,13.64,80.07Z" style="fill: #d3905f;"/>
            <path d="m214.01,130.96c-.24-4.01-.09-7.71.24-10.9-4.16-6.96-9.91-15.92-10.28-13-.57,4.38-.87,17.85,10.04,23.9Z" style="fill: #d3905f; mix-blend-mode: multiply; opacity: .4;"/>
            <path d="m258.37,57.02c1.92,6.09,7.41,20.33,11.99,21.56,3.13.84,11.07-.85,16.87-2.33-.11-5.05-.88-9.26-1.96-11.67-1.78-3.99-12.55-6.6-26.9-7.57Z" style="fill: #64452e;"/>
            <g>
              <path d="m184.9,90.72c2.68,5.45,9.27,7.7,14.73,5.02,5.45-2.68,7.7-9.27,5.02-14.73-2.68-5.45-9.27-7.7-14.73-5.02-5.45,2.68-7.7,9.27-5.02,14.73Z" style="fill: #bd764f;"/>
              <path d="m186.37,90c2.28,4.65,7.9,6.56,12.55,4.28,4.65-2.28,6.56-7.9,4.28-12.55-2.28-4.65-7.9-6.56-12.55-4.28-4.65,2.28-6.56,7.9-4.28,12.55Z" style="fill: #64452e;"/>
              <path d="m186.84,90.96c2.02,4.12,7.43,5.6,12.08,3.32,4.65-2.28,6.77-7.47,4.75-11.59-2.02-4.12-7.43-5.6-12.07-3.32-4.65,2.28-6.77,7.47-4.75,11.59Z" style="fill: #fff;"/>
              <path d="m190.17,88.15c1.15,2.35,3.99,3.31,6.33,2.16s3.31-3.99,2.16-6.33c-1.15-2.35-3.99-3.31-6.34-2.16-2.35,1.15-3.31,3.99-2.16,6.33Z" style="fill: #64452e;"/>
              <path d="m188.72,85.48c.24.9,1.17,1.43,2.06,1.19.9-.24,1.43-1.17,1.19-2.06-.24-.9-1.17-1.43-2.06-1.19s-1.43,1.17-1.19,2.06Z" style="fill: #fff;"/>
            </g>
            <path d="m207.69,84.46c-15.7-.75-21.47,8.61-22.45,12.53-.98,3.92,7.26,6.37,17.99,1.43,10.74-4.95,12.39-13.58,4.46-13.96Z" style="fill: #d3905f;"/>
            <path d="m280.36,65.16c1.72,1.87-11.73,4.79-13.06,4.67-1.34-.13-6.19-9.07-6.3-10.67-.11-1.6,16.6,3.01,19.36,6Z" style="fill: #64452e; mix-blend-mode: screen; opacity: .5;"/>
            <path d="m194.51,69.38c-7.37-.48-15.11,9.62-15.11,9.62,0,0,3.24-15.96,15.11-9.62Z" style="fill: #64452e;"/>
          </g>
          <g>
            <path d="m166.26,87.98l2.79-4.6,2.06-3.4s-3.86-7.77-3.82-10.66c.03-1.75.05-3.92.04-6.38-.02-4.04-.11-8.83-.38-13.79-.04-.59-.07-1.15-.11-1.74-.5-7.9-1.5-15.99-3.32-21.81-1.09-3.46-2.48-6.12-4.25-7.45-9.88-7.38-30.82-12.41-32.22-9.29-.96,2.21,17.05,37.81,27.71,58.49,3.53,6.86,10.18,18.12,11.13,19.95.25.44.37.7.37.7Z" style="fill: #d3905f;"/>
            <path d="m169.04,83.38l2.06-3.4s-2.61-38.61-7.59-54.39c-6.83-6.63-18.37-10.1-18.2-7.92.18,2.28,19.65,53.87,23.73,65.71Z" style="fill: #f0c09f;"/>
          </g>
          <path d="m206.43,98.74c3.87,17.51,17.36,28.05,21.7,26.5-9.76,9.14-17.69,2.87-21.54-5.42-5.44-11.7-.15-21.08-.15-21.08Z" style="fill: #d3905f;"/>
          <path d="m203.47,100.95c.07-.1,1.88-2.59,7.28-2.68l-.03-1.47c-6.22.11-8.39,3.2-8.48,3.33l1.22.83Z" style="fill: #bd764f;"/>
        </g>
        <path d="m165.05,289.12c-1.05,1.72-1.67,3.39-1.8,4.53-.46,3.8,15.52,11.94,22.41,11.16,1.16.32,2.33.38,3.24,0,2.3-.96,5.44-7.84,6.94-12.86.59-2.01.93-3.7.85-4.61-.22-2.71-16.2-21.55-24.65-40.6-3.66,3.61-7.93,7.31-12.56,11.04,11.16,10.03,24.81,23.66,26.73,28.48.1.28.21.55.28.81,0,.03.01.07.01.1-.81-.94-1.73-1.84-2.8-2.59-.5-.37-1.03-.69-1.61-.99-.06-.04-.13-.09-.21-.12-1.9-.97-3.7-1.42-5.37-1.47-.59-.03-1.16-.01-1.72.07-4.47.56-7.83,3.89-9.76,7.05Z" style="fill: #d3905f; mix-blend-mode: multiply; opacity: .4;"/>
        <g>
          <path d="m166.68,291.16c-.46,3.8,15.52,11.94,22.41,11.16.81-.09,1.49-.29,2-.65.78-.55,1.4-1.31,1.86-2.24,1.27-2.58,1.27-6.4-.13-10.04-1.06-2.74-2.93-5.4-5.68-7.3-.5-.37-1.03-.69-1.61-.99-.06-.04-.13-.09-.21-.12-1.9-.97-3.7-1.42-5.37-1.47-.59-.03-1.16-.01-1.72.07-4.47.56-7.83,3.89-9.76,7.05-1.05,1.72-1.67,3.39-1.8,4.53Z" style="fill: #4e3624;"/>
          <path d="m138.83,231.88c0,1.89,3.23,6.72,12.92,13.98,9.67,7.27,35.22,31.2,37.91,37.92.1.28.21.55.28.81.47,1.47.59,2.86.44,4.13-.44,4.16-3.52,7.19-5.29,8.77-1.72,1.55,1.08,4.04,4,4.84.01.01.01,0,.01,0,1.16.32,2.33.38,3.24,0,2.3-.96,5.44-7.84,6.94-12.86.59-2,.93-3.7.86-4.61-.27-3.23-22.85-29.31-28.5-51.37,9.14-7.25,31.46-9.94,36.3-14.24,4.84-4.31,2.42-25.55-11.56-28.23-19.9,20.17-54.58,33.33-55.92,34.96-1.36,1.61,3.21,4.03,3.21,4.03,0,0-4.84,0-4.84,1.89Z" style="fill: #d3905f;"/>
          <g style="mix-blend-mode: multiply; opacity: .5;">
            <path d="m174.22,291.93l1.21.84c.66-.96,6.35-9.32,4.54-13.25-.59-.03-1.16-.01-1.72.07.13.12.25.25.34.41,1.27,2.3-2,8.54-4.36,11.93Z" style="fill: #4e3624;"/>
          </g>
          <g style="mix-blend-mode: multiply; opacity: .5;">
            <path d="m181.13,294.85l1.27.77c.22-.38,4.97-8.29,4.75-13.52-.5-.37-1.03-.69-1.61-.99.97,3.69-2.8,11.12-4.41,13.74Z" style="fill: #4e3624;"/>
          </g>
        </g>
        <path d="m189.09,302.33c1.16.32,2.33.38,3.24,0,.46-.19.96-.63,1.47-1.24,2.02-2.42,4.28-7.62,5.47-11.62-2.37.49-4.6.32-6.46-.07-.93-.18-1.75-.43-2.45-.68-.31,2.98-1.99,5.38-3.57,7.08-.62.68-1.22,1.25-1.72,1.7-1.74,1.55,1.09,4.05,4.01,4.84Z" style="fill: #64452e;"/>
        <path d="m166.68,291.16c-.46,3.8,15.52,11.94,22.41,11.16,1.16.32,2.33.38,3.24,0,.46-.19.96-.63,1.47-1.24-.21-.55-.52-1.11-.85-1.65-1.27-2.03-3.05-3.86-3.05-3.86-.96.25-2,.31-3.1.22-7.02-.52-16.22-7.03-18.33-9.16-1.05,1.72-1.67,3.39-1.8,4.53Z" style="fill: #64452e;"/>
        <path d="m312.76,171.64c-.19,1.67-.62,3.41-1.25,5.17,2.67,1.86,5.97,3.82,8.71,4.36,2.71-5.09,4.81-8.88,5.59-9.54,1.93-1.67,11.65-3.05,18.3-1.12,2.23-1.65,2.79-6.93,2.79-6.93,0,0-19.7,5.54-19.42,3.33.27-2.23,13.58-15.82,21.07-18.86-.83-3.89-4.16-6.66-4.16-6.66,0,0-19.42,24.13-20.52,22.47-1.11-1.67,2.49-11.37,9.7-26.63-1.11-1.67-6.37-2.51-6.37-2.51,0,0-3.89,22.75-10.82,31.9-5.26-4.44-4.44-23.57-4.44-23.57,0,0-9.44,1.11-9.72,2.77-.27,1.67,11.37,18.62,10.54,25.8Z" style="fill: #64452e;"/>
        <path d="m200.14,284.85c-.27-3.23-22.85-29.31-28.5-51.37,9.14-7.25,31.46-9.94,36.3-14.24-3.54,2.33-25.51,5.79-38.04,13.5,4.28,24.92,30.24,52.1,30.24,52.1Z" style="fill: #d3905f; mix-blend-mode: screen; opacity: .3;"/>
      </g>
    </g>
  </g>
</svg>